<svg width="511" height="220" viewBox="0 0 511 220" fill="none" xmlns="http://www.w3.org/2000/svg">
<rect x="102" y="43.2988" width="312.994" height="156.523" rx="31.5714" fill="#D9D9D9" fill-opacity="0.1"/>
<rect x="103" y="44.2988" width="310.994" height="154.523" rx="30.5714" stroke="#F79CFF" stroke-opacity="0.6" stroke-width="2"/>
<rect x="113.234" y="98.6816" width="12.3958" height="45.3516" rx="6.19791" fill="#FDFFE3" fill-opacity="0.2"/>
<path d="M177.433 106C194.759 106 208.865 120.563 208.865 138.603C208.865 156.642 194.759 171.204 177.433 171.204C160.106 171.204 146 156.642 146 138.603C146 120.563 160.106 106 177.433 106Z" stroke="#F79CFF" stroke-width="2"/>
<path d="M177.481 116.631C188.947 116.631 198.331 126.445 198.331 138.663C198.331 150.881 188.947 160.694 177.481 160.694C166.014 160.694 156.63 150.881 156.63 138.663C156.63 126.445 166.014 116.631 177.481 116.631Z" stroke="#FDFFE3" stroke-width="2"/>
<path d="M337.135 167.998L337.135 186.255" stroke="#F79CFF" stroke-width="2" stroke-linecap="round" stroke-linejoin="round"/>
<path d="M347.267 176.426L337.134 186.256L327 176.426" stroke="#F79CFF" stroke-width="2" stroke-linecap="round" stroke-linejoin="round"/>
<path d="M303.257 110.406L285 110.406" stroke="#F79CFF" stroke-width="2" stroke-linecap="round" stroke-linejoin="round"/>
<path d="M294.831 120.545L285 110.411L294.831 100.277" stroke="#F79CFF" stroke-width="2" stroke-linecap="round" stroke-linejoin="round"/>
<path d="M339.352 124.429L344.639 117.92M344.639 117.92L354.647 105.6C355.654 104.36 356.994 101.293 354.299 98.943C351.604 96.5931 348.916 98.4851 347.909 99.7249C343.256 105.326 340.033 109.205 336.238 113.771C334.611 115.731 331.518 119.583 330.763 120.513C330.574 120.745 330.837 111.048 329.538 109.12C328.315 107.305 324.776 106.953 323.23 108.385C321.683 109.816 321.774 112.452 321.437 114.367C321.014 116.777 320.213 119.653 319.258 123.189C318.334 126.614 316.891 132.243 316.34 138.116C315.9 142.815 317.622 145.985 318.52 146.768L330.423 157.147C331.995 158.518 336.803 158.739 339.697 158.482C344.669 158.042 347.999 155.662 349.144 154.41L359.907 141.16C360.851 139.997 362.031 136.659 359.561 134.505C357.09 132.351 354.426 134.528 353.773 135.017L353.396 135.482C353.396 135.482 349.997 139.667 349.43 140.364C348.864 141.061 354.264 134.413 355.473 132.925C356.983 131.066 356.28 127.673 354.934 126.5C353.589 125.326 351.675 124.849 349.902 126.083L344.615 132.591C346.377 130.422 350.091 125.85 350.846 124.92C351.79 123.758 352.593 120.884 349.898 118.534C347.742 116.654 345.418 117.275 344.639 117.92Z" stroke="#FDFFE3" stroke-width="2" stroke-linecap="round"/>
<path d="M374 110.133L392.257 110.133" stroke="#F79CFF" stroke-width="2" stroke-linecap="round" stroke-linejoin="round"/>
<path d="M382.426 100L392.257 110.134L382.426 120.268" stroke="#F79CFF" stroke-width="2" stroke-linecap="round" stroke-linejoin="round"/>
<rect x="127" y="55" width="32.8255" height="34.0816" rx="16.4128" stroke="#F79CFF" stroke-width="2"/>
<rect x="133" y="60.877" width="21" height="22" rx="10.5" stroke="#FDFFE3" stroke-width="2"/>
<path d="M337 143L403.223 214.235H510.311" stroke="white" stroke-opacity="0.7" stroke-width="0.902041"/>
<ellipse cx="336.741" cy="142.804" rx="1.74128" ry="1.80408" fill="white" fill-opacity="0.7"/>
<path d="M177 147L104.68 215.355L0.5 215.355" stroke="white" stroke-opacity="0.7" stroke-width="0.902041"/>
<path d="M178.483 146.804C178.483 147.8 177.703 148.608 176.741 148.608C175.78 148.608 175 147.8 175 146.804C175 145.808 175.78 145 176.741 145C177.703 145 178.483 145.808 178.483 146.804Z" fill="white" fill-opacity="0.7"/>
<path d="M141.5 68.5L104.594 27.9629H10.9999" stroke="white" stroke-opacity="0.7" stroke-width="0.902041"/>
<path d="M143.483 68.8041C143.483 69.8004 142.703 70.6082 141.741 70.6082C140.78 70.6082 140 69.8004 140 68.8041C140 67.8077 140.78 67 141.741 67C142.703 67 143.483 67.8077 143.483 68.8041Z" fill="white" fill-opacity="0.7"/>
</svg>
