<svg width="554" height="245" viewBox="0 0 554 245" fill="none" xmlns="http://www.w3.org/2000/svg">
<rect x="111.962" y="48" width="346.985" height="173.521" rx="35" fill="#D9D9D9" fill-opacity="0.1"/>
<rect x="112.962" y="49" width="344.985" height="171.521" rx="34" stroke="#F79CFF" stroke-opacity="0.6" stroke-width="2"/>
<rect x="124.416" y="109.398" width="13.742" height="50.2766" rx="6.87099" fill="#FDFFE3" fill-opacity="0.2"/>
<path d="M386.781 126C404.853 126 419.563 141.189 419.563 160C419.563 178.811 404.853 194 386.781 194C368.71 194 354 178.811 354 160C354 141.189 368.71 126 386.781 126Z" stroke="#F79CFF" stroke-width="2"/>
<path d="M386.782 139C397.924 139 407.016 148.368 407.016 160C407.016 171.632 397.924 181 386.782 181C375.64 181 366.548 171.632 366.548 160C366.548 148.368 375.64 139 386.782 139Z" stroke="#FDFFE3" stroke-width="2"/>
<path d="M178.645 139.375L158.256 139.375" stroke="#F79CFF" stroke-width="2" stroke-linecap="round" stroke-linejoin="round"/>
<path d="M169.234 150.751L158.256 139.376L169.234 128.002" stroke="#F79CFF" stroke-width="2" stroke-linecap="round" stroke-linejoin="round"/>
<path d="M196.626 162.547L201.785 156.196M201.785 156.196L211.551 144.173C212.534 142.964 213.842 139.971 211.212 137.677C208.582 135.384 205.959 137.231 204.976 138.44C200.435 143.906 197.29 147.691 193.587 152.148C191.999 154.06 188.981 157.819 188.244 158.726C188.06 158.953 188.317 149.49 187.049 147.609C185.855 145.838 182.402 145.494 180.893 146.891C179.384 148.288 179.472 150.861 179.144 152.729C178.73 155.081 177.949 157.887 177.017 161.338C176.116 164.68 174.707 170.173 174.17 175.905C173.74 180.49 175.421 183.583 176.297 184.347L187.913 194.475C189.447 195.813 194.138 196.029 196.963 195.779C201.814 195.349 205.064 193.026 206.181 191.804L216.684 178.875C217.605 177.74 218.757 174.482 216.347 172.38C213.936 170.278 211.336 172.403 210.699 172.881L210.33 173.334C210.33 173.334 207.013 177.417 206.461 178.098C205.908 178.778 211.178 172.291 212.357 170.839C213.831 169.024 213.145 165.713 211.832 164.568C210.519 163.423 208.651 162.957 206.921 164.161L201.762 170.513C203.481 168.396 207.105 163.935 207.842 163.027C208.764 161.893 209.547 159.089 206.917 156.795C204.813 154.961 202.546 155.567 201.785 156.196Z" stroke="#FDFFE3" stroke-width="3" stroke-linecap="round"/>
<path d="M222.923 139.375L243.312 139.375" stroke="#F79CFF" stroke-width="2" stroke-linecap="round" stroke-linejoin="round"/>
<path d="M232.333 128.001L243.312 139.376L232.333 150.75" stroke="#F79CFF" stroke-width="2" stroke-linecap="round" stroke-linejoin="round"/>
<rect x="388.04" y="61" width="36.6075" height="38" rx="18.3037" stroke="#F79CFF" stroke-width="2"/>
<rect x="394.796" y="68" width="23.0949" height="24" rx="11.5474" stroke="#FDFFE3" stroke-width="2"/>
<rect x="145.778" y="61" width="36.6075" height="38" rx="18.3037" stroke="#F79CFF" stroke-width="2"/>
<rect x="152.534" y="68" width="23.0949" height="24" rx="11.5474" stroke="#FDFFE3" stroke-width="2"/>
<path d="M398.14 162L434.817 237.5H553.535" stroke="white" stroke-opacity="0.7"/>
<ellipse cx="398.622" cy="162" rx="1.93037" ry="2" fill="white" fill-opacity="0.7"/>
<path d="M451.234 221.86V220.826H453.72C454.233 220.826 454.695 220.738 455.106 220.562C455.517 220.386 455.839 220.129 456.074 219.792C456.309 219.455 456.426 219.044 456.426 218.56C456.426 217.827 456.169 217.262 455.656 216.866C455.143 216.455 454.497 216.25 453.72 216.25H451.63V228.35H453.94C454.6 228.35 455.179 228.233 455.678 227.998C456.191 227.763 456.587 227.426 456.866 226.986C457.159 226.546 457.306 226.011 457.306 225.38C457.306 224.911 457.225 224.493 457.064 224.126C456.903 223.759 456.668 223.451 456.36 223.202C456.067 222.953 455.715 222.769 455.304 222.652C454.893 222.52 454.439 222.454 453.94 222.454H451.234V221.42H453.94C454.688 221.42 455.377 221.501 456.008 221.662C456.639 221.823 457.189 222.073 457.658 222.41C458.142 222.733 458.516 223.151 458.78 223.664C459.044 224.177 459.176 224.786 459.176 225.49C459.176 226.502 458.941 227.345 458.472 228.02C458.017 228.68 457.394 229.179 456.602 229.516C455.825 229.839 454.937 230 453.94 230H449.76V214.6H453.72C454.644 214.6 455.443 214.739 456.118 215.018C456.807 215.297 457.343 215.722 457.724 216.294C458.105 216.851 458.296 217.57 458.296 218.45C458.296 219.169 458.105 219.785 457.724 220.298C457.343 220.811 456.807 221.2 456.118 221.464C455.443 221.728 454.644 221.86 453.72 221.86H451.234ZM474.568 214.6H476.438V230H474.568V214.6ZM463.128 214.6H464.998V230H463.128V214.6ZM464.162 222.52V220.76H467.308C468.305 220.76 469.192 220.951 469.97 221.332C470.762 221.699 471.385 222.227 471.84 222.916C472.309 223.605 472.544 224.427 472.544 225.38C472.544 226.319 472.309 227.14 471.84 227.844C471.385 228.533 470.762 229.069 469.97 229.45C469.192 229.817 468.305 230 467.308 230H464.162V228.24H467.308C467.968 228.24 468.547 228.137 469.046 227.932C469.559 227.712 469.955 227.389 470.234 226.964C470.527 226.539 470.674 226.011 470.674 225.38C470.674 224.749 470.527 224.221 470.234 223.796C469.955 223.371 469.559 223.055 469.046 222.85C468.547 222.63 467.968 222.52 467.308 222.52H464.162ZM482.15 222.3C482.15 223.488 482.414 224.537 482.942 225.446C483.485 226.355 484.189 227.067 485.054 227.58C485.919 228.093 486.858 228.35 487.87 228.35C488.603 228.35 489.271 228.255 489.872 228.064C490.488 227.873 491.045 227.609 491.544 227.272C492.043 226.92 492.468 226.517 492.82 226.062V228.526C492.175 229.098 491.471 229.523 490.708 229.802C489.945 230.081 488.999 230.22 487.87 230.22C486.799 230.22 485.795 230.029 484.856 229.648C483.932 229.252 483.118 228.702 482.414 227.998C481.71 227.279 481.16 226.436 480.764 225.468C480.368 224.5 480.17 223.444 480.17 222.3C480.17 221.156 480.368 220.1 480.764 219.132C481.16 218.164 481.71 217.328 482.414 216.624C483.118 215.905 483.932 215.355 484.856 214.974C485.795 214.578 486.799 214.38 487.87 214.38C488.999 214.38 489.945 214.519 490.708 214.798C491.471 215.077 492.175 215.502 492.82 216.074V218.538C492.468 218.083 492.043 217.687 491.544 217.35C491.045 216.998 490.488 216.727 489.872 216.536C489.271 216.345 488.603 216.25 487.87 216.25C486.858 216.25 485.919 216.507 485.054 217.02C484.189 217.533 483.485 218.245 482.942 219.154C482.414 220.049 482.15 221.097 482.15 222.3ZM495.004 216.36V214.6H504.794V216.36H500.834V230H498.964V216.36H495.004ZM507.871 214.6H509.741V230H507.871V214.6ZM508.905 216.36V214.6H512.051C513.048 214.6 513.936 214.791 514.713 215.172C515.505 215.539 516.128 216.067 516.583 216.756C517.052 217.445 517.287 218.267 517.287 219.22C517.287 220.159 517.052 220.98 516.583 221.684C516.128 222.373 515.505 222.909 514.713 223.29C513.936 223.657 513.048 223.84 512.051 223.84H508.905V222.08H512.051C513.048 222.08 513.855 221.838 514.471 221.354C515.102 220.87 515.417 220.159 515.417 219.22C515.417 218.267 515.102 217.555 514.471 217.086C513.855 216.602 513.048 216.36 512.051 216.36H508.905ZM522.058 230V228.24H529.824V230H522.058ZM522.058 216.36V214.6H529.824V216.36H522.058ZM522.058 222.52V220.76H529.384V222.52H522.058ZM521.024 214.6H522.894V230H521.024V214.6ZM545.175 214.6V230H543.305V216.36H536.485V224.72C536.485 225.659 536.339 226.531 536.045 227.338C535.767 228.145 535.341 228.79 534.769 229.274C534.212 229.758 533.515 230 532.679 230V228.394C533.017 228.394 533.31 228.291 533.559 228.086C533.809 227.881 534.021 227.595 534.197 227.228C534.373 226.847 534.505 226.407 534.593 225.908C534.681 225.409 534.725 224.867 534.725 224.28V214.6H545.175Z" fill="#FDFFE3"/>
<path d="M186.764 182L103.854 209H0" stroke="white" stroke-opacity="0.7"/>
<path d="M189.177 182C189.177 183.105 188.312 184 187.246 184C186.18 184 185.316 183.105 185.316 182C185.316 180.895 186.18 180 187.246 180C188.312 180 189.177 180.895 189.177 182Z" fill="white" fill-opacity="0.7"/>
<path d="M12.86 193.3C12.86 194.488 13.124 195.537 13.652 196.446C14.1947 197.355 14.8987 198.067 15.764 198.58C16.6293 199.093 17.568 199.35 18.58 199.35C19.3133 199.35 19.9807 199.255 20.582 199.064C21.198 198.873 21.7553 198.609 22.254 198.272C22.7527 197.92 23.178 197.517 23.53 197.062V199.526C22.8847 200.098 22.1807 200.523 21.418 200.802C20.6553 201.081 19.7093 201.22 18.58 201.22C17.5093 201.22 16.5047 201.029 15.566 200.648C14.642 200.252 13.828 199.702 13.124 198.998C12.42 198.279 11.87 197.436 11.474 196.468C11.078 195.5 10.88 194.444 10.88 193.3C10.88 192.156 11.078 191.1 11.474 190.132C11.87 189.164 12.42 188.328 13.124 187.624C13.828 186.905 14.642 186.355 15.566 185.974C16.5047 185.578 17.5093 185.38 18.58 185.38C19.7093 185.38 20.6553 185.519 21.418 185.798C22.1807 186.077 22.8847 186.502 23.53 187.074V189.538C23.178 189.083 22.7527 188.687 22.254 188.35C21.7553 187.998 21.198 187.727 20.582 187.536C19.9807 187.345 19.3133 187.25 18.58 187.25C17.568 187.25 16.6293 187.507 15.764 188.02C14.8987 188.533 14.1947 189.245 13.652 190.154C13.124 191.049 12.86 192.097 12.86 193.3ZM29.3945 192.86V191.826H31.8805C32.3939 191.826 32.8559 191.738 33.2665 191.562C33.6772 191.386 33.9999 191.129 34.2345 190.792C34.4692 190.455 34.5865 190.044 34.5865 189.56C34.5865 188.827 34.3299 188.262 33.8165 187.866C33.3032 187.455 32.6579 187.25 31.8805 187.25H29.7905V199.35H32.1005C32.7605 199.35 33.3399 199.233 33.8385 198.998C34.3519 198.763 34.7479 198.426 35.0265 197.986C35.3199 197.546 35.4665 197.011 35.4665 196.38C35.4665 195.911 35.3859 195.493 35.2245 195.126C35.0632 194.759 34.8285 194.451 34.5205 194.202C34.2272 193.953 33.8752 193.769 33.4645 193.652C33.0539 193.52 32.5992 193.454 32.1005 193.454H29.3945V192.42H32.1005C32.8485 192.42 33.5379 192.501 34.1685 192.662C34.7992 192.823 35.3492 193.073 35.8185 193.41C36.3025 193.733 36.6765 194.151 36.9405 194.664C37.2045 195.177 37.3365 195.786 37.3365 196.49C37.3365 197.502 37.1019 198.345 36.6325 199.02C36.1779 199.68 35.5545 200.179 34.7625 200.516C33.9852 200.839 33.0979 201 32.1005 201H27.9205V185.6H31.8805C32.8045 185.6 33.6039 185.739 34.2785 186.018C34.9679 186.297 35.5032 186.722 35.8845 187.294C36.2659 187.851 36.4565 188.57 36.4565 189.45C36.4565 190.169 36.2659 190.785 35.8845 191.298C35.5032 191.811 34.9679 192.2 34.2785 192.464C33.6039 192.728 32.8045 192.86 31.8805 192.86H29.3945ZM42.4399 196.38L43.0999 194.62H49.9199L50.5799 196.38H42.4399ZM46.4659 189.076L43.8699 195.192L43.6939 195.588L41.4059 201H39.3159L46.4659 184.83L53.6159 201H51.5259L49.2819 195.72L49.1059 195.28L46.4659 189.076ZM70.0093 187.69L56.5893 201.77L56.6993 198.91L70.1193 184.83L70.0093 187.69ZM58.4593 185.6V199.35L56.5893 201.77V185.6H58.4593ZM70.1193 184.83V201H68.2493V187.25L70.1193 184.83ZM60.4833 181.09H62.0453C62.0453 181.281 62.0966 181.508 62.1993 181.772C62.302 182.021 62.4926 182.249 62.7713 182.454C63.05 182.645 63.446 182.74 63.9593 182.74C64.4726 182.74 64.8686 182.645 65.1473 182.454C65.426 182.249 65.6166 182.021 65.7193 181.772C65.822 181.508 65.8733 181.281 65.8733 181.09H67.4353C67.4353 181.589 67.3033 182.08 67.0393 182.564C66.79 183.033 66.4086 183.422 65.8953 183.73C65.382 184.023 64.7366 184.17 63.9593 184.17C63.1966 184.17 62.5513 184.023 62.0233 183.73C61.51 183.422 61.1213 183.033 60.8573 182.564C60.608 182.08 60.4833 181.589 60.4833 181.09ZM85.0879 187.36H76.6179V201H74.7479V185.6H86.9579V201H85.0879V187.36Z" fill="#FDFFE3"/>
<path d="M410.687 75.0005L429.991 31H553.704" stroke="white" stroke-opacity="0.7"/>
<path d="M412.135 75C412.135 76.1046 411.27 77 410.204 77C409.138 77 408.274 76.1046 408.274 75C408.274 73.8954 409.138 73 410.204 73C411.27 73 412.135 73.8954 412.135 75Z" fill="white" fill-opacity="0.7"/>
<path d="M441.894 12.594L440.75 23H438.88L440.75 6.83L446.91 17.984L453.07 6.83L454.94 23H453.07L451.926 12.594L446.91 21.57L441.894 12.594ZM460.811 18.38L461.471 16.62H468.291L468.951 18.38H460.811ZM464.837 11.076L462.241 17.192L462.065 17.588L459.777 23H457.687L464.837 6.83L471.987 23H469.897L467.653 17.72L467.477 17.28L464.837 11.076ZM474.96 7.6H482.55V9.36H476.83V23H474.96V7.6ZM484.903 18.38L485.563 16.62H492.383L493.043 18.38H484.903ZM488.929 11.076L486.333 17.192L486.157 17.588L483.869 23H481.779L488.929 6.83L496.079 23H493.989L491.745 17.72L491.569 17.28L488.929 11.076ZM503.519 15.41V14.2C504.325 14.2 505.007 14.0827 505.565 13.848C506.122 13.5987 506.547 13.276 506.841 12.88C507.134 12.4693 507.281 12.022 507.281 11.538C507.281 11.054 507.171 10.6287 506.951 10.262C506.731 9.88067 506.393 9.58733 505.939 9.382C505.499 9.17667 504.949 9.074 504.289 9.074C503.673 9.074 503.115 9.17667 502.617 9.382C502.133 9.58733 501.751 9.866 501.473 10.218C501.194 10.57 501.055 10.9733 501.055 11.428H499.273C499.273 10.6213 499.478 9.91733 499.889 9.316C500.314 8.71467 500.901 8.24533 501.649 7.908C502.411 7.556 503.284 7.38 504.267 7.38C505.293 7.38 506.173 7.57067 506.907 7.952C507.64 8.33333 508.205 8.832 508.601 9.448C508.997 10.064 509.195 10.7387 509.195 11.472C509.195 12.0147 509.055 12.528 508.777 13.012C508.513 13.4813 508.131 13.8993 507.633 14.266C507.134 14.618 506.533 14.8967 505.829 15.102C505.139 15.3073 504.369 15.41 503.519 15.41ZM504.179 23.22C503.269 23.22 502.47 23.11 501.781 22.89C501.091 22.67 500.512 22.3693 500.043 21.988C499.573 21.592 499.214 21.1373 498.965 20.624C498.73 20.096 498.613 19.5313 498.613 18.93H500.505C500.563 19.414 500.725 19.8467 500.989 20.228C501.267 20.6093 501.663 20.91 502.177 21.13C502.705 21.35 503.372 21.46 504.179 21.46C505.396 21.46 506.291 21.2107 506.863 20.712C507.435 20.2133 507.721 19.546 507.721 18.71C507.721 18.0793 507.537 17.5513 507.171 17.126C506.804 16.7007 506.305 16.3853 505.675 16.18C505.044 15.96 504.325 15.85 503.519 15.85V14.64C504.663 14.64 505.697 14.7867 506.621 15.08C507.545 15.3733 508.278 15.8353 508.821 16.466C509.363 17.082 509.635 17.9033 509.635 18.93C509.635 19.7953 509.415 20.5507 508.975 21.196C508.549 21.8413 507.926 22.34 507.105 22.692C506.298 23.044 505.323 23.22 504.179 23.22ZM526.914 9.69L513.494 23.77L513.604 20.91L527.024 6.83L526.914 9.69ZM515.364 7.6V21.35L513.494 23.77V7.6H515.364ZM527.024 6.83V23H525.154V9.25L527.024 6.83ZM532.687 15.52V13.76H543.247V15.52H532.687ZM541.993 7.6H543.863V23H541.993V7.6ZM531.653 7.6H533.523V23H531.653V7.6Z" fill="#FDFFE3"/>
<path d="M164.082 76L103.758 31H0" stroke="white" stroke-opacity="0.7"/>
<path d="M166.012 76C166.012 77.1046 165.148 78 164.082 78C163.016 78 162.151 77.1046 162.151 76C162.151 74.8954 163.016 74 164.082 74C165.148 74 166.012 74.8954 166.012 76Z" fill="white" fill-opacity="0.7"/>
<path d="M22.1 9.36H13.63V23H11.76V7.6H23.97V23H22.1V9.36ZM30.0606 18.38L30.7206 16.62H37.5406L38.2006 18.38H30.0606ZM34.0866 11.076L31.4906 17.192L31.3146 17.588L29.0266 23H26.9366L34.0866 6.83L41.2366 23H39.1466L36.9026 17.72L36.7266 17.28L34.0866 11.076ZM54.88 7.6L47.642 23H45.552L47.532 18.446L42.45 7.6H44.76L49.292 17.94L48.126 17.852L52.79 7.6H54.88ZM62.2155 15.41V14.2C63.0221 14.2 63.7041 14.0827 64.2615 13.848C64.8188 13.5987 65.2441 13.276 65.5375 12.88C65.8308 12.4693 65.9775 12.022 65.9775 11.538C65.9775 11.054 65.8675 10.6287 65.6475 10.262C65.4275 9.88067 65.0901 9.58733 64.6355 9.382C64.1955 9.17667 63.6455 9.074 62.9855 9.074C62.3695 9.074 61.8121 9.17667 61.3135 9.382C60.8295 9.58733 60.4481 9.866 60.1695 10.218C59.8908 10.57 59.7515 10.9733 59.7515 11.428H57.9695C57.9695 10.6213 58.1748 9.91733 58.5855 9.316C59.0108 8.71467 59.5975 8.24533 60.3455 7.908C61.1081 7.556 61.9808 7.38 62.9635 7.38C63.9901 7.38 64.8701 7.57067 65.6035 7.952C66.3368 8.33333 66.9015 8.832 67.2975 9.448C67.6935 10.064 67.8915 10.7387 67.8915 11.472C67.8915 12.0147 67.7521 12.528 67.4735 13.012C67.2095 13.4813 66.8281 13.8993 66.3295 14.266C65.8308 14.618 65.2295 14.8967 64.5255 15.102C63.8361 15.3073 63.0661 15.41 62.2155 15.41ZM62.8755 23.22C61.9661 23.22 61.1668 23.11 60.4775 22.89C59.7881 22.67 59.2088 22.3693 58.7395 21.988C58.2701 21.592 57.9108 21.1373 57.6615 20.624C57.4268 20.096 57.3095 19.5313 57.3095 18.93H59.2015C59.2601 19.414 59.4215 19.8467 59.6855 20.228C59.9641 20.6093 60.3601 20.91 60.8735 21.13C61.4015 21.35 62.0688 21.46 62.8755 21.46C64.0928 21.46 64.9875 21.2107 65.5595 20.712C66.1315 20.2133 66.4175 19.546 66.4175 18.71C66.4175 18.0793 66.2341 17.5513 65.8675 17.126C65.5008 16.7007 65.0021 16.3853 64.3715 16.18C63.7408 15.96 63.0221 15.85 62.2155 15.85V14.64C63.3595 14.64 64.3935 14.7867 65.3175 15.08C66.2415 15.3733 66.9748 15.8353 67.5175 16.466C68.0601 17.082 68.3315 17.9033 68.3315 18.93C68.3315 19.7953 68.1115 20.5507 67.6715 21.196C67.2461 21.8413 66.6228 22.34 65.8015 22.692C64.9948 23.044 64.0195 23.22 62.8755 23.22ZM73.343 18.38L74.003 16.62H80.823L81.483 18.38H73.343ZM77.369 11.076L74.773 17.192L74.597 17.588L72.309 23H70.219L77.369 6.83L84.519 23H82.429L80.185 17.72L80.009 17.28L77.369 11.076Z" fill="#FDFFE3"/>
</svg>
