<svg width="555" height="245" viewBox="0 0 555 245" fill="none" xmlns="http://www.w3.org/2000/svg">
<rect x="111.962" y="48" width="346.985" height="173.521" rx="35" fill="#D9D9D9" fill-opacity="0.1"/>
<rect x="112.962" y="49" width="344.985" height="171.521" rx="34" stroke="#F79CFF" stroke-opacity="0.6" stroke-width="2"/>
<rect x="124.416" y="109.398" width="13.742" height="50.2766" rx="6.87099" fill="#FDFFE3" fill-opacity="0.2"/>
<path d="M386.781 126C404.853 126 419.563 141.189 419.563 160C419.563 178.811 404.853 194 386.781 194C368.71 194 354 178.811 354 160C354 141.189 368.71 126 386.781 126Z" stroke="#F79CFF" stroke-width="2"/>
<path d="M386.782 139C397.924 139 407.016 148.368 407.016 160C407.016 171.632 397.924 181 386.782 181C375.64 181 366.548 171.632 366.548 160C366.548 148.368 375.64 139 386.782 139Z" stroke="#FDFFE3" stroke-width="2"/>
<path d="M178.645 139.375L158.256 139.375" stroke="#F79CFF" stroke-width="2" stroke-linecap="round" stroke-linejoin="round"/>
<path d="M169.234 150.751L158.256 139.376L169.234 128.002" stroke="#F79CFF" stroke-width="2" stroke-linecap="round" stroke-linejoin="round"/>
<path d="M196.626 162.547L201.785 156.196M201.785 156.196L211.551 144.173C212.534 142.964 213.842 139.971 211.212 137.677C208.582 135.384 205.959 137.231 204.976 138.44C200.435 143.906 197.29 147.691 193.587 152.148C191.999 154.06 188.981 157.819 188.244 158.726C188.06 158.953 188.317 149.49 187.049 147.609C185.855 145.838 182.402 145.494 180.893 146.891C179.384 148.288 179.472 150.861 179.144 152.729C178.73 155.081 177.949 157.887 177.017 161.338C176.116 164.68 174.707 170.173 174.17 175.905C173.74 180.49 175.421 183.583 176.297 184.347L187.913 194.475C189.447 195.813 194.138 196.029 196.963 195.779C201.814 195.349 205.064 193.026 206.181 191.804L216.684 178.875C217.605 177.74 218.757 174.482 216.347 172.38C213.936 170.278 211.336 172.403 210.699 172.881L210.33 173.334C210.33 173.334 207.013 177.417 206.461 178.098C205.908 178.778 211.178 172.291 212.357 170.839C213.831 169.024 213.145 165.713 211.832 164.568C210.519 163.423 208.651 162.957 206.921 164.161L201.762 170.513C203.481 168.396 207.105 163.935 207.842 163.027C208.764 161.893 209.547 159.089 206.917 156.795C204.813 154.961 202.546 155.567 201.785 156.196Z" stroke="#FDFFE3" stroke-width="3" stroke-linecap="round"/>
<path d="M222.923 139.375L243.312 139.375" stroke="#F79CFF" stroke-width="2" stroke-linecap="round" stroke-linejoin="round"/>
<path d="M232.333 128.001L243.312 139.376L232.333 150.75" stroke="#F79CFF" stroke-width="2" stroke-linecap="round" stroke-linejoin="round"/>
<rect x="388.04" y="61" width="36.6075" height="38" rx="18.3037" stroke="#F79CFF" stroke-width="2"/>
<rect x="394.796" y="68" width="23.0949" height="24" rx="11.5474" stroke="#FDFFE3" stroke-width="2"/>
<rect x="145.778" y="61" width="36.6075" height="38" rx="18.3037" stroke="#F79CFF" stroke-width="2"/>
<rect x="152.534" y="68" width="23.0949" height="24" rx="11.5474" stroke="#FDFFE3" stroke-width="2"/>
<path d="M392.349 162.5L472.942 207.001H554.018" stroke="white" stroke-opacity="0.7"/>
<path d="M394.279 162C394.279 163.105 393.414 164 392.348 164C391.282 164 390.418 163.105 390.418 162C390.418 160.895 391.282 160 392.348 160C393.414 160 394.279 160.895 394.279 162Z" fill="white" fill-opacity="0.7"/>
<path d="M503.794 185.36V183.6H510.68V185.36H503.794ZM503.794 191.52V189.76H510.46V191.52H503.794ZM502.76 183.6H504.63V199H502.76V183.6ZM514.86 183.6H516.73V199H514.86V183.6ZM524.103 191.41H526.193L531.693 199H529.383L524.103 191.41ZM521.353 183.6H523.223V199H521.353V183.6ZM522.387 185.25V183.6H525.533C526.53 183.6 527.417 183.791 528.195 184.172C528.987 184.539 529.61 185.067 530.065 185.756C530.534 186.445 530.769 187.267 530.769 188.22C530.769 189.159 530.534 189.98 530.065 190.684C529.61 191.373 528.987 191.909 528.195 192.29C527.417 192.657 526.53 192.84 525.533 192.84H522.387V191.19H525.533C526.193 191.19 526.772 191.073 527.271 190.838C527.784 190.603 528.18 190.266 528.459 189.826C528.752 189.386 528.899 188.851 528.899 188.22C528.899 187.589 528.752 187.054 528.459 186.614C528.18 186.174 527.784 185.837 527.271 185.602C526.772 185.367 526.193 185.25 525.533 185.25H522.387ZM535.797 199V197.24H543.563V199H535.797ZM535.797 185.36V183.6H543.563V185.36H535.797ZM535.797 191.52V189.76H543.123V191.52H535.797ZM534.763 183.6H536.633V199H534.763V183.6Z" fill="#FDFFE3"/>
<path d="M187.246 182.003L103.757 208.5L0.482422 208.5" stroke="white" stroke-opacity="0.7"/>
<ellipse cx="187.246" cy="182.002" rx="1.93037" ry="2" fill="white" fill-opacity="0.7"/>
<path d="M12.332 196.336C12.684 196.952 13.0507 197.495 13.432 197.964C13.828 198.433 14.268 198.8 14.752 199.064C15.236 199.328 15.786 199.46 16.402 199.46C17.2233 199.46 17.8833 199.233 18.382 198.778C18.8807 198.323 19.13 197.744 19.13 197.04C19.13 196.351 18.9687 195.801 18.646 195.39C18.3233 194.979 17.898 194.649 17.37 194.4C16.8567 194.136 16.3067 193.901 15.72 193.696C15.3387 193.564 14.9133 193.395 14.444 193.19C13.9747 192.97 13.5273 192.699 13.102 192.376C12.6767 192.039 12.3247 191.628 12.046 191.144C11.782 190.66 11.65 190.066 11.65 189.362C11.65 188.599 11.8407 187.917 12.222 187.316C12.6033 186.715 13.1313 186.245 13.806 185.908C14.4807 185.556 15.2507 185.38 16.116 185.38C16.952 185.38 17.678 185.541 18.294 185.864C18.9247 186.172 19.46 186.575 19.9 187.074C20.34 187.558 20.6847 188.071 20.934 188.614L19.328 189.538C19.1373 189.157 18.8953 188.783 18.602 188.416C18.3087 188.049 17.9493 187.749 17.524 187.514C17.1133 187.279 16.6073 187.162 16.006 187.162C15.17 187.162 14.5613 187.367 14.18 187.778C13.7987 188.174 13.608 188.621 13.608 189.12C13.608 189.545 13.718 189.941 13.938 190.308C14.158 190.66 14.5247 190.997 15.038 191.32C15.566 191.628 16.2773 191.936 17.172 192.244C17.5827 192.391 18.0153 192.581 18.47 192.816C18.9247 193.051 19.3427 193.351 19.724 193.718C20.12 194.07 20.4427 194.503 20.692 195.016C20.9413 195.515 21.066 196.116 21.066 196.82C21.066 197.495 20.934 198.103 20.67 198.646C20.4207 199.189 20.0687 199.651 19.614 200.032C19.174 200.413 18.668 200.707 18.096 200.912C17.5387 201.117 16.952 201.22 16.336 201.22C15.5 201.22 14.7227 201.044 14.004 200.692C13.3 200.325 12.6767 199.849 12.134 199.262C11.606 198.661 11.1733 198.023 10.836 197.348L12.332 196.336ZM38.6187 196.93L42.6227 185.6H44.7127L38.6627 201.77L34.0427 189.802L29.4227 201.77L23.3727 185.6H25.4627L29.5547 196.93L34.0427 184.83L38.6187 196.93ZM47.7979 185.6H49.6679V201H47.7979V185.6ZM54.2905 185.6H56.1605V201H54.2905V185.6ZM55.3245 187.36V185.6H58.4705C59.4678 185.6 60.3551 185.791 61.1325 186.172C61.9245 186.539 62.5478 187.067 63.0025 187.756C63.4718 188.445 63.7065 189.267 63.7065 190.22C63.7065 191.159 63.4718 191.98 63.0025 192.684C62.5478 193.373 61.9245 193.909 61.1325 194.29C60.3551 194.657 59.4678 194.84 58.4705 194.84H55.3245V193.08H58.4705C59.4678 193.08 60.2745 192.838 60.8905 192.354C61.5211 191.87 61.8365 191.159 61.8365 190.22C61.8365 189.267 61.5211 188.555 60.8905 188.086C60.2745 187.602 59.4678 187.36 58.4705 187.36H55.3245ZM68.4772 201V199.24H76.2432V201H68.4772ZM68.4772 187.36V185.6H76.2432V187.36H68.4772ZM68.4772 193.52V191.76H75.8032V193.52H68.4772ZM67.4432 185.6H69.3132V201H67.4432V185.6Z" fill="#FDFFE3"/>
<path d="M410.687 75L470.843 31H554.5" stroke="white" stroke-opacity="0.7"/>
<path d="M412.135 75C412.135 76.1046 411.27 77 410.204 77C409.138 77 408.274 76.1046 408.274 75C408.274 73.8954 409.138 73 410.204 73C411.27 73 412.135 73.8954 412.135 75Z" fill="white" fill-opacity="0.7"/>
<path d="M486.332 18.336C486.684 18.952 487.051 19.4947 487.432 19.964C487.828 20.4333 488.268 20.8 488.752 21.064C489.236 21.328 489.786 21.46 490.402 21.46C491.223 21.46 491.883 21.2327 492.382 20.778C492.881 20.3233 493.13 19.744 493.13 19.04C493.13 18.3507 492.969 17.8007 492.646 17.39C492.323 16.9793 491.898 16.6493 491.37 16.4C490.857 16.136 490.307 15.9013 489.72 15.696C489.339 15.564 488.913 15.3953 488.444 15.19C487.975 14.97 487.527 14.6987 487.102 14.376C486.677 14.0387 486.325 13.628 486.046 13.144C485.782 12.66 485.65 12.066 485.65 11.362C485.65 10.5993 485.841 9.91733 486.222 9.316C486.603 8.71467 487.131 8.24533 487.806 7.908C488.481 7.556 489.251 7.38 490.116 7.38C490.952 7.38 491.678 7.54133 492.294 7.864C492.925 8.172 493.46 8.57533 493.9 9.074C494.34 9.558 494.685 10.0713 494.934 10.614L493.328 11.538C493.137 11.1567 492.895 10.7827 492.602 10.416C492.309 10.0493 491.949 9.74867 491.524 9.514C491.113 9.27933 490.607 9.162 490.006 9.162C489.17 9.162 488.561 9.36733 488.18 9.778C487.799 10.174 487.608 10.6213 487.608 11.12C487.608 11.5453 487.718 11.9413 487.938 12.308C488.158 12.66 488.525 12.9973 489.038 13.32C489.566 13.628 490.277 13.936 491.172 14.244C491.583 14.3907 492.015 14.5813 492.47 14.816C492.925 15.0507 493.343 15.3513 493.724 15.718C494.12 16.07 494.443 16.5027 494.692 17.016C494.941 17.5147 495.066 18.116 495.066 18.82C495.066 19.4947 494.934 20.1033 494.67 20.646C494.421 21.1887 494.069 21.6507 493.614 22.032C493.174 22.4133 492.668 22.7067 492.096 22.912C491.539 23.1173 490.952 23.22 490.336 23.22C489.5 23.22 488.723 23.044 488.004 22.692C487.3 22.3253 486.677 21.8487 486.134 21.262C485.606 20.6607 485.173 20.0227 484.836 19.348L486.332 18.336ZM499.947 15.52V13.76H510.507V15.52H499.947ZM509.253 7.6H511.123V23H509.253V7.6ZM498.913 7.6H500.783V23H498.913V7.6ZM516.839 15.3C516.839 16.4587 517.089 17.4927 517.587 18.402C518.101 19.3113 518.797 20.03 519.677 20.558C520.557 21.086 521.555 21.35 522.669 21.35C523.799 21.35 524.796 21.086 525.661 20.558C526.541 20.03 527.231 19.3113 527.729 18.402C528.243 17.4927 528.499 16.4587 528.499 15.3C528.499 14.1413 528.243 13.1073 527.729 12.198C527.231 11.2887 526.541 10.57 525.661 10.042C524.796 9.514 523.799 9.25 522.669 9.25C521.555 9.25 520.557 9.514 519.677 10.042C518.797 10.57 518.101 11.2887 517.587 12.198C517.089 13.1073 516.839 14.1413 516.839 15.3ZM514.859 15.3C514.859 14.1707 515.05 13.1293 515.431 12.176C515.827 11.208 516.377 10.372 517.081 9.668C517.785 8.94933 518.614 8.392 519.567 7.996C520.521 7.58533 521.555 7.38 522.669 7.38C523.799 7.38 524.833 7.58533 525.771 7.996C526.725 8.392 527.553 8.94933 528.257 9.668C528.961 10.372 529.504 11.208 529.885 12.176C530.281 13.1293 530.479 14.1707 530.479 15.3C530.479 16.4147 530.281 17.456 529.885 18.424C529.504 19.392 528.961 20.2353 528.257 20.954C527.553 21.658 526.725 22.2153 525.771 22.626C524.833 23.022 523.799 23.22 522.669 23.22C521.555 23.22 520.521 23.022 519.567 22.626C518.614 22.2153 517.785 21.658 517.081 20.954C516.377 20.2353 515.827 19.392 515.431 18.424C515.05 17.456 514.859 16.4147 514.859 15.3ZM534.22 7.6H536.09V23H534.22V7.6ZM535.254 9.36V7.6H538.4C539.397 7.6 540.285 7.79067 541.062 8.172C541.854 8.53867 542.477 9.06667 542.932 9.756C543.401 10.4453 543.636 11.2667 543.636 12.22C543.636 13.1587 543.401 13.98 542.932 14.684C542.477 15.3733 541.854 15.9087 541.062 16.29C540.285 16.6567 539.397 16.84 538.4 16.84H535.254V15.08H538.4C539.397 15.08 540.204 14.838 540.82 14.354C541.451 13.87 541.766 13.1587 541.766 12.22C541.766 11.2667 541.451 10.5553 540.82 10.086C540.204 9.602 539.397 9.36 538.4 9.36H535.254Z" fill="#FDFFE3"/>
<path d="M164.082 76L103.758 31H0" stroke="white" stroke-opacity="0.7"/>
<path d="M166.012 76C166.012 77.1046 165.148 78 164.082 78C163.016 78 162.151 77.1046 162.151 76C162.151 74.8954 163.016 74 164.082 74C165.148 74 166.012 74.8954 166.012 76Z" fill="white" fill-opacity="0.7"/>
<path d="M11.76 7.6H13.63V23H11.76V7.6ZM12.794 9.36V7.6H15.94C16.9373 7.6 17.8247 7.79067 18.602 8.172C19.394 8.53867 20.0173 9.06667 20.472 9.756C20.9413 10.4453 21.176 11.2667 21.176 12.22C21.176 13.1587 20.9413 13.98 20.472 14.684C20.0173 15.3733 19.394 15.9087 18.602 16.29C17.8247 16.6567 16.9373 16.84 15.94 16.84H12.794V15.08H15.94C16.9373 15.08 17.744 14.838 18.36 14.354C18.9907 13.87 19.306 13.1587 19.306 12.22C19.306 11.2667 18.9907 10.5553 18.36 10.086C17.744 9.602 16.9373 9.36 15.94 9.36H12.794ZM24.8399 18.38L25.4999 16.62H32.3199L32.9799 18.38H24.8399ZM28.8659 11.076L26.2699 17.192L26.0939 17.588L23.8059 23H21.7159L28.8659 6.83L36.0159 23H33.9259L31.6819 17.72L31.5059 17.28L28.8659 11.076ZM38.8793 7.6H40.7493V17.94C40.7493 18.996 41.0353 19.8467 41.6073 20.492C42.1793 21.1373 43.0153 21.46 44.1153 21.46C45.2153 21.46 46.0513 21.1373 46.6233 20.492C47.1953 19.8467 47.4813 18.996 47.4813 17.94V7.6H49.3513V17.94C49.3513 18.7027 49.2266 19.4067 48.9773 20.052C48.7426 20.6973 48.3906 21.2547 47.9213 21.724C47.4666 22.1933 46.9166 22.56 46.2713 22.824C45.626 23.088 44.9073 23.22 44.1153 23.22C43.3233 23.22 42.6046 23.088 41.9593 22.824C41.314 22.56 40.7566 22.1933 40.2873 21.724C39.8326 21.2547 39.4806 20.6973 39.2313 20.052C38.9966 19.4067 38.8793 18.7027 38.8793 17.94V7.6ZM54.4328 18.336C54.7848 18.952 55.1514 19.4947 55.5328 19.964C55.9288 20.4333 56.3688 20.8 56.8528 21.064C57.3368 21.328 57.8868 21.46 58.5028 21.46C59.3241 21.46 59.9841 21.2327 60.4828 20.778C60.9814 20.3233 61.2308 19.744 61.2308 19.04C61.2308 18.3507 61.0694 17.8007 60.7468 17.39C60.4241 16.9793 59.9988 16.6493 59.4708 16.4C58.9574 16.136 58.4074 15.9013 57.8208 15.696C57.4394 15.564 57.0141 15.3953 56.5448 15.19C56.0754 14.97 55.6281 14.6987 55.2028 14.376C54.7774 14.0387 54.4254 13.628 54.1468 13.144C53.8828 12.66 53.7508 12.066 53.7508 11.362C53.7508 10.5993 53.9414 9.91733 54.3228 9.316C54.7041 8.71467 55.2321 8.24533 55.9068 7.908C56.5814 7.556 57.3514 7.38 58.2168 7.38C59.0528 7.38 59.7788 7.54133 60.3948 7.864C61.0254 8.172 61.5608 8.57533 62.0008 9.074C62.4408 9.558 62.7854 10.0713 63.0348 10.614L61.4288 11.538C61.2381 11.1567 60.9961 10.7827 60.7028 10.416C60.4094 10.0493 60.0501 9.74867 59.6248 9.514C59.2141 9.27933 58.7081 9.162 58.1068 9.162C57.2708 9.162 56.6621 9.36733 56.2808 9.778C55.8994 10.174 55.7088 10.6213 55.7088 11.12C55.7088 11.5453 55.8188 11.9413 56.0388 12.308C56.2588 12.66 56.6254 12.9973 57.1388 13.32C57.6668 13.628 58.3781 13.936 59.2728 14.244C59.6834 14.3907 60.1161 14.5813 60.5708 14.816C61.0254 15.0507 61.4434 15.3513 61.8248 15.718C62.2208 16.07 62.5434 16.5027 62.7928 17.016C63.0421 17.5147 63.1668 18.116 63.1668 18.82C63.1668 19.4947 63.0348 20.1033 62.7708 20.646C62.5214 21.1887 62.1694 21.6507 61.7148 22.032C61.2748 22.4133 60.7688 22.7067 60.1968 22.912C59.6394 23.1173 59.0528 23.22 58.4368 23.22C57.6008 23.22 56.8234 23.044 56.1048 22.692C55.4008 22.3253 54.7774 21.8487 54.2348 21.262C53.7068 20.6607 53.2741 20.0227 52.9368 19.348L54.4328 18.336ZM68.0475 23V21.24H75.8135V23H68.0475ZM68.0475 9.36V7.6H75.8135V9.36H68.0475ZM68.0475 15.52V13.76H75.3735V15.52H68.0475ZM67.0135 7.6H68.8835V23H67.0135V7.6Z" fill="#FDFFE3"/>
</svg>
