<svg width="42" height="30" viewBox="0 0 42 30" fill="none" xmlns="http://www.w3.org/2000/svg">
<g clip-path="url(#clip0_8061_8950)">
<g clip-path="url(#clip1_8061_8950)">
<rect x="3.8147e-06" y="1" width="42" height="28" fill="#062A81"/>
<path d="M-1.16894 -1.5L43.3311 28L43.6846 28.2344L43.582 28.6455L43.082 30.6455L42.874 31.4766L42.1641 30.9971L-0.835934 1.99707L-0.988277 1.89453L-1.05664 1.72266L-2.05664 -0.777344L-2.77148 -2.5625L-1.16894 -1.5Z" fill="#CC0923" stroke="white" stroke-width="1.2"/>
<path d="M-2.33435 28.5842L42.0031 -1.15946L42.3554 -1.39574L42.6955 -1.14306L44.3497 0.0872316L45.037 0.598675L44.3215 1.06981L1.0221 29.6209L0.86888 29.7221L0.683934 29.7192L-2.00839 29.6815L-3.93117 29.6553L-2.33435 28.5842Z" fill="#CC0923" stroke="white" stroke-width="1.2"/>
<mask id="path-6-outside-1_8061_8950" maskUnits="userSpaceOnUse" x="-2" y="-1" width="46" height="32" fill="black">
<rect fill="white" x="-2" y="-1" width="46" height="32"/>
<path d="M23 13H42V17H23V29H19V17H3.8147e-06V13H19V1H23V13Z"/>
</mask>
<path d="M23 13H42V17H23V29H19V17H3.8147e-06V13H19V1H23V13Z" fill="#CC0923"/>
<path d="M23 13H21V15H23V13ZM42 13H44V11H42V13ZM42 17V19H44V17H42ZM23 17V15H21V17H23ZM23 29V31H25V29H23ZM19 29H17V31H19V29ZM19 17H21V15H19V17ZM3.8147e-06 17H-2V19H3.8147e-06V17ZM3.8147e-06 13V11H-2V13H3.8147e-06ZM19 13V15H21V13H19ZM19 1V-1H17V1H19ZM23 1H25V-1H23V1ZM23 13V15H42V13V11H23V13ZM42 13H40V17H42H44V13H42ZM42 17V15H23V17V19H42V17ZM23 17H21V29H23H25V17H23ZM23 29V27H19V29V31H23V29ZM19 29H21V17H19H17V29H19ZM19 17V15H3.8147e-06V17V19H19V17ZM3.8147e-06 17H2V13H3.8147e-06H-2V17H3.8147e-06ZM3.8147e-06 13V15H19V13V11H3.8147e-06V13ZM19 13H21V1H19H17V13H19ZM19 1V3H23V1V-1H19V1ZM23 1H21V13H23H25V1H23Z" fill="white" mask="url(#path-6-outside-1_8061_8950)"/>
</g>
</g>
<defs>
<clipPath id="clip0_8061_8950">
<rect x="38" y="26.5" width="34" height="23" rx="2" transform="rotate(-180 38 26.5)" fill="white"/>
</clipPath>
<clipPath id="clip1_8061_8950">
<rect width="42" height="28" fill="white" transform="translate(3.8147e-06 1)"/>
</clipPath>
</defs>
</svg>
