<svg width="42" height="30" viewBox="0 0 42 30" fill="none" xmlns="http://www.w3.org/2000/svg">
<g clip-path="url(#clip0_8216_4492)">
<path d="M44 1H2V8.00002H44V1Z" fill="#C60B1A"/>
<path d="M44 8H2V22H44V8Z" fill="#FFC100"/>
<path d="M44 22H2V28H44V22Z" fill="#C60B1C"/>
<path fill-rule="evenodd" clip-rule="evenodd" d="M14.2446 21.7269C13.9001 20.9721 12.6634 20.9743 12.0028 20.6103C11.514 20.3423 11.1909 19.7963 11.1909 19.1741V13.1191H17.2832V19.1741C17.2832 19.7963 16.9594 20.3423 16.4706 20.6103C15.8008 20.9799 14.495 20.9686 14.2446 21.7269Z" fill="white"/>
<path fill-rule="evenodd" clip-rule="evenodd" d="M17.2839 16.9043V19.1646C17.2839 20.0568 16.5984 20.7778 15.757 20.7778C14.9156 20.7778 14.2319 20.0568 14.2319 19.1646V16.9043H17.2839Z" fill="#C60B1A"/>
<path fill-rule="evenodd" clip-rule="evenodd" d="M14.2449 13.1172V19.1604C14.2449 20.0526 13.5593 20.7736 12.7179 20.7736C11.8765 20.7736 11.1929 20.0526 11.1929 19.1604V13.1172H14.2449Z" fill="#C60B1A"/>
<path fill-rule="evenodd" clip-rule="evenodd" d="M14.2453 16.9043H13.9087V20.1758C14.119 19.9028 14.2453 19.5466 14.2453 19.1646V16.9043Z" fill="#FFE06D"/>
<path fill-rule="evenodd" clip-rule="evenodd" d="M11.1909 16.9043V19.1646C11.1909 19.5466 11.3199 19.9028 11.5302 20.1787V16.9043H11.1909Z" fill="#FFE06D"/>
<path fill-rule="evenodd" clip-rule="evenodd" d="M11.8726 16.9043V20.507L12.2118 20.689V16.9043H11.8726Z" fill="#FFE06D"/>
<path fill-rule="evenodd" clip-rule="evenodd" d="M13.2275 16.9043V20.689L13.5668 20.507V16.9043H13.2275Z" fill="#FFE06D"/>
<path fill-rule="evenodd" clip-rule="evenodd" d="M12.5488 16.9043V20.7677L12.7181 20.7778L12.8881 20.7677V16.9043H12.5488Z" fill="#FFE06D"/>
<path fill-rule="evenodd" clip-rule="evenodd" d="M14.2998 20.9872L14.6142 20.7773L14.9794 20.8059L14.7116 20.9801L14.2998 20.9872Z" fill="#00A08A"/>
<path fill-rule="evenodd" clip-rule="evenodd" d="M14.2051 20.793H14.2597L14.2688 21.1012L14.1782 21.1239L14.2051 20.793Z" fill="#00A08A"/>
<path fill-rule="evenodd" clip-rule="evenodd" d="M13.4985 20.7897L13.7704 20.9717L14.2076 20.9853L13.8745 20.7617L13.4985 20.7897Z" fill="#00A08A"/>
<path fill-rule="evenodd" clip-rule="evenodd" d="M14.3745 20.2132L14.4014 20.1046L14.2971 20.1666L14.238 20.0703L14.1662 20.1538L14.0578 20.1305L14.098 20.2102C13.9872 20.2385 13.9111 20.3097 13.9111 20.4507C13.9111 20.643 14.0558 20.7989 14.2344 20.7989C14.413 20.7989 14.5576 20.643 14.5576 20.4507C14.5576 20.3141 14.482 20.2434 14.3747 20.2134L14.3745 20.2132Z" fill="#F5D6A5"/>
<path fill-rule="evenodd" clip-rule="evenodd" d="M14.2296 20.2266C14.2296 20.2266 14.1293 20.3279 14.1274 20.472C14.1274 20.472 14.1354 20.6156 14.227 20.7147C14.227 20.7147 14.3317 20.6202 14.3392 20.457C14.3392 20.457 14.3169 20.2907 14.2296 20.2266Z" fill="#AE333A"/>
<path fill-rule="evenodd" clip-rule="evenodd" d="M15.9266 20.1156L15.8073 19.9967V18.8765L16.3973 19.6326L16.3704 19.7387L16.3973 19.8447L15.9266 20.1156ZM15.7073 19.9967L15.5874 20.1156L15.1174 19.8505L15.1462 19.7387L15.1193 19.6326L15.7075 18.8795V19.9967H15.7073ZM14.9608 19.5315L14.9179 19.5394L14.8318 19.0866V18.9174L14.9518 18.7834H15.6443L15.0422 19.5544L14.9608 19.5315ZM14.8318 17.6812L14.8633 17.6654L15.6463 18.6694H14.9543L14.8317 18.5276V17.6812H14.8318ZM15.5829 17.5471L15.7073 17.6834V18.5735L14.9358 17.5852L14.9518 17.5471H15.5829ZM15.8073 17.6834L15.9318 17.5471H16.5647L16.5789 17.5852L15.8073 18.5735V17.6834ZM16.5559 19.5317L16.4725 19.5546L15.8703 18.7835H16.5577L16.6828 18.9196V19.0866L16.5943 19.5394L16.5559 19.5315V19.5317ZM16.6534 17.6654L16.6829 17.6782V18.5274L16.556 18.6692H15.8703L16.6534 17.6652V17.6654ZM16.7848 18.5276V17.6834L16.9227 17.4863L16.7411 17.2793L16.5627 17.4255H15.9336L15.7574 17.2793L15.5804 17.4255H14.9519L14.7757 17.2793L14.5923 17.4863L14.7282 17.6834V18.5276L14.5923 18.7254L14.7282 18.9196V19.0866L14.8303 19.5975L14.7777 19.7387L14.9611 19.9437L15.0361 19.9257C15.1829 20.0878 15.3682 20.1938 15.576 20.2317L15.7575 20.3988L15.9385 20.2317C16.1443 20.1938 16.3322 20.0826 16.4771 19.9257L16.5562 19.9437L16.7396 19.7387L16.6851 19.5975L16.7851 19.0866V18.9196L16.9185 18.7254L16.7851 18.5276H16.7848Z" fill="#FFC100"/>
<path fill-rule="evenodd" clip-rule="evenodd" d="M16.0322 17.576L16.1002 17.6439H16.383L16.4528 17.576V17.4011L16.383 17.3281H16.1002L16.0322 17.4011V17.576Z" fill="#FFC100"/>
<path fill-rule="evenodd" clip-rule="evenodd" d="M16.0942 17.5661H16.3924V17.4121H16.0942V17.5661Z" fill="#FF1012"/>
<path fill-rule="evenodd" clip-rule="evenodd" d="M16.0562 18.8103L16.1234 18.8836H16.4088L16.4743 18.8103V18.6385L16.4088 18.5703H16.1234L16.0562 18.6385V18.8103Z" fill="#FFC100"/>
<path fill-rule="evenodd" clip-rule="evenodd" d="M16.1167 18.8003H16.413V18.6484H16.1167V18.8003Z" fill="#FF1012"/>
<path fill-rule="evenodd" clip-rule="evenodd" d="M15.0376 18.8103L15.1056 18.8836H15.3884L15.4582 18.8103V18.6385L15.3884 18.5703H15.1056L15.0376 18.6385V18.8103Z" fill="#FFC100"/>
<path fill-rule="evenodd" clip-rule="evenodd" d="M15.0981 18.8003H15.3945V18.6484H15.0981V18.8003Z" fill="#FF1012"/>
<path fill-rule="evenodd" clip-rule="evenodd" d="M16.8107 18.3317L16.8762 18.2586V17.9375L16.8107 17.8594H16.6569L16.5933 17.9375V18.2586L16.6569 18.3317H16.8107Z" fill="#FFC100"/>
<path fill-rule="evenodd" clip-rule="evenodd" d="M16.8038 18.2647V17.9336H16.666V18.2647H16.8038Z" fill="#FF1012"/>
<path fill-rule="evenodd" clip-rule="evenodd" d="M14.8583 18.3317L14.9219 18.2586V17.9375L14.8583 17.8594H14.7045L14.6416 17.9375V18.2586L14.7045 18.3317H14.8583Z" fill="#FFC100"/>
<path fill-rule="evenodd" clip-rule="evenodd" d="M14.8517 18.2647V17.9336H14.7139V18.2647H14.8517Z" fill="#FF1012"/>
<path fill-rule="evenodd" clip-rule="evenodd" d="M14.8583 19.4605L14.9219 19.3844V19.0662L14.8583 18.9902H14.7045L14.6416 19.0662V19.3844L14.7045 19.4605H14.8583Z" fill="#FFC100"/>
<path fill-rule="evenodd" clip-rule="evenodd" d="M14.8517 19.3945V19.0605H14.7139V19.3945H14.8517Z" fill="#FF1012"/>
<path fill-rule="evenodd" clip-rule="evenodd" d="M16.8107 19.4605L16.8762 19.3844V19.0662L16.8107 18.9902H16.6569L16.5933 19.0662V19.3844L16.6569 19.4605H16.8107Z" fill="#FFC100"/>
<path fill-rule="evenodd" clip-rule="evenodd" d="M16.8038 19.3945V19.0605H16.666V19.3945H16.8038Z" fill="#FF1012"/>
<path fill-rule="evenodd" clip-rule="evenodd" d="M15.8337 19.6183L15.8971 19.5401V19.2241L15.8337 19.1504H15.6798L15.6162 19.2241V19.5401L15.6798 19.6183H15.8337Z" fill="#FFC100"/>
<path fill-rule="evenodd" clip-rule="evenodd" d="M15.8242 19.5478V19.2168H15.687V19.5478H15.8242Z" fill="#FF1012"/>
<path fill-rule="evenodd" clip-rule="evenodd" d="M15.8337 18.2825L15.8971 18.2064V17.8902L15.8337 17.8145H15.6798L15.6162 17.8902V18.2064L15.6798 18.2825H15.8337Z" fill="#FFC100"/>
<path fill-rule="evenodd" clip-rule="evenodd" d="M15.8242 18.214V17.8809H15.687V18.214H15.8242Z" fill="#FF1012"/>
<path fill-rule="evenodd" clip-rule="evenodd" d="M15.5918 18.3833L15.5962 18.2794L15.4109 18.0422L15.3185 18.0293L15.2006 18.1433L15.1987 18.2466L15.384 18.4844L15.4762 18.4975L15.5918 18.3833Z" fill="#FFC100"/>
<path fill-rule="evenodd" clip-rule="evenodd" d="M15.5464 18.338L15.3513 18.0879L15.2476 18.189L15.4425 18.4419L15.5464 18.338Z" fill="#FF1012"/>
<path fill-rule="evenodd" clip-rule="evenodd" d="M16.0353 18.4975L16.1277 18.4844L16.3158 18.2466L16.3111 18.1433L16.1938 18.0293L16.1008 18.0422L15.9155 18.2794L15.9199 18.3833L16.0353 18.4975Z" fill="#FFC100"/>
<path fill-rule="evenodd" clip-rule="evenodd" d="M16.0712 18.4419L16.2661 18.189L16.1616 18.0879L15.9673 18.338L16.0712 18.4419Z" fill="#FF1012"/>
<path fill-rule="evenodd" clip-rule="evenodd" d="M15.5918 19.0643L15.5962 19.1704L15.4109 19.4084L15.3185 19.4185L15.2006 19.3051L15.1987 19.201L15.384 18.9632L15.4762 18.9531L15.5918 19.0643Z" fill="#FFC100"/>
<path fill-rule="evenodd" clip-rule="evenodd" d="M15.5464 19.1089L15.3513 19.3618L15.2476 19.2608L15.4425 19.0078L15.5464 19.1089Z" fill="#FF1012"/>
<path fill-rule="evenodd" clip-rule="evenodd" d="M16.0353 18.9531L16.1277 18.9632L16.3158 19.201L16.3111 19.3051L16.1938 19.4185L16.1008 19.4084L15.9155 19.1704L15.9199 19.0643L16.0353 18.9531Z" fill="#FFC100"/>
<path fill-rule="evenodd" clip-rule="evenodd" d="M16.0712 19.0078L16.2661 19.2608L16.1616 19.3618L15.9673 19.1089L16.0712 19.0078Z" fill="#FF1012"/>
<path fill-rule="evenodd" clip-rule="evenodd" d="M16.0574 20.2528L16.1478 20.2808L16.3992 20.1345L16.4288 20.0357L16.3581 19.8816L16.2678 19.8516L16.0144 20.0025L15.9868 20.0987L16.0574 20.2528Z" fill="#FFC100"/>
<path fill-rule="evenodd" clip-rule="evenodd" d="M16.1076 20.2129L16.3717 20.0588L16.3062 19.9219L16.0439 20.076L16.1076 20.2129Z" fill="#FF1012"/>
<path fill-rule="evenodd" clip-rule="evenodd" d="M15.4581 20.2528L15.3677 20.2808L15.117 20.1345L15.0874 20.0357L15.1573 19.8816L15.2478 19.8516L15.4985 20.0025L15.5306 20.0987L15.4581 20.2528Z" fill="#FFC100"/>
<path fill-rule="evenodd" clip-rule="evenodd" d="M15.4086 20.2129L15.1455 20.0588L15.2091 19.9219L15.4712 20.076L15.4086 20.2129Z" fill="#FF1012"/>
<path fill-rule="evenodd" clip-rule="evenodd" d="M15.4789 17.576L15.4109 17.6439H15.1261L15.0581 17.576V17.4011L15.1261 17.3281H15.4109L15.4789 17.4011V17.576Z" fill="#FFC100"/>
<path fill-rule="evenodd" clip-rule="evenodd" d="M15.415 17.5661H15.1187V17.4121H15.415V17.5661Z" fill="#FF1012"/>
<rect x="15.6851" y="18.6621" width="0.144627" height="0.144627" fill="#00AD06"/>
<path fill-rule="evenodd" clip-rule="evenodd" d="M18.2339 18.4721H19.1387V12.8672H18.2339V18.4721Z" fill="white"/>
<path d="M19.3403 19.2422H18.0317V18.8444L18.1352 18.7405V18.632L18.0947 18.5913L18.1487 18.5371H19.2054L19.2594 18.5913L19.2189 18.632V18.7405L19.3403 18.8444V19.2422Z" fill="#FDE89B"/>
<path d="M18.0317 12.0105L19.3358 12.0105L19.3358 12.4541L19.2328 12.57L19.2328 12.691L19.2731 12.7364L19.2193 12.7969L18.1662 12.7969L18.1124 12.7364L18.1527 12.691L18.1527 12.57L18.0317 12.4541L18.0317 12.0105Z" fill="#FDE89B"/>
<path d="M17.2763 14.4003V15.0737C17.3348 15.0104 17.5101 14.9607 17.672 14.9291C17.8339 14.8975 18.405 14.8568 18.8098 14.9291C19.1335 14.9869 19.3524 15.1129 19.4213 15.1686C19.192 15.1912 18.6569 15.2518 18.3511 15.3133C18.0453 15.3747 17.9119 15.4714 17.8834 15.5121L17.8159 16.0454C17.8129 16.0515 17.833 16.0879 17.9374 16.1855C18.0678 16.3076 18.2521 16.4025 18.4725 16.5381C18.6928 16.6737 19.0841 16.8499 19.2415 16.9313C19.3674 16.9964 19.4918 17.088 19.5382 17.1256C19.5323 17.1286 19.5086 17.1573 19.4618 17.2476C19.415 17.338 19.4183 17.4119 19.4258 17.4375L19.4956 17.8318C19.4953 17.8384 19.4963 17.8424 19.4978 17.8442L19.4956 17.8318C19.4964 17.8121 19.5085 17.7693 19.5517 17.6906C19.6093 17.5857 19.7166 17.4239 19.7631 17.3561L19.8485 16.7912C19.847 16.7882 19.8359 16.7722 19.8036 16.7324C19.7631 16.6827 19.6821 16.6239 19.6012 16.5742C19.5203 16.5245 19.3134 16.4206 19.0391 16.285C18.8196 16.1765 18.504 15.9837 18.3736 15.9008C18.5579 15.8662 18.9932 15.7842 19.2594 15.7336C19.5257 15.683 19.6792 15.5709 19.7226 15.5212L19.9565 14.9246C19.9685 14.9201 19.9637 14.874 19.8485 14.7257C19.7046 14.5404 19.2594 14.3235 18.4905 14.2647C17.8753 14.2177 17.4247 14.3355 17.2763 14.4003Z" fill="#C60B1A"/>
<path fill-rule="evenodd" clip-rule="evenodd" d="M18.0881 14.3571L18.0075 14.8205L17.9009 14.8301L17.7588 14.3925L17.8791 14.3795L17.9825 14.7108L18.0449 14.361L18.0881 14.3571Z" fill="#FFC100"/>
<path fill-rule="evenodd" clip-rule="evenodd" d="M18.2673 14.3523L18.2716 14.7594L18.4365 14.7554L18.4379 14.8014L18.1551 14.807L18.1494 14.3517L18.2673 14.3523Z" fill="#FFC100"/>
<path fill-rule="evenodd" clip-rule="evenodd" d="M18.7907 14.3879L18.7878 14.433L18.6881 14.4208L18.6473 14.8248L18.5233 14.8113L18.5639 14.405L18.4647 14.3955L18.4683 14.3477L18.7907 14.3879Z" fill="#FFC100"/>
<path fill-rule="evenodd" clip-rule="evenodd" d="M18.9395 14.6239L18.962 14.6295L19.0428 14.5712L18.9949 14.4762L18.9699 14.4705L18.9395 14.6239ZM18.7741 14.8432L18.8651 14.4022L19.0342 14.4441L19.1348 14.4995L19.1552 14.5938L19.0494 14.6774L19.0975 14.7338L19.098 14.8198L19.1001 14.9266L18.9764 14.8908L18.9806 14.815L18.9858 14.787L18.991 14.7541L18.9522 14.6623L18.9318 14.6568L18.8886 14.8681L18.7741 14.8432Z" fill="#FFC100"/>
<path fill-rule="evenodd" clip-rule="evenodd" d="M19.2311 14.8238L19.3251 14.8619L19.3413 14.6543L19.2311 14.8238ZM19.4541 14.5817L19.4274 15.0513L19.3156 15.008L19.3217 14.9048L19.2078 14.8643L19.1541 14.9463L19.1089 14.9302L19.3575 14.5465L19.4541 14.5817Z" fill="#FFC100"/>
<path fill-rule="evenodd" clip-rule="evenodd" d="M10.2482 18.4721H9.33887V12.8672H10.2482V18.4721Z" fill="white"/>
<path d="M9.13623 19.2422H10.4514V18.8444L10.3475 18.7405V18.632L10.3882 18.5913L10.3339 18.5371H9.27182L9.21759 18.5913L9.25826 18.632V18.7405L9.13623 18.8444V19.2422Z" fill="#FDE89B"/>
<path d="M10.4517 12.0105L9.14098 12.0105L9.14098 12.4541L9.24458 12.57L9.24458 12.691L9.20404 12.7364L9.25809 12.7969L10.3165 12.7969L10.3706 12.7364L10.3301 12.691L10.3301 12.57L10.4517 12.4541L10.4517 12.0105Z" fill="#FDE89B"/>
<path d="M11.2109 14.4003V15.0737C11.1521 15.0104 10.9759 14.9607 10.8132 14.9291C10.6504 14.8975 10.0765 14.8568 9.6697 14.9291C9.34429 14.9869 9.12433 15.1129 9.05503 15.1686C9.28553 15.1912 9.82336 15.2518 10.1307 15.3133C10.438 15.3747 10.5721 15.4714 10.6007 15.5121L10.6685 16.0454C10.6715 16.0515 10.6514 16.0879 10.5465 16.1855C10.4154 16.3076 10.2301 16.4025 10.0087 16.5381C9.78721 16.6737 9.394 16.8499 9.23582 16.9313C9.10927 16.9964 8.98423 17.088 8.93752 17.1256C8.94355 17.1286 8.96735 17.1573 9.01436 17.2476C9.06136 17.338 9.05805 17.4119 9.05051 17.4375L8.98041 17.8318C8.98068 17.8384 8.9797 17.8424 8.9782 17.8442L8.98041 17.8318C8.97957 17.8121 8.96738 17.7693 8.92397 17.6906C8.86612 17.5857 8.75825 17.4239 8.71155 17.3561L8.62567 16.7912C8.62718 16.7882 8.63833 16.7722 8.67087 16.7324C8.71155 16.6827 8.7929 16.6239 8.87425 16.5742C8.9556 16.5245 9.1635 16.4206 9.4392 16.285C9.65975 16.1765 9.97703 15.9837 10.1081 15.9008C9.92279 15.8662 9.4853 15.7842 9.21774 15.7336C8.95018 15.683 8.79591 15.5709 8.75222 15.5212L8.5172 14.9246C8.50515 14.9201 8.50997 14.874 8.62567 14.7257C8.7703 14.5404 9.21774 14.3235 9.99059 14.2647C10.6089 14.2177 11.0617 14.3355 11.2109 14.4003Z" fill="#C60B1A"/>
<path fill-rule="evenodd" clip-rule="evenodd" d="M9.49706 14.6573L9.52628 14.6538L9.57044 14.54L9.48917 14.4625L9.46241 14.4714L9.49706 14.6573ZM9.42316 14.9185L9.33521 14.4587L9.51088 14.4141L9.69146 14.5099L9.54794 14.6898L9.50695 14.7007L9.54382 14.8944L9.42317 14.9183L9.42316 14.9185Z" fill="#FFC100"/>
<path fill-rule="evenodd" clip-rule="evenodd" d="M9.87777 14.3518L9.91603 14.7759L10.0885 14.7529L10.0922 14.8038L9.79605 14.8352L9.75576 14.365L9.87777 14.3518Z" fill="#FFC100"/>
<path fill-rule="evenodd" clip-rule="evenodd" d="M10.4235 14.3261L10.3019 14.8009L10.1925 14.8046L10.0791 14.3304L10.2024 14.3278L10.2866 14.6885L10.3783 14.3277L10.4235 14.3261Z" fill="#FFC100"/>
<path fill-rule="evenodd" clip-rule="evenodd" d="M10.7776 14.5085L10.7202 14.5131L10.7268 14.4789L10.6494 14.3835L10.5709 14.4259L10.6421 14.5133L10.7682 14.7127L10.7131 14.807L10.5932 14.8311L10.4546 14.6716L10.4589 14.6447L10.5233 14.6382L10.5081 14.6909L10.5853 14.7915L10.667 14.7431L10.5916 14.6426L10.488 14.4605L10.5431 14.3662L10.6581 14.3463L10.7776 14.5085Z" fill="#FFC100"/>
<path fill-rule="evenodd" clip-rule="evenodd" d="M15.9923 15.6895H15.8088L15.8499 16.0407L15.7864 16.1189L15.6889 16.0938L15.5779 16.0887L15.4946 16.0737L15.4695 16.1648L15.3997 16.1546L15.3317 16.1347L15.3676 16.0407L15.2637 16.0658L15.2458 15.9905L15.2227 15.9217L15.3362 15.9196L15.2888 15.8236L15.3381 15.7829L15.3812 15.7297L15.4131 15.8028L15.5055 15.8917L15.6344 15.8615V15.7225L15.5734 15.8129L15.5761 15.6717L15.5599 15.5957L15.535 15.7428L15.5126 15.5076L15.5895 15.3985L15.8044 15.3807L15.9287 15.3535L16.1187 15.4847L15.9923 15.6895Z" fill="#C60B1A"/>
<path fill-rule="evenodd" clip-rule="evenodd" d="M14.7207 14.9032L14.7817 14.8981L14.8343 14.9562L14.8907 14.8572L14.8002 14.8242L14.7207 14.9032Z" fill="#FFC100"/>
<path fill-rule="evenodd" clip-rule="evenodd" d="M14.6323 13.9694L14.6952 13.9795L14.7383 14.0424L14.8062 13.9514L14.7227 13.9062L14.6323 13.9694Z" fill="#FFC100"/>
<path fill-rule="evenodd" clip-rule="evenodd" d="M14.6372 14.3299L14.6801 14.277H14.7526L14.7277 14.1602L14.6462 14.211L14.6372 14.3299Z" fill="#FFC100"/>
<path fill-rule="evenodd" clip-rule="evenodd" d="M14.9423 13.7695L14.9583 13.8377L14.9219 13.9058L15.0213 13.9467L15.0283 13.8398L14.9423 13.7695Z" fill="#FFC100"/>
<path fill-rule="evenodd" clip-rule="evenodd" d="M15.209 15.7757L15.2725 15.7779L15.3199 15.8387L15.3834 15.7399L15.293 15.707L15.209 15.7757Z" fill="#FFC100"/>
<path fill-rule="evenodd" clip-rule="evenodd" d="M15.1455 16.0965L15.1884 16.0485H15.2609L15.2385 15.9316L15.1552 15.9776L15.1455 16.0965Z" fill="#FFC100"/>
<path fill-rule="evenodd" clip-rule="evenodd" d="M15.4397 16.2971L15.4217 16.234L15.4531 16.161L15.3537 16.1309L15.3511 16.234L15.4397 16.2971Z" fill="#FFC100"/>
<path fill-rule="evenodd" clip-rule="evenodd" d="M16.1909 16.6228L16.1891 16.5525L16.2384 16.4944L16.148 16.4336L16.1211 16.5345L16.1909 16.6228Z" fill="#FFC100"/>
<path fill-rule="evenodd" clip-rule="evenodd" d="M16.0127 16.3521L16.0622 16.312L16.1326 16.3241L16.1275 16.2051L16.0398 16.2381L16.0127 16.3521Z" fill="#FFC100"/>
<path fill-rule="evenodd" clip-rule="evenodd" d="M16.4603 16.5919L16.4172 16.5439L16.4198 16.4629L16.3154 16.478L16.3563 16.5791L16.4603 16.5919Z" fill="#FFC100"/>
<path fill-rule="evenodd" clip-rule="evenodd" d="M14.7139 15.1966L14.7652 15.1585L14.8357 15.1814L14.8402 15.0625L14.7498 15.0856L14.7139 15.1966Z" fill="#FFC100"/>
<path fill-rule="evenodd" clip-rule="evenodd" d="M15.021 15.4053L14.9941 15.3393L15.019 15.2661L14.915 15.2461L14.9259 15.3522L15.021 15.4053Z" fill="#FFC100"/>
<path fill-rule="evenodd" clip-rule="evenodd" d="M15.8086 14.0312L15.8067 14.1096L15.6368 14.0892L15.4514 14.0794L15.2456 13.8915L15.397 13.8613L15.5527 13.9905L15.8086 14.0312Z" fill="#FFC100"/>
<path fill-rule="evenodd" clip-rule="evenodd" d="M15.5462 14.97L15.7021 15.2106L15.9286 15.3546L16.06 15.5088L15.9921 15.6908L15.976 15.9007L16.1184 16.0899L16.1075 15.9638L16.1934 16.0929L16.1979 15.9537L16.2204 16.0139L16.2903 16.1409L16.1613 16.1889L16.1139 16.2088L16.1274 16.2748L16.1229 16.3329L16.2204 16.3378L16.1615 16.3809L16.1325 16.4339L16.1865 16.4668L16.2411 16.5099L16.2795 16.4188L16.3046 16.5047L16.3744 16.4739L16.4443 16.489L16.4102 16.3479L16.4872 16.0929L16.5416 16.0068L16.5102 15.9438L16.487 15.8928L16.3402 15.703L16.4217 15.5007L16.6865 15.3668L16.7269 15.0178C16.709 14.9498 16.5595 14.7045 16.6006 14.3886L16.7135 14.2775L16.7905 14.1005L16.8969 13.9764L16.779 13.9835L16.8719 13.8604L16.9014 13.6855L16.8084 13.7587L16.7295 13.8247L16.7 13.8954L16.6435 13.7313L16.6345 13.8247L16.5639 14.0116L16.5441 14.2948L16.5121 14.5556L16.6185 15.0838L16.5191 15.3167L16.1369 15.1219L15.9849 14.6208L15.3628 14.3886L15.1686 14.2666L14.9825 14.0876L15.0441 13.9286L14.9735 13.9185L14.9106 13.8877L14.8831 14.0217L14.8088 13.9387L14.7677 13.9968L14.7139 14.0424L14.8106 14.1406L14.7139 14.1586L14.7363 14.2216L14.7543 14.2976L14.8517 14.2796L14.9805 14.4165L14.856 14.4696L15.0485 14.5097L14.9511 14.5656L15.1723 14.6587L15.2947 14.7756L15.5461 14.9698L15.5462 14.97Z" fill="#C60B1A"/>
<path fill-rule="evenodd" clip-rule="evenodd" d="M15.5464 14.968L15.3675 15.1047L15.363 15.0008L15.2117 15.1707L15.2207 15.0668L15.0398 15.1349L15.0283 15.2841L14.9583 15.2617H14.9057L14.9307 15.1707L14.8243 15.1878L14.8313 15.1199L14.8268 15.0618L14.9153 15.031L14.8198 14.9577L14.8564 14.9048L14.8904 14.8596L14.9583 14.9279L15.1053 14.92L15.295 14.7737L15.345 14.7049L15.6004 14.5508L15.7793 14.6626L15.6458 14.9078L15.5464 14.968Z" fill="#C60B1A"/>
<path fill-rule="evenodd" clip-rule="evenodd" d="M15.9356 13.6719L15.84 13.7071L15.7971 13.7703L15.6003 13.8132L15.6188 13.9323L15.7817 14.0002L15.7683 14.1492L15.5823 14.1923L15.6638 14.3041L15.363 14.3872L15.2681 14.5112L15.336 14.4834L15.4309 14.5061L15.5348 14.4782L15.49 14.5772L15.4983 14.6681L15.4669 14.7641L15.6842 14.6373L15.7111 14.8322L15.8337 14.6853L15.9016 14.8803L15.9832 14.6853L16.1095 14.8394L16.0889 14.5391L16.2089 14.6831L16.1935 14.4782L16.3089 14.5693L16.2857 14.4403L16.1998 14.2282L16.2857 14.2861L16.2499 14.1644L16.2524 13.9451L15.9356 13.6719Z" fill="#C60B1A"/>
<path fill-rule="evenodd" clip-rule="evenodd" d="M16.481 13.8804L16.4335 13.8982L16.4309 13.8524L16.3925 13.8553L16.3744 13.8875L16.4085 13.9083L16.345 13.8982L16.3405 13.8603L16.3091 13.8502L16.329 13.7793L16.3362 13.7842L16.3522 13.8425L16.3836 13.8344L16.3926 13.7972L16.3432 13.7765L16.3926 13.7585L16.3881 13.7212L16.3522 13.7133L16.3387 13.7714L16.32 13.7212L16.2816 13.7312L16.2752 13.7642L16.3183 13.7765L16.2528 13.7994L16.2458 13.7484H16.2002L16.2162 13.6603H16.2207L16.2458 13.7182L16.2772 13.7004L16.2799 13.6633L16.2254 13.6524L16.2753 13.6273L16.2638 13.5871H16.2254L16.2209 13.6475L16.194 13.6023L16.1601 13.6195L16.1576 13.6552L16.212 13.6603H16.2147L16.1395 13.7032L16.1215 13.6451L16.0849 13.6522V13.5969L16.0895 13.5663V13.5691L16.1143 13.6222L16.1439 13.6072L16.1484 13.5665L16.0919 13.5592L16.142 13.5312L16.1279 13.4933H16.0895V13.5541L16.0605 13.5082L16.024 13.5262V13.5641L16.0784 13.5663L16.0604 13.5841L16.0084 13.5742L15.9673 13.5462H15.9698L16.0013 13.5211L15.9943 13.481L15.9628 13.4831L15.9583 13.4321L15.9019 13.4199L15.9403 13.4831H15.9288V13.5082L15.9468 13.5262L15.9359 13.673L16.1078 13.8014L16.2526 13.9563L16.5079 13.9385L16.481 13.8804Z" fill="#FFC100"/>
<path d="M11.7983 16.5106H13.6333V15.9547H13.3938V14.9016H13.5113V14.3457H11.9249V14.9016H12.0334V15.9547H11.7983V16.5106Z" fill="#FFC100"/>
<path d="M12.1419 14.0851V14.3789H12.3724V14.0851H12.4718V13.832H12.3724V13.8908H12.2956V13.832H12.2142V13.8908H12.1419V13.832H12.0425V14.0851H12.1419Z" fill="#FFC100"/>
<path d="M13.055 14.0851V14.3789H13.2855V14.0851H13.3849V13.832H13.2855V13.8908H13.2087V13.832H13.1273V13.8908H13.055V13.832H12.9556V14.0851H13.055Z" fill="#FFC100"/>
<path d="M12.6029 13.7726V14.3737H12.8334V13.7726H12.9328V13.5195H12.8334V13.5783H12.7565V13.5195H12.6752V13.5783H12.6029V13.5195H12.5034V13.7726H12.6029Z" fill="#FFC100"/>
<path fill-rule="evenodd" clip-rule="evenodd" d="M12.9151 16.498V16.1991L12.7067 16L12.5122 16.1991V16.498H12.9151Z" fill="#145DAA"/>
<path fill-rule="evenodd" clip-rule="evenodd" d="M12.4534 15.5583V15.2401C12.4271 15.1577 12.3757 15.1154 12.3199 15.0781C12.2597 15.1168 12.2102 15.1664 12.1846 15.2401V15.5583H12.4532H12.4534Z" fill="#145DAA"/>
<path fill-rule="evenodd" clip-rule="evenodd" d="M12.9761 15.5583V15.2401L13.1095 15.0781L13.2436 15.2401V15.5583H12.9761Z" fill="#145DAA"/>
<path fill-rule="evenodd" clip-rule="evenodd" d="M16.0873 12.4209L16.313 12.0519L16.472 12.0268L16.8747 11.6398L17.1345 11.3088L17.1595 10.9426L16.7843 10.6107C16.5463 10.4924 16.304 10.4314 16.1391 10.4416L15.7255 10.4237L15.2163 10.2773C14.9828 10.1684 14.6411 10.1074 14.239 10.1074C13.8369 10.1074 13.4943 10.1684 13.2635 10.2773L12.755 10.4237L12.3381 10.4416C12.1734 10.4314 11.9354 10.4924 11.6955 10.6107L11.3203 10.9426L11.3446 11.3088L11.605 11.6398L12.0077 12.0268L12.1642 12.0519L12.3926 12.4209H16.0873Z" fill="#C60B1A"/>
<path fill-rule="evenodd" clip-rule="evenodd" d="M11.3163 11.3193L11.4703 11.029C11.4703 11.029 11.1329 10.6699 11.3863 10.336C11.644 10.002 11.9833 9.99189 12.0788 9.98715L12.6015 9.9971L12.6489 9.90394C12.6489 9.90394 12.2006 9.77982 11.8138 9.89399C11.4291 10.0052 11.2436 10.23 11.1488 10.4751L11.0923 10.8421L11.3161 11.3194L11.3163 11.3193Z" fill="#FDE89B"/>
<path fill-rule="evenodd" clip-rule="evenodd" d="M12.8266 10.8857L12.949 10.6557C12.949 10.6557 12.5804 10.4026 12.7586 9.99553C12.9375 9.58623 13.6302 9.50033 14.0167 9.78551L14.0328 9.6644C14.0328 9.6644 13.6795 9.44443 13.3671 9.50744C13.0548 9.56823 12.9081 9.64924 12.8132 9.72725C12.7208 9.80841 12.5099 9.92226 12.4848 10.3143C12.4624 10.6275 12.7067 10.7765 12.8266 10.8853V10.8857Z" fill="#FDE89B"/>
<path fill-rule="evenodd" clip-rule="evenodd" d="M17.1638 11.3193L17.0079 11.029C17.0079 11.029 17.3472 10.6699 17.0913 10.336C16.836 10.002 16.4961 9.99189 16.4011 9.98715L15.8765 9.9971L15.8291 9.90394C15.8291 9.90394 16.2766 9.77982 16.666 9.89399C17.0482 10.0052 17.2335 10.23 17.3291 10.4751L17.3875 10.8421L17.1636 11.3194L17.1638 11.3193Z" fill="#FDE89B"/>
<path fill-rule="evenodd" clip-rule="evenodd" d="M15.6532 10.8876L15.5306 10.6577C15.5306 10.6577 15.8994 10.4046 15.7204 9.99748C15.5421 9.58819 14.8476 9.50229 14.4629 9.78747L14.4448 9.66635C14.4448 9.66635 14.7976 9.44639 15.1117 9.50939C15.424 9.57019 15.5709 9.65119 15.6639 9.7292C15.7588 9.81036 15.9672 9.92422 15.9942 10.3163C16.0147 10.6294 15.7703 10.7785 15.653 10.8873L15.6532 10.8876Z" fill="#FDE89B"/>
<path fill-rule="evenodd" clip-rule="evenodd" d="M14.2391 10.9435L14.5739 10.5994L14.4924 10.1345L14.4225 9.52738L14.2391 9.44922L14.0582 9.52738L13.9857 10.1345L13.9063 10.5994L14.2391 10.9435Z" fill="#FDE89B"/>
<path fill-rule="evenodd" clip-rule="evenodd" d="M14.4652 9.15136C14.4652 9.30074 14.3605 9.42185 14.2314 9.42185C14.1023 9.42185 13.9976 9.30074 13.9976 9.15136C13.9976 9.00197 14.1023 8.88086 14.2314 8.88086C14.3605 8.88086 14.4652 9.00197 14.4652 9.15136Z" fill="#145DAA"/>
<path fill-rule="evenodd" clip-rule="evenodd" d="M14.3136 9.12891V8.68961H14.5203V8.49886H14.3136V8.30273H14.1488V8.49886H13.9421V8.68961H14.1488V9.12891H13.8906L13.9421 9.26234H14.5203L14.5835 9.12891H14.3136Z" fill="#FDE89B"/>
<path fill-rule="evenodd" clip-rule="evenodd" d="M11.1232 11.4496L11.3335 11.4825L11.4804 11.6716L11.5849 11.6337L11.6771 11.7427L12.0234 11.7328L11.9464 11.6487L12.1048 11.4926L11.8739 11.4594L11.8694 11.3634L11.5911 11.6056L11.4693 11.2544L11.4558 11.3276C11.4558 11.3276 11.3178 11.2244 11.2962 11.2475C11.269 11.2766 11.1725 11.3737 11.1231 11.4495L11.1232 11.4496Z" fill="#FDE89B"/>
<path fill-rule="evenodd" clip-rule="evenodd" d="M17.3634 11.45L17.1505 11.4828L17.0055 11.672L16.8991 11.6341L16.8067 11.7431L16.4629 11.7331L16.5398 11.6491L16.3789 11.4929L16.6116 11.4598L16.6143 11.3638L16.8946 11.606L17.017 11.2548L17.0304 11.3279C17.0304 11.3279 17.1701 11.2291 17.1848 11.2461C17.217 11.2834 17.3017 11.3622 17.3633 11.4497L17.3634 11.45Z" fill="#FDE89B"/>
<path fill-rule="evenodd" clip-rule="evenodd" d="M14.243 11.6701L14.5778 11.8773L14.9281 11.7503L15.2475 11.9275L15.5797 11.7734L15.8381 12.0114L16.1798 11.9705C16.1798 11.9705 16.2338 12.1254 16.453 12.1454C16.6684 12.1626 16.8781 11.7304 16.8781 11.7304C16.8788 11.7304 16.7268 11.9913 16.453 12.0164C16.1772 12.0444 16.2587 11.6703 16.2587 11.6703C16.2587 11.6703 16.1316 12.0036 15.856 11.8874C15.5796 11.7736 15.7046 11.4724 15.7046 11.4724L15.6545 11.3412L15.5596 11.4475C15.5596 11.4475 15.5572 11.8343 15.2403 11.7936C14.9281 11.7505 14.9556 11.4123 14.9556 11.4123C14.9556 11.4123 14.8696 11.7965 14.5708 11.7334C14.2726 11.6703 14.272 11.3845 14.313 11.3185L14.2432 11.1895L14.1727 11.3185C14.2111 11.3845 14.2138 11.6703 13.915 11.7334C13.6168 11.7965 13.5301 11.4123 13.5301 11.4123C13.5307 11.4123 13.5578 11.7503 13.2428 11.7936C12.9286 11.8343 12.9241 11.4475 12.9241 11.4475L12.8311 11.3412L12.7818 11.4724C12.7818 11.4724 12.9037 11.7734 12.6298 11.8874C12.354 12.0036 12.227 11.6703 12.227 11.6703C12.2277 11.6703 12.3086 12.0444 12.0328 12.0164C11.7571 11.9915 11.605 11.7304 11.605 11.7304C11.605 11.7304 11.8133 12.1625 12.0328 12.1454C12.2502 12.1254 12.3067 11.9705 12.3067 11.9705L12.646 12.0114L12.9037 11.7734L13.2366 11.9275L13.558 11.7503L13.9087 11.8773L14.2435 11.6701H14.243Z" fill="#FDE89B"/>
<path d="M12.1241 12.1414L12.0879 12.2363C12.1482 12.2589 12.2804 12.3322 12.3274 12.4442C12.3744 12.5563 12.3289 12.6958 12.3003 12.7516L12.3545 12.8736C12.6815 12.961 13.5161 13.1357 14.2392 13.1357C14.9624 13.1357 15.7879 12.961 16.1103 12.8736L16.1691 12.7516C16.1555 12.6913 16.1365 12.5455 16.1691 12.4442C16.2016 12.343 16.3333 12.2604 16.3951 12.2318L16.3725 12.1459C16.0892 12.0465 15.2661 11.8477 14.2392 11.8477C13.2124 11.8477 12.4013 12.0435 12.1241 12.1414Z" fill="#FDE89B"/>
<path d="M14.2388 12.5215C13.5338 12.4998 12.8031 12.6661 12.5259 12.752C12.8136 12.8333 13.5591 12.996 14.2388 12.996C14.9186 12.996 15.6851 12.8333 15.9834 12.752C15.6956 12.6842 14.9439 12.5432 14.2388 12.5215Z" fill="#C60B1A"/>
<path fill-rule="evenodd" clip-rule="evenodd" d="M14.4763 12.1672L14.4173 12.2324H14.0717L14.0127 12.1672L14.0717 12.1035H14.4173L14.4763 12.1672Z" fill="#FF1012"/>
<path fill-rule="evenodd" clip-rule="evenodd" d="M15.5173 12.2812L15.452 12.332L15.1057 12.279L15.0581 12.2052L15.1236 12.1523L15.4674 12.2052L15.5173 12.2812Z" fill="#00A08A"/>
<path fill-rule="evenodd" clip-rule="evenodd" d="M13.001 12.2812L13.069 12.332L13.4107 12.279L13.4582 12.2052L13.3922 12.1523L13.0511 12.2052L13.001 12.2812Z" fill="#00A08A"/>
<path fill-rule="evenodd" clip-rule="evenodd" d="M13.7932 12.188L13.7324 12.2589L13.6689 12.188L13.7324 12.1191L13.7932 12.188Z" fill="white"/>
<path fill-rule="evenodd" clip-rule="evenodd" d="M14.8134 12.188L14.7524 12.2589L14.689 12.188L14.7524 12.1191L14.8134 12.188Z" fill="white"/>
<path fill-rule="evenodd" clip-rule="evenodd" d="M15.8222 12.3134L15.7612 12.3813L15.7002 12.3134L15.7612 12.248L15.8222 12.3134Z" fill="white"/>
<path fill-rule="evenodd" clip-rule="evenodd" d="M12.7866 12.3134L12.7232 12.3813L12.6641 12.3134L12.7232 12.248L12.7866 12.3134Z" fill="white"/>
<path fill-rule="evenodd" clip-rule="evenodd" d="M12.2388 12.4409L12.3138 12.334L12.492 12.3649L12.354 12.496L12.2388 12.4409Z" fill="#FF1012"/>
<path fill-rule="evenodd" clip-rule="evenodd" d="M16.259 12.4409L16.1845 12.334L16.0029 12.3649L16.1434 12.496L16.259 12.4409Z" fill="#FF1012"/>
<path fill-rule="evenodd" clip-rule="evenodd" d="M14.2388 10.7623L14.492 10.5022L14.433 10.1453L14.3766 9.68816L14.2388 9.625L14.1008 9.68816L14.0463 10.1453L13.9854 10.5022L14.2388 10.7623Z" fill="#FDE89B"/>
<path fill-rule="evenodd" clip-rule="evenodd" d="M12.7552 11.4282L12.4742 11.6072L12.4812 11.5191L12.273 11.4482L12.4584 11.302L12.4063 11.2159L12.7276 11.274L12.5494 10.9729L12.664 10.9802L12.7346 10.748L12.8655 10.935L12.979 10.8921L12.911 11.236L13.1868 11.0691L13.1803 11.1572L13.3926 11.2281L13.2183 11.3772L13.2663 11.461L12.9404 11.403L12.9451 11.302L12.8207 11.2159L12.7168 11.337L12.7552 11.4282Z" fill="#FDE89B"/>
<path fill-rule="evenodd" clip-rule="evenodd" d="M15.7295 11.4282L16.0098 11.6072L16.0053 11.5191L16.2111 11.4482L16.0277 11.302L16.0796 11.2159L15.7583 11.274L15.9353 10.9729L15.8219 10.9802L15.752 10.748L15.6204 10.935L15.5075 10.8921L15.573 11.236L15.2992 11.0691L15.3062 11.1572L15.0933 11.2281L15.2653 11.3772L15.2204 11.461L15.5461 11.403L15.5389 11.302L15.666 11.2159L15.7699 11.337L15.7295 11.4282Z" fill="#FDE89B"/>
<path fill-rule="evenodd" clip-rule="evenodd" d="M14.243 11.0697L14.4035 11.1908L14.3515 11.3099L14.7202 11.4337L14.6837 11.3298L14.9196 11.2115L14.6952 11.0827L14.7317 10.9658L14.3881 11.1026L14.5188 10.7436L14.3809 10.7868L14.243 10.5156L14.1051 10.7868L13.9667 10.7436L14.0981 11.1026L13.7544 10.9658L13.7877 11.0827L13.564 11.2115L13.7993 11.3298L13.7653 11.4337L14.1321 11.3099L14.0801 11.1908L14.243 11.0697Z" fill="#FDE89B"/>
<ellipse cx="11.5678" cy="11.7255" rx="0.122029" ry="0.122029" fill="white"/>
<ellipse cx="16.937" cy="11.7255" rx="0.122029" ry="0.122029" fill="white"/>
<ellipse cx="15.6716" cy="11.3445" rx="0.149146" ry="0.149147" fill="white"/>
<ellipse cx="12.8152" cy="11.3445" rx="0.149146" ry="0.149147" fill="white"/>
<ellipse cx="14.2434" cy="11.2014" rx="0.203381" ry="0.203382" fill="white"/>
</g>
<defs>
<clipPath id="clip0_8216_4492">
<rect x="38" y="26.5" width="34" height="23" rx="2" transform="rotate(-180 38 26.5)" fill="white"/>
</clipPath>
</defs>
</svg>
