<svg width="52" height="49" viewBox="0 0 52 49" fill="none" xmlns="http://www.w3.org/2000/svg">
<g clip-path="url(#clip0_8291_3498)">
<path d="M19.3164 48.7371L32.8418 48.4758C33.101 48.0699 33.7534 46.8683 34.2893 45.309C34.8252 43.7496 35.2366 42.2736 35.3754 41.7306L42.7241 41.7414C42.9867 39.4208 44.0429 33.458 45.5344 28.3376C47.0258 23.2172 49.8695 16.5595 51.1839 13.85C50.4262 13.4299 48.151 12.3334 45.1121 11.3082C42.0732 10.283 39.9822 9.67294 39.2479 9.5563C39.4255 8.94674 39.7307 7.53806 40.0803 6.29788C40.4299 5.0577 40.8532 3.02697 41.0211 2.16663C37.879 1.66953 32.611 0.524486 25.7506 0.606809C18.6804 0.691651 13.5162 1.71098 10.321 2.29733C10.3085 2.35691 10.4579 3.13949 11.1553 5.79325C11.8527 8.44701 12.351 9.70084 12.513 9.99604C12.0447 10.0347 10.3781 10.3544 7.45825 11.3244C4.53838 12.2943 1.48588 13.7663 0.324611 14.3811C1.32026 15.9207 3.80229 20.6104 5.76527 27.0521C7.72824 33.4937 8.96005 39.6377 9.33058 41.9045L16.6586 41.8364C16.5935 41.9098 16.6517 42.5812 17.4058 44.6797C18.1599 46.7782 18.9937 48.259 19.3164 48.7371Z" fill="black"/>
<path d="M21.704 44.6479L30.3579 44.4847C30.5223 44.1973 31.0244 42.6329 31.3523 41.5214C31.6803 40.4099 31.9898 39.187 32.0724 38.7991L39.5001 38.7892C39.8379 35.5764 40.683 31.7236 40.683 31.7236L11.2131 32.0376C11.2131 32.0376 11.9269 35.3963 12.545 39.0335L19.9312 38.8656C20.0597 39.6762 20.0878 40.2884 20.6201 41.8086C21.1525 43.3289 21.4831 44.2991 21.704 44.6479Z" fill="#F49B00"/>
<path d="M39.9295 33.3547L11.9644 33.6111L11.5908 32.1895L40.3083 31.9042L39.9295 33.3547Z" fill="url(#paint0_radial_8291_3498)"/>
<path d="M10.5564 30.1839L41.1567 29.9949C41.4786 28.7564 42.101 26.1833 42.9046 23.7938C43.9947 20.5521 45.5006 17.2859 46.295 15.8106C45.6439 15.4751 43.9004 14.6667 42.1349 14.1175C40.3694 13.5682 38.4179 13.0396 37.6629 12.844C37.3218 13.581 36.0732 15.727 34.9055 17.4524C33.7377 19.1778 32.2068 20.8919 31.45 21.6537C31.873 20.5856 32.7148 18.1125 33.7132 15.4859C35.0612 11.9401 35.8869 7.90656 36.1938 5.96837C34.9414 5.59381 30.7908 4.68651 25.8404 4.80526C20.6102 4.93073 16.9575 5.70404 15.141 6.1814C15.289 6.95872 15.9154 9.64251 17.0712 13.5268C18.2271 17.411 19.6652 20.6131 20.2398 21.7287C19.6996 21.2796 18.4399 19.9558 17.0073 18.1032C15.5748 16.2505 14.3042 14.0288 13.9374 13.1682C13.167 13.3426 11.4736 13.7531 9.67239 14.289C7.73026 14.8669 5.81462 15.7813 5.33651 16.1039C5.80868 16.9368 6.75293 18.9235 7.79944 21.6206C8.84595 24.3177 9.70546 26.9458 10.5564 30.1839Z" fill="#FEFEFE"/>
<path d="M12.2408 28.5575L39.7487 28.168C40.0356 27.0499 40.4005 25.5743 41.1179 23.4176C42.0911 20.4915 43.311 17.4841 44.0216 16.153C43.4367 15.8489 42.2864 15.4269 41.1166 15.0588C39.9468 14.6907 39.0095 14.4304 38.2364 14.3803C37.9314 15.0454 36.4273 17.1354 35.2173 18.6355C32.6243 21.85 31.0014 22.7811 30.3234 23.4679C30.7013 22.5039 31.9687 17.8902 32.6039 15.4383C33.1908 13.1732 34.076 9.04626 34.3483 7.29625L34.3207 7.2879C33.177 6.94175 30.3031 6.072 25.896 6.1706C21.2019 6.27561 18.6661 6.85786 17.0364 7.2861C17.1705 7.98838 17.5485 10.5201 18.4432 13.9246C19.4602 17.7946 20.6727 21.1234 21.5074 23.336C20.6139 23.1486 18.6986 21.9632 16.6457 19.2942C15.357 17.6186 13.9453 15.4443 13.3803 14.5795L13.345 14.5875C12.666 14.7408 11.8789 14.9184 10.3 15.389C8.9689 15.7857 8.13009 16.1281 7.56838 16.4446C7.99225 17.1979 9.11319 19.4156 10.0568 21.8532C11.0003 24.2908 11.4719 25.6316 12.2408 28.5575Z" fill="url(#paint1_linear_8291_3498)"/>
</g>
<defs>
<radialGradient id="paint0_radial_8291_3498" cx="0" cy="0" r="1" gradientUnits="userSpaceOnUse" gradientTransform="translate(25.4359 32.984) rotate(89.697) scale(1.47559 16.8873)">
<stop offset="0.177885" stop-color="white" stop-opacity="0.7"/>
<stop offset="0.884615" stop-color="white" stop-opacity="0"/>
</radialGradient>
<linearGradient id="paint1_linear_8291_3498" x1="26.2732" y1="4.52106" x2="26.6678" y2="29.1569" gradientUnits="userSpaceOnUse">
<stop stop-color="#A2A2A2"/>
<stop offset="0.752797" stop-color="#A2A2A2" stop-opacity="0"/>
</linearGradient>
<clipPath id="clip0_8291_3498">
<rect width="52" height="49" fill="white"/>
</clipPath>
</defs>
</svg>
