<svg width="770" height="452" viewBox="0 0 770 452" fill="none" xmlns="http://www.w3.org/2000/svg">
<path d="M170.848 177.004L162.902 6.62109L71.9727 26.9258L79.4766 160.23L170.848 177.004Z" fill="url(#paint0_linear_8007_399)" fill-opacity="0.5"/>
<path d="M229.555 384.465L218.078 169.941L170.848 177.004L134.211 170.383L139.066 335.469L229.555 384.465Z" fill="url(#paint1_linear_8007_399)" fill-opacity="0.5"/>
<path d="M352.707 17.2148L327.105 23.3945L326.223 154.934L291.352 158.023L295.324 319.578L352.707 340.99V17.2148Z" fill="url(#paint2_linear_8007_399)" fill-opacity="0.5"/>
<path d="M453.789 273.23L503.227 287.797L506.758 130.656L481.156 133.746L483.805 24.7188L461.734 29.1328L378.75 145.223L460.852 148.754L398.613 214.082L460.41 221.586L453.789 273.23Z" fill="url(#paint3_linear_8007_399)" fill-opacity="0.5"/>
<path d="M566.348 265.285L580.473 30.0156L564.141 32.6641L561.051 122.711L538.539 126.242L535.891 256.898L566.348 265.285Z" fill="url(#paint4_linear_8007_399)" fill-opacity="0.5"/>
<path d="M597.246 114.324L592.832 64.0039L606.074 62.2383H619.316L615.785 116.09L597.246 114.324Z" fill="url(#paint5_linear_8007_399)" fill-opacity="0.5"/>
<path d="M663.457 34.8711L649.773 37.0781L643.594 143.016L614.02 146.988L606.074 151.844L644.5 154.5L643.594 163L641.828 232.621L652.422 234.828L663.457 34.8711Z" fill="url(#paint6_linear_8007_399)" fill-opacity="0.5"/>
<path d="M700.094 64.4453H682.438L675.375 200.398L693.031 201.281L700.094 64.4453Z" fill="url(#paint7_linear_8007_399)" fill-opacity="0.5"/>
<path d="M613.684 208L610.594 249.934L600 246.844L600.883 209.766L613.684 208Z" fill="url(#paint8_linear_8007_399)" fill-opacity="0.5"/>
<path d="M331.934 16.0635L328.43 156.258L293.559 160.23L297.816 360.372L229.555 384.465L218.078 169.941L170.406 177.004L162.902 6.62109L331.934 16.0635ZM462.062 23.333L461.114 136.868L396 145.711V158.07L461.021 148.036L460.532 206.661L396.441 221.191V235.758L460.415 220.658L459.726 303.228L352.707 340.999V17.2246L462.062 23.333ZM564.784 29.0723L561.934 123.152L539.422 126.684L536.733 276.048L503.314 287.843L506.628 130.656L481.026 133.746L483.544 24.5332L564.784 29.0723ZM650.887 33.8818L645.175 145.077L623 149L622.5 159L636.854 156.284L642.846 238.597L610.511 250.009L611 249.5L614 207.5L601.5 209.5L595.661 255.25L566.331 265.603L580.216 29.9346L650.887 33.8818ZM715.984 37.5195L709.805 214.965L652.439 235.211L663.182 34.5693L715.984 37.5195ZM684.203 64.8867L677.141 203.93L692.148 199.074L699.652 64.8867H684.203ZM608.723 62.2383L605.191 117.414L615.785 116.09L619.316 62.2383H608.723Z" fill="#080B0B"/>
<defs>
<linearGradient id="paint0_linear_8007_399" x1="71.9727" y1="88.6573" x2="170.634" y2="81.5005" gradientUnits="userSpaceOnUse">
<stop stop-color="#080B0B"/>
<stop offset="1" stop-color="#79BEFF"/>
</linearGradient>
<linearGradient id="paint1_linear_8007_399" x1="134.211" y1="273.23" x2="229.555" y2="267.934" gradientUnits="userSpaceOnUse">
<stop stop-color="#080B0B"/>
<stop offset="1" stop-color="#79BEFF"/>
</linearGradient>
<linearGradient id="paint2_linear_8007_399" x1="291.352" y1="173.107" x2="352.862" y2="171.65" gradientUnits="userSpaceOnUse">
<stop stop-color="#080B0B"/>
<stop offset="1" stop-color="#79BEFF"/>
</linearGradient>
<linearGradient id="paint3_linear_8007_399" x1="378.75" y1="151.386" x2="506.68" y2="143.605" gradientUnits="userSpaceOnUse">
<stop stop-color="#080B0B"/>
<stop offset="1" stop-color="#79BEFF"/>
</linearGradient>
<linearGradient id="paint4_linear_8007_399" x1="535.891" y1="143.294" x2="580.585" y2="142.235" gradientUnits="userSpaceOnUse">
<stop stop-color="#080B0B"/>
<stop offset="1" stop-color="#79BEFF"/>
</linearGradient>
<linearGradient id="paint5_linear_8007_399" x1="592.832" y1="88.1668" x2="619.298" y2="86.5398" gradientUnits="userSpaceOnUse">
<stop stop-color="#080B0B"/>
<stop offset="1" stop-color="#79BEFF"/>
</linearGradient>
<linearGradient id="paint6_linear_8007_399" x1="606.074" y1="131.147" x2="663.56" y2="129.085" gradientUnits="userSpaceOnUse">
<stop stop-color="#080B0B"/>
<stop offset="1" stop-color="#79BEFF"/>
</linearGradient>
<linearGradient id="paint7_linear_8007_399" x1="675.375" y1="130.329" x2="700.157" y2="129.77" gradientUnits="userSpaceOnUse">
<stop stop-color="#080B0B"/>
<stop offset="1" stop-color="#79BEFF"/>
</linearGradient>
<linearGradient id="paint8_linear_8007_399" x1="600" y1="228.19" x2="613.703" y2="227.631" gradientUnits="userSpaceOnUse">
<stop stop-color="#080B0B"/>
<stop offset="1" stop-color="#79BEFF"/>
</linearGradient>
</defs>
</svg>
