<svg width="66" height="66" viewBox="0 0 66 66" fill="none" xmlns="http://www.w3.org/2000/svg">
<rect width="66" height="66" fill="black"/>
<g clip-path="url(#clip0_8592_1605)">
<rect x="1.0502" y="23.0492" width="9" height="9" stroke="white" stroke-width="0.7"/>
</g>
<g clip-path="url(#clip1_8592_1605)">
<rect x="12.0502" y="23.0492" width="9" height="9" stroke="white" stroke-width="0.7"/>
</g>
<g clip-path="url(#clip2_8592_1605)">
<rect x="23.0502" y="23.0492" width="9" height="9" stroke="white" stroke-width="0.7"/>
</g>
<g clip-path="url(#clip3_8592_1605)">
<rect x="1.0502" y="12.0492" width="9" height="9" stroke="white" stroke-width="0.7"/>
</g>
<g clip-path="url(#clip4_8592_1605)">
<rect x="12.0502" y="12.0492" width="9" height="9" stroke="white" stroke-width="0.7"/>
</g>
<g clip-path="url(#clip5_8592_1605)">
<rect x="23.0502" y="12.0492" width="9" height="9" stroke="white" stroke-width="0.7"/>
</g>
<g clip-path="url(#clip6_8592_1605)">
<rect x="1.0502" y="1.04922" width="9" height="9" stroke="white" stroke-width="0.7"/>
</g>
<g clip-path="url(#clip7_8592_1605)">
<rect x="12.0502" y="1.04922" width="9" height="9" stroke="white" stroke-width="0.7"/>
</g>
<g clip-path="url(#clip8_8592_1605)">
<rect x="23.0502" y="1.04922" width="9" height="9" stroke="white" stroke-width="0.7"/>
</g>
<rect x="33" y="49.5" width="33" height="16.5" fill="url(#paint0_linear_8592_1605)"/>
<rect x="33" y="33" width="33" height="16.5" fill="url(#paint1_linear_8592_1605)"/>
<rect x="33" y="16.5" width="33" height="16.5" fill="url(#paint2_linear_8592_1605)"/>
<rect x="33" width="33" height="16.5" fill="url(#paint3_linear_8592_1605)"/>
<defs>
<linearGradient id="paint0_linear_8592_1605" x1="49.5" y1="49.5" x2="49.5" y2="66" gradientUnits="userSpaceOnUse">
<stop stop-color="#1D1D1D"/>
<stop offset="1" stop-color="#4F4F4F"/>
</linearGradient>
<linearGradient id="paint1_linear_8592_1605" x1="49.5" y1="33" x2="49.5" y2="49.5" gradientUnits="userSpaceOnUse">
<stop stop-color="#1D1D1D"/>
<stop offset="1" stop-color="#4F4F4F"/>
</linearGradient>
<linearGradient id="paint2_linear_8592_1605" x1="49.5" y1="16.5" x2="49.5" y2="33" gradientUnits="userSpaceOnUse">
<stop stop-color="#1D1D1D"/>
<stop offset="1" stop-color="#4F4F4F"/>
</linearGradient>
<linearGradient id="paint3_linear_8592_1605" x1="49.5" y1="0" x2="49.5" y2="16.5" gradientUnits="userSpaceOnUse">
<stop stop-color="#1D1D1D"/>
<stop offset="1" stop-color="#4F4F4F"/>
</linearGradient>
<clipPath id="clip0_8592_1605">
<rect width="11" height="11" fill="white" transform="translate(0 22)"/>
</clipPath>
<clipPath id="clip1_8592_1605">
<rect width="11" height="11" fill="white" transform="translate(11 22)"/>
</clipPath>
<clipPath id="clip2_8592_1605">
<rect width="11" height="11" fill="white" transform="translate(22 22)"/>
</clipPath>
<clipPath id="clip3_8592_1605">
<rect width="11" height="11" fill="white" transform="translate(0 11)"/>
</clipPath>
<clipPath id="clip4_8592_1605">
<rect width="11" height="11" fill="white" transform="translate(11 11)"/>
</clipPath>
<clipPath id="clip5_8592_1605">
<rect width="11" height="11" fill="white" transform="translate(22 11)"/>
</clipPath>
<clipPath id="clip6_8592_1605">
<rect width="11" height="11" fill="white"/>
</clipPath>
<clipPath id="clip7_8592_1605">
<rect width="11" height="11" fill="white" transform="translate(11)"/>
</clipPath>
<clipPath id="clip8_8592_1605">
<rect width="11" height="11" fill="white" transform="translate(22)"/>
</clipPath>
</defs>
</svg>
