<svg width="256" height="256" viewBox="0 0 256 256" fill="none" xmlns="http://www.w3.org/2000/svg">
<rect width="256" height="256" fill="black"/>
<rect x="3.87915" y="3.87769" width="35.297" height="35.297" stroke="white" stroke-width="3.10303"/>
<rect x="46.5459" y="3.87769" width="35.297" height="35.297" stroke="white" stroke-width="3.10303"/>
<rect x="89.2124" y="3.87769" width="35.297" height="35.297" stroke="white" stroke-width="3.10303"/>
<rect x="3.87915" y="46.5447" width="35.297" height="35.297" stroke="white" stroke-width="3.10303"/>
<rect x="46.5459" y="46.5447" width="35.297" height="35.297" stroke="white" stroke-width="3.10303"/>
<rect x="89.2124" y="46.5447" width="35.297" height="35.297" stroke="white" stroke-width="3.10303"/>
<rect x="3.87915" y="89.2107" width="35.297" height="35.297" stroke="white" stroke-width="3.10303"/>
<rect x="46.5459" y="89.2107" width="35.297" height="35.297" stroke="white" stroke-width="3.10303"/>
<rect x="89.2124" y="89.2107" width="35.297" height="35.297" stroke="white" stroke-width="3.10303"/>
<rect x="128" y="192" width="128" height="64" fill="url(#paint0_linear_8594_1619)"/>
<rect x="128" y="128" width="128" height="64" fill="url(#paint1_linear_8594_1619)"/>
<rect x="128" y="64" width="128" height="64" fill="url(#paint2_linear_8594_1619)"/>
<rect x="128" width="128" height="64" fill="url(#paint3_linear_8594_1619)"/>
<defs>
<linearGradient id="paint0_linear_8594_1619" x1="192" y1="192" x2="192" y2="256" gradientUnits="userSpaceOnUse">
<stop stop-color="#1D1D1D"/>
<stop offset="1" stop-color="#4F4F4F"/>
</linearGradient>
<linearGradient id="paint1_linear_8594_1619" x1="192" y1="128" x2="192" y2="192" gradientUnits="userSpaceOnUse">
<stop stop-color="#1D1D1D"/>
<stop offset="1" stop-color="#4F4F4F"/>
</linearGradient>
<linearGradient id="paint2_linear_8594_1619" x1="192" y1="64" x2="192" y2="128" gradientUnits="userSpaceOnUse">
<stop stop-color="#1D1D1D"/>
<stop offset="1" stop-color="#4F4F4F"/>
</linearGradient>
<linearGradient id="paint3_linear_8594_1619" x1="192" y1="0" x2="192" y2="64" gradientUnits="userSpaceOnUse">
<stop stop-color="#1D1D1D"/>
<stop offset="1" stop-color="#4F4F4F"/>
</linearGradient>
</defs>
</svg>
