<svg width="245" height="245" viewBox="0 0 245 245" fill="none" xmlns="http://www.w3.org/2000/svg">
<rect width="245" height="245" fill="black"/>
<rect x="3.71239" y="3.71141" width="33.7803" height="33.7803" stroke="white" stroke-width="2.9697"/>
<rect x="44.5459" y="3.71141" width="33.7803" height="33.7803" stroke="white" stroke-width="2.9697"/>
<rect x="85.3789" y="3.71141" width="33.7803" height="33.7803" stroke="white" stroke-width="2.9697"/>
<rect x="3.71239" y="44.5454" width="33.7803" height="33.7803" stroke="white" stroke-width="2.9697"/>
<rect x="44.5459" y="44.5454" width="33.7803" height="33.7803" stroke="white" stroke-width="2.9697"/>
<rect x="85.3789" y="44.5454" width="33.7803" height="33.7803" stroke="white" stroke-width="2.9697"/>
<rect x="3.71239" y="85.3774" width="33.7803" height="33.7803" stroke="white" stroke-width="2.9697"/>
<rect x="44.5459" y="85.3774" width="33.7803" height="33.7803" stroke="white" stroke-width="2.9697"/>
<rect x="85.3789" y="85.3774" width="33.7803" height="33.7803" stroke="white" stroke-width="2.9697"/>
<rect x="122.5" y="183.75" width="122.5" height="61.25" fill="url(#paint0_linear_8599_1714)"/>
<rect x="122.5" y="122.5" width="122.5" height="61.25" fill="url(#paint1_linear_8599_1714)"/>
<rect x="122.5" y="61.25" width="122.5" height="61.25" fill="url(#paint2_linear_8599_1714)"/>
<rect x="122.5" width="122.5" height="61.25" fill="url(#paint3_linear_8599_1714)"/>
<defs>
<linearGradient id="paint0_linear_8599_1714" x1="183.75" y1="183.75" x2="183.75" y2="245" gradientUnits="userSpaceOnUse">
<stop stop-color="#1D1D1D"/>
<stop offset="1" stop-color="#4F4F4F"/>
</linearGradient>
<linearGradient id="paint1_linear_8599_1714" x1="183.75" y1="122.5" x2="183.75" y2="183.75" gradientUnits="userSpaceOnUse">
<stop stop-color="#1D1D1D"/>
<stop offset="1" stop-color="#4F4F4F"/>
</linearGradient>
<linearGradient id="paint2_linear_8599_1714" x1="183.75" y1="61.25" x2="183.75" y2="122.5" gradientUnits="userSpaceOnUse">
<stop stop-color="#1D1D1D"/>
<stop offset="1" stop-color="#4F4F4F"/>
</linearGradient>
<linearGradient id="paint3_linear_8599_1714" x1="183.75" y1="0" x2="183.75" y2="61.25" gradientUnits="userSpaceOnUse">
<stop stop-color="#1D1D1D"/>
<stop offset="1" stop-color="#4F4F4F"/>
</linearGradient>
</defs>
</svg>
