<svg width="208" height="203" viewBox="0 0 208 203" fill="none" xmlns="http://www.w3.org/2000/svg">
<path d="M101.985 1.77758C102.251 -0.59129 105.694 -0.59129 105.96 1.77758L114.779 80.2493C114.943 81.7144 116.583 82.5038 117.831 81.719L184.681 39.6873C186.699 38.4185 188.845 41.11 187.159 42.7951L131.305 98.6159C130.263 99.6581 130.668 101.432 132.059 101.919L206.601 127.977C208.851 128.764 208.085 132.12 205.717 131.853L127.25 122.989C125.785 122.823 124.651 124.246 125.138 125.637L151.241 200.164C152.028 202.414 148.927 203.907 147.659 201.888L105.666 135.014C104.882 133.766 103.063 133.766 102.279 135.014L60.2861 201.888C59.0185 203.907 55.9168 202.414 56.7048 200.164L82.8072 125.637C83.2946 124.246 82.1601 122.823 80.6951 122.989L2.2286 131.853C-0.140114 132.12 -0.906156 128.764 1.34408 127.978L75.886 101.919C77.2778 101.432 77.6826 99.6581 76.6398 98.6159L20.7864 42.7951C19.1003 41.11 21.2467 38.4185 23.2648 39.6873L90.1146 81.719C91.3628 82.5038 93.002 81.7144 93.1667 80.2493L101.985 1.77758Z" fill="url(#paint0_radial_8353_1313)"/>
<defs>
<radialGradient id="paint0_radial_8353_1313" cx="0" cy="0" r="1" gradientUnits="userSpaceOnUse" gradientTransform="translate(103.973 106.592) rotate(90) scale(122.5)">
<stop offset="0.0913462" stop-color="#FFE2E2"/>
<stop offset="0.245192" stop-color="#FF7479"/>
<stop offset="0.610577" stop-color="#FF1F23" stop-opacity="0.1"/>
<stop offset="0.875" stop-color="#FF1F23" stop-opacity="0"/>
</radialGradient>
</defs>
</svg>
