<svg width="49" height="49" viewBox="0 0 49 49" fill="none" xmlns="http://www.w3.org/2000/svg">
<path d="M12.4576 49L47.339 41.1947L49 6.93805L31.1441 0L0 3.0354V34.2566L12.4576 49Z" fill="url(#paint0_radial_8404_1418)" fill-opacity="0.25"/>
<path d="M0.75 3.71582V33.9814L12.7383 48.1689L46.6182 40.5869L48.2256 7.44043L31.0381 0.762695L0.75 3.71582Z" stroke="white" stroke-opacity="0.4" stroke-width="1.5"/>
<path d="M12.4652 48.1382L46.8512 40.8311L48.1406 6.875" stroke="url(#paint1_linear_8404_1418)" stroke-width="1.5"/>
<path d="M12.4647 33.5275V11.6064L37.3945 8.59766" stroke="url(#paint2_radial_8404_1418)" stroke-opacity="0.7" stroke-width="1.5"/>
<path d="M28.5725 34.1859C28.8963 34.1385 29.1156 33.8053 29.0624 33.4417C29.0091 33.0781 28.7035 32.8218 28.3797 32.8692C28.0559 32.9166 27.8366 33.2498 27.8898 33.6134C27.9431 33.977 28.2487 34.2333 28.5725 34.1859Z" fill="#F79CFF" stroke="#F79CFF" stroke-width="1.49665" stroke-linecap="round" stroke-linejoin="round"/>
<path d="M35.0215 32.93C35.3452 32.8826 35.5646 32.5495 35.5113 32.1859C35.4581 31.8223 35.1525 31.566 34.8287 31.6134C34.5049 31.6608 34.2856 31.994 34.3388 32.3575C34.3921 32.7211 34.6977 32.9774 35.0215 32.93Z" fill="#F79CFF" stroke="#F79CFF" stroke-width="1.49665" stroke-linecap="round" stroke-linejoin="round"/>
<path d="M21.1621 20.9941L24.6728 20.604L26.9264 28.9352C27.0275 29.2243 27.2243 29.4685 27.4823 29.625C27.7403 29.7816 28.0431 29.8405 28.3376 29.7914L34.4558 28.8956C34.994 28.8276 35.9585 28.2121 35.9853 27.6255L37.1555 21.7743L25.4973 23.6519" stroke="#F79CFF" stroke-width="1.49665" stroke-linecap="round" stroke-linejoin="round"/>
<defs>
<radialGradient id="paint0_radial_8404_1418" cx="0" cy="0" r="1" gradientUnits="userSpaceOnUse" gradientTransform="translate(27.0789 25.3597) rotate(100.061) scale(27.0653 24.2784)">
<stop offset="0.413462" stop-color="#F79CFF"/>
<stop offset="0.918269" stop-color="#892392"/>
</radialGradient>
<linearGradient id="paint1_linear_8404_1418" x1="25.7897" y1="21.0592" x2="65.7634" y2="51.5768" gradientUnits="userSpaceOnUse">
<stop offset="0.143834" stop-color="white" stop-opacity="0"/>
<stop offset="0.479069" stop-color="white"/>
</linearGradient>
<radialGradient id="paint2_radial_8404_1418" cx="0" cy="0" r="1" gradientUnits="userSpaceOnUse" gradientTransform="translate(12.8945 11.6064) rotate(37.4762) scale(16.2483 11.9538)">
<stop stop-color="white"/>
<stop offset="0.889794" stop-color="white" stop-opacity="0"/>
</radialGradient>
</defs>
</svg>
