<svg width="77" height="77" viewBox="0 0 77 77" fill="none" xmlns="http://www.w3.org/2000/svg">
<path d="M33.6565 20.3145C33.6565 28.3963 33.9595 32.9275 33.9595 41.0093M33.9595 41.0093L21.8389 50.1025M33.9595 41.0093L56.3724 45.3991" stroke="#939393" stroke-width="1.5"/>
<g filter="url(#filter0_d_8374_1330)">
<path d="M43.6148 48.3281L28.7993 45.0128L28.0938 30.4625L35.6779 27.5156L48.9061 28.8049V42.0659L43.6148 48.3281Z" fill="url(#paint0_radial_8374_1330)"/>
</g>
<g filter="url(#filter1_d_8374_1330)">
<path d="M57 22.1953V45.3984L47.5928 56.6865L21.2539 50.7285L20 25.3301L33.4834 20L57 22.1953ZM22.4238 49.833L46.958 55.4297L46.3389 29.0928L21.2588 26.0332L22.4238 49.833ZM47.5928 29.0928L47.8975 54.3193L55.7461 44.8213V23.5596L47.5928 29.0928ZM23.1943 25.1807L46.9658 28.1523L54.8164 22.918L33.8232 20.9424L23.1943 25.1807Z" fill="white"/>
</g>
<defs>
<filter id="filter0_d_8374_1330" x="18.0938" y="17.5156" width="40.8125" height="40.8125" filterUnits="userSpaceOnUse" color-interpolation-filters="sRGB">
<feFlood flood-opacity="0" result="BackgroundImageFix"/>
<feColorMatrix in="SourceAlpha" type="matrix" values="0 0 0 0 0 0 0 0 0 0 0 0 0 0 0 0 0 0 127 0" result="hardAlpha"/>
<feOffset/>
<feGaussianBlur stdDeviation="5"/>
<feComposite in2="hardAlpha" operator="out"/>
<feColorMatrix type="matrix" values="0 0 0 0 0.0784314 0 0 0 0 0.831373 0 0 0 0 1 0 0 0 1 0"/>
<feBlend mode="normal" in2="BackgroundImageFix" result="effect1_dropShadow_8374_1330"/>
<feBlend mode="normal" in="SourceGraphic" in2="effect1_dropShadow_8374_1330" result="shape"/>
</filter>
<filter id="filter1_d_8374_1330" x="0" y="0" width="77" height="76.6875" filterUnits="userSpaceOnUse" color-interpolation-filters="sRGB">
<feFlood flood-opacity="0" result="BackgroundImageFix"/>
<feColorMatrix in="SourceAlpha" type="matrix" values="0 0 0 0 0 0 0 0 0 0 0 0 0 0 0 0 0 0 127 0" result="hardAlpha"/>
<feOffset/>
<feGaussianBlur stdDeviation="10"/>
<feComposite in2="hardAlpha" operator="out"/>
<feColorMatrix type="matrix" values="0 0 0 0 0.0784314 0 0 0 0 0.831373 0 0 0 0 1 0 0 0 1 0"/>
<feBlend mode="normal" in2="BackgroundImageFix" result="effect1_dropShadow_8374_1330"/>
<feBlend mode="normal" in="SourceGraphic" in2="effect1_dropShadow_8374_1330" result="shape"/>
</filter>
<radialGradient id="paint0_radial_8374_1330" cx="0" cy="0" r="1" gradientUnits="userSpaceOnUse" gradientTransform="translate(38.4999 37.9219) rotate(90) scale(10.4062 10.4062)">
<stop stop-color="#D7FBFF"/>
<stop offset="0.461538" stop-color="#A4F4FE"/>
<stop offset="0.870192" stop-color="#5CE1FF"/>
<stop offset="1" stop-color="#14D4FF"/>
</radialGradient>
</defs>
</svg>
