<svg width="34" height="34" viewBox="0 0 34 34" fill="none" xmlns="http://www.w3.org/2000/svg">
<path d="M23.9234 31.5273L2.56749 26.7486L1.55054 5.77513L12.4827 1.52734L31.5505 3.38575V22.5008L23.9234 31.5273Z" fill="url(#paint0_radial_8406_1777)"/>
<path d="M32.3005 22.7754L32.1238 22.9844L24.4958 32.0117L24.2029 32.3584L23.7595 32.2588L2.40405 27.4805L1.84644 27.3555L1.81812 26.7852L0.801514 5.81152L0.775146 5.27148L1.27905 5.07617L12.2107 0.828125L12.3777 0.763672L12.5554 0.78125L31.6228 2.63965L32.3005 2.70508V22.7754Z" stroke="white" stroke-opacity="0.5" stroke-width="1.5"/>
<path d="M4.21729 8.19336L4.83633 24.557L21.5506 28.1934L21.2411 10.3146L4.21729 8.19336Z" fill="url(#paint1_radial_8406_1777)" stroke="#413F3F" stroke-width="0.810811"/>
<path d="M24.217 10.1013L24.5328 27.5285L29.5504 21.9528V6.62891L24.217 10.1013Z" fill="url(#paint2_radial_8406_1777)" stroke="#413F3F" stroke-width="0.810811"/>
<path d="M22.2169 7.52539L6.88354 5.85872L13.2169 3.52539L26.8835 4.85872L22.2169 7.52539Z" fill="url(#paint3_radial_8406_1777)" stroke="#413F3F" stroke-width="0.810811"/>
<defs>
<radialGradient id="paint0_radial_8406_1777" cx="0" cy="0" r="1" gradientUnits="userSpaceOnUse" gradientTransform="translate(16.5505 16.5273) rotate(90) scale(15)">
<stop stop-color="#767676"/>
<stop offset="0.365385" stop-color="#767676"/>
<stop offset="0.870192" stop-color="#565656"/>
<stop offset="1" stop-color="#565656"/>
</radialGradient>
<radialGradient id="paint1_radial_8406_1777" cx="0" cy="0" r="1" gradientUnits="userSpaceOnUse" gradientTransform="translate(12.884 18.1934) rotate(116.591) scale(8.11144 7.02992)">
<stop stop-color="#454545"/>
<stop offset="1" stop-color="#363636"/>
</radialGradient>
<radialGradient id="paint2_radial_8406_1777" cx="0" cy="0" r="1" gradientTransform="matrix(-1.11716 7.57974 -1.93426 -3.2882 26.8837 17.0787)" gradientUnits="userSpaceOnUse">
<stop stop-color="#454545"/>
<stop offset="1" stop-color="#363636"/>
</radialGradient>
<radialGradient id="paint3_radial_8406_1777" cx="0" cy="0" r="1" gradientTransform="matrix(-7.25348 0.83787 3.14667 1.4507 16.8835 5.52539)" gradientUnits="userSpaceOnUse">
<stop stop-color="#454545"/>
<stop offset="1" stop-color="#363636"/>
</radialGradient>
</defs>
</svg>
