<svg width="137" height="84" viewBox="0 0 137 84" fill="none" xmlns="http://www.w3.org/2000/svg">
<path d="M9.83911 12.4848V9.68477L16.8141 8.10976V25.8848H13.8891V11.3598L9.83911 12.4848Z" fill="#CED2FF"/>
<path d="M9.83911 12.4848V9.68477L16.8141 8.10976V25.8848H13.8891V11.3598L9.83911 12.4848Z" fill="#FFC814"/>
<rect x="34.2558" y="13.5255" width="53.2383" height="6.71906" rx="3.35953" fill="#FFC814" stroke="#FFC814" stroke-width="2.74248"/>
<rect x="98.2365" y="13.5255" width="21.6998" height="6.71906" rx="3.35953" fill="#FFC814" stroke="#FFC814" stroke-width="2.74248"/>
<path d="M8.6205 50.7109L14.5785 44.3569C14.8545 44.0569 15.0885 43.7629 15.2805 43.4749C15.4845 43.1749 15.6345 42.8749 15.7305 42.5749C15.8385 42.2629 15.8925 41.9389 15.8925 41.6029C15.8925 41.3269 15.8385 41.0569 15.7305 40.7929C15.6225 40.5289 15.4605 40.2889 15.2445 40.0729C15.0405 39.8569 14.7885 39.6829 14.4885 39.5509C14.1885 39.4189 13.8465 39.3529 13.4625 39.3529C12.9225 39.3529 12.4545 39.4789 12.0585 39.7309C11.6745 39.9709 11.3805 40.3249 11.1765 40.7929C10.9725 41.2489 10.8705 41.7949 10.8705 42.4309H9.3405C9.3405 41.5309 9.5025 40.7449 9.8265 40.0729C10.1505 39.3889 10.6185 38.8609 11.2305 38.4889C11.8545 38.1049 12.5985 37.9129 13.4625 37.9129C14.1585 37.9129 14.7585 38.0329 15.2625 38.2729C15.7665 38.5009 16.1805 38.8009 16.5045 39.1729C16.8285 39.5329 17.0685 39.9229 17.2245 40.3429C17.3805 40.7629 17.4585 41.1649 17.4585 41.5489C17.4585 42.1969 17.3025 42.8389 16.9905 43.4749C16.6785 44.1109 16.2765 44.6809 15.7845 45.1849L11.7705 49.2709H17.5125V50.7109H8.6205Z" fill="#CED2FF"/>
<rect x="33.1561" y="41.5616" width="41.9764" height="5.29772" rx="2.64886" fill="#CED2FF" stroke="#CED2FF" stroke-width="2.16234"/>
<rect x="86.6197" y="41.5616" width="17.1095" height="5.29772" rx="2.64886" fill="#CED2FF" stroke="#CED2FF" stroke-width="2.16234"/>
<path d="M12.5254 69.3291V68.3391C12.9334 68.3391 13.2934 68.2851 13.6054 68.1771C13.9174 68.0571 14.1814 67.9011 14.3974 67.7091C14.6134 67.5051 14.7754 67.2711 14.8834 67.0071C15.0034 66.7431 15.0634 66.4611 15.0634 66.1611C15.0634 65.7651 14.9914 65.4171 14.8474 65.1171C14.7034 64.8051 14.4874 64.5651 14.1994 64.3971C13.9234 64.2291 13.5754 64.1451 13.1554 64.1451C12.5674 64.1451 12.0694 64.3311 11.6614 64.7031C11.2534 65.0631 11.0494 65.5191 11.0494 66.0711H9.59144C9.59144 65.4111 9.74144 64.8351 10.0414 64.3431C10.3534 63.8511 10.7734 63.4671 11.3014 63.1911C11.8414 62.9031 12.4534 62.7591 13.1374 62.7591C13.8574 62.7591 14.4754 62.9151 14.9914 63.2271C15.5194 63.5391 15.9214 63.9471 16.1974 64.4511C16.4854 64.9551 16.6294 65.5071 16.6294 66.1071C16.6294 66.6951 16.4554 67.2351 16.1074 67.7271C15.7594 68.2191 15.2794 68.6091 14.6674 68.8971C14.0554 69.1851 13.3414 69.3291 12.5254 69.3291ZM13.0654 75.7191C12.4534 75.7191 11.9014 75.6291 11.4094 75.4491C10.9174 75.2691 10.4974 75.0231 10.1494 74.7111C9.80144 74.3871 9.53144 74.0151 9.33944 73.5951C9.14744 73.1631 9.05144 72.7011 9.05144 72.2091H10.5994C10.5994 72.6051 10.7014 72.9591 10.9054 73.2711C11.1214 73.5831 11.4154 73.8291 11.7874 74.0091C12.1594 74.1891 12.5854 74.2791 13.0654 74.2791C13.5454 74.2791 13.9594 74.1891 14.3074 74.0091C14.6674 73.8171 14.9434 73.5531 15.1354 73.2171C15.3274 72.8811 15.4234 72.4851 15.4234 72.0291C15.4234 71.6451 15.3454 71.3091 15.1894 71.0211C15.0454 70.7211 14.8414 70.4751 14.5774 70.2831C14.3134 70.0791 14.0074 69.9291 13.6594 69.8331C13.3114 69.7371 12.9334 69.6891 12.5254 69.6891V68.6991C13.1374 68.6991 13.7074 68.7651 14.2354 68.8971C14.7754 69.0291 15.2494 69.2391 15.6574 69.5271C16.0774 69.8031 16.4014 70.1631 16.6294 70.6071C16.8694 71.0511 16.9894 71.5851 16.9894 72.2091C16.9894 72.9171 16.8154 73.5351 16.4674 74.0631C16.1314 74.5911 15.6694 74.9991 15.0814 75.2871C14.4934 75.5751 13.8214 75.7191 13.0654 75.7191Z" fill="#CED2FF"/>
<rect x="33.1561" y="66.3898" width="41.9764" height="5.29772" rx="2.64886" fill="#CED2FF" stroke="#CED2FF" stroke-width="2.16234"/>
<rect x="86.6197" y="66.3898" width="17.1095" height="5.29772" rx="2.64886" fill="#CED2FF" stroke="#CED2FF" stroke-width="2.16234"/>
</svg>
