<svg width="700" height="400" viewBox="0 0 700 400" fill="none" xmlns="http://www.w3.org/2000/svg">
<g clip-path="url(#clip0_8251_1226)">
<path d="M730 73.5508H-31V327.175H730V73.5508Z" fill="#FFC100"/>
<path d="M730 318.479H-31V400H730V318.479Z" fill="#C60B1C"/>
<path d="M730 0H-31V81.5217H730V0Z" fill="#C60B1A"/>
<g clip-path="url(#clip1_8251_1226)">
<path fill-rule="evenodd" clip-rule="evenodd" d="M161.963 283.696C154.686 279.706 149.876 271.576 149.876 262.313V172.162H240.582V262.313C240.582 271.576 235.761 279.706 228.484 283.696C197.899 292.99 193.186 294.561 161.963 283.696Z" fill="white"/>
<path fill-rule="evenodd" clip-rule="evenodd" d="M240.593 228.518V262.171C240.593 275.454 230.386 286.189 217.859 286.189C205.332 286.189 195.153 275.454 195.153 262.171V228.518H240.593Z" fill="#C60B1A"/>
<path fill-rule="evenodd" clip-rule="evenodd" d="M195.345 172.135V262.11C195.345 275.394 185.138 286.129 172.611 286.129C160.084 286.129 149.905 275.394 149.905 262.11V172.135H195.345Z" fill="#C60B1A"/>
<path fill-rule="evenodd" clip-rule="evenodd" d="M195.352 228.518H190.34V277.227C193.472 273.162 195.352 267.858 195.352 262.171V228.518Z" fill="#FFE06D"/>
<path fill-rule="evenodd" clip-rule="evenodd" d="M149.876 228.518V262.171C149.876 267.858 151.796 273.162 154.927 277.269V228.518H149.876Z" fill="#FFE06D"/>
<path fill-rule="evenodd" clip-rule="evenodd" d="M160.025 228.518V282.157L165.076 284.868V228.518H160.025Z" fill="#FFE06D"/>
<path fill-rule="evenodd" clip-rule="evenodd" d="M180.199 228.518V284.868L185.25 282.157V228.518H180.199Z" fill="#FFE06D"/>
<path fill-rule="evenodd" clip-rule="evenodd" d="M170.094 228.518V286.038L172.613 286.189L175.145 286.038V228.518H170.094Z" fill="#FFE06D"/>
<path fill-rule="evenodd" clip-rule="evenodd" d="M196.163 289.308L200.844 286.184L206.282 286.609L202.293 289.202L196.163 289.308Z" fill="#00A08A"/>
<path fill-rule="evenodd" clip-rule="evenodd" d="M194.753 286.418H195.566L195.701 291.007L194.353 291.346L194.753 286.418Z" fill="#00A08A"/>
<path fill-rule="evenodd" clip-rule="evenodd" d="M184.233 286.367L188.282 289.078L194.79 289.28L189.831 285.951L184.233 286.367Z" fill="#00A08A"/>
<path fill-rule="evenodd" clip-rule="evenodd" d="M197.275 277.784L197.676 276.166L196.122 277.09L195.242 275.656L194.174 276.9L192.56 276.552L193.158 277.739C191.509 278.16 190.376 279.22 190.376 281.32C190.376 284.184 192.53 286.504 195.189 286.504C197.847 286.504 200.001 284.184 200.001 281.32C200.001 279.286 198.876 278.233 197.278 277.786L197.275 277.784Z" fill="#F5D6A5"/>
<path fill-rule="evenodd" clip-rule="evenodd" d="M195.118 277.982C195.118 277.982 193.624 279.492 193.597 281.636C193.597 281.636 193.715 283.775 195.079 285.25C195.079 285.25 196.638 283.844 196.749 281.413C196.749 281.413 196.418 278.937 195.118 277.982Z" fill="#AE333A"/>
<path fill-rule="evenodd" clip-rule="evenodd" d="M220.385 276.333L218.608 274.563V257.884L227.393 269.141L226.992 270.721L227.393 272.299L220.385 276.333ZM217.119 274.563L215.333 276.333L208.337 272.386L208.765 270.721L208.364 269.141L217.121 257.929V274.563H217.119ZM206.004 267.637L205.365 267.754L204.084 261.011V258.493L205.87 256.497H216.181L207.216 267.977L206.004 267.637ZM204.084 240.087L204.552 239.852L216.211 254.8H205.907L204.082 252.689V240.087H204.084ZM215.266 238.091L217.119 240.12V253.373L205.632 238.658L205.87 238.091H215.266ZM218.608 240.12L220.461 238.091H229.885L230.096 238.658L218.608 253.373V240.12ZM229.753 267.639L228.511 267.98L219.546 256.5H229.781L231.643 258.526V261.011L230.325 267.754L229.753 267.637V267.639ZM231.205 239.852L231.645 240.042V252.686L229.755 254.797H219.546L231.205 239.849V239.852ZM233.162 252.689V240.12L235.214 237.186L232.511 234.104L229.855 236.281H220.489L217.865 234.104L215.229 236.281H205.872L203.248 234.104L200.518 237.186L202.542 240.12V252.689L200.518 255.634L202.542 258.526V261.011L204.061 268.619L203.279 270.721L206.009 273.773L207.125 273.505C209.312 275.919 212.07 277.497 215.164 278.061L217.867 280.549L220.561 278.061C223.625 277.497 226.422 275.842 228.581 273.505L229.758 273.773L232.488 270.721L231.677 268.619L233.167 261.011V258.526L235.152 255.634L233.167 252.689H233.162Z" fill="#FFC100"/>
<path fill-rule="evenodd" clip-rule="evenodd" d="M221.957 238.521L222.969 239.532H227.179L228.219 238.521V235.916L227.179 234.83H222.969L221.957 235.916V238.521Z" fill="#FFC100"/>
<path fill-rule="evenodd" clip-rule="evenodd" d="M222.88 238.37H227.319V236.078H222.88V238.37Z" fill="#FF1012"/>
<path fill-rule="evenodd" clip-rule="evenodd" d="M222.313 256.896L223.314 257.987H227.563L228.538 256.896V254.338L227.563 253.322H223.314L222.313 254.338V256.896Z" fill="#FFC100"/>
<path fill-rule="evenodd" clip-rule="evenodd" d="M223.215 256.748H227.627V254.486H223.215V256.748Z" fill="#FF1012"/>
<path fill-rule="evenodd" clip-rule="evenodd" d="M207.148 256.896L208.16 257.987H212.371L213.41 256.896V254.338L212.371 253.322H208.16L207.148 254.338V256.896Z" fill="#FFC100"/>
<path fill-rule="evenodd" clip-rule="evenodd" d="M208.049 256.748H212.461V254.486H208.049V256.748Z" fill="#FF1012"/>
<path fill-rule="evenodd" clip-rule="evenodd" d="M233.547 249.77L234.522 248.682V243.902L233.547 242.738H231.257L230.31 243.902V248.682L231.257 249.77H233.547Z" fill="#FFC100"/>
<path fill-rule="evenodd" clip-rule="evenodd" d="M233.445 248.772V243.842H231.393V248.772H233.445Z" fill="#FF1012"/>
<path fill-rule="evenodd" clip-rule="evenodd" d="M204.478 249.77L205.425 248.682V243.902L204.478 242.738H202.187L201.252 243.902V248.682L202.187 249.77H204.478Z" fill="#FFC100"/>
<path fill-rule="evenodd" clip-rule="evenodd" d="M204.38 248.772V243.842H202.328V248.772H204.38Z" fill="#FF1012"/>
<path fill-rule="evenodd" clip-rule="evenodd" d="M204.478 266.576L205.425 265.442V260.705L204.478 259.574H202.187L201.252 260.705V265.442L202.187 266.576H204.478Z" fill="#FFC100"/>
<path fill-rule="evenodd" clip-rule="evenodd" d="M204.38 265.594V260.621H202.328V265.594H204.38Z" fill="#FF1012"/>
<path fill-rule="evenodd" clip-rule="evenodd" d="M233.547 266.576L234.522 265.442V260.705L233.547 259.574H231.257L230.31 260.705V265.442L231.257 266.576H233.547Z" fill="#FFC100"/>
<path fill-rule="evenodd" clip-rule="evenodd" d="M233.445 265.594V260.621H231.393V265.594H233.445Z" fill="#FF1012"/>
<path fill-rule="evenodd" clip-rule="evenodd" d="M219 268.929L219.945 267.765V263.061L219 261.963H216.71L215.763 263.061V267.765L216.71 268.929H219Z" fill="#FFC100"/>
<path fill-rule="evenodd" clip-rule="evenodd" d="M218.86 267.877V262.949H216.817V267.877H218.86Z" fill="#FF1012"/>
<path fill-rule="evenodd" clip-rule="evenodd" d="M219 249.039L219.945 247.906V243.199L219 242.07H216.71L215.763 243.199V247.906L216.71 249.039H219Z" fill="#FFC100"/>
<path fill-rule="evenodd" clip-rule="evenodd" d="M218.86 248.019V243.059H216.817V248.019H218.86Z" fill="#FF1012"/>
<path fill-rule="evenodd" clip-rule="evenodd" d="M215.399 250.541L215.464 248.994L212.706 245.462L211.33 245.27L209.575 246.967L209.547 248.505L212.305 252.045L213.679 252.24L215.399 250.541Z" fill="#FFC100"/>
<path fill-rule="evenodd" clip-rule="evenodd" d="M214.723 249.867L211.819 246.143L210.274 247.647L213.176 251.414L214.723 249.867Z" fill="#FF1012"/>
<path fill-rule="evenodd" clip-rule="evenodd" d="M222.002 252.24L223.378 252.045L226.178 248.505L226.109 246.967L224.362 245.27L222.977 245.462L220.219 248.994L220.284 250.541L222.002 252.24Z" fill="#FFC100"/>
<path fill-rule="evenodd" clip-rule="evenodd" d="M222.537 251.414L225.439 247.647L223.882 246.143L220.99 249.867L222.537 251.414Z" fill="#FF1012"/>
<path fill-rule="evenodd" clip-rule="evenodd" d="M215.399 260.679L215.464 262.258L212.706 265.802L211.33 265.952L209.575 264.264L209.547 262.715L212.305 259.174L213.679 259.023L215.399 260.679Z" fill="#FFC100"/>
<path fill-rule="evenodd" clip-rule="evenodd" d="M214.723 261.343L211.819 265.109L210.274 263.604L213.176 259.838L214.723 261.343Z" fill="#FF1012"/>
<path fill-rule="evenodd" clip-rule="evenodd" d="M222.002 259.023L223.378 259.174L226.178 262.715L226.109 264.264L224.362 265.952L222.977 265.802L220.219 262.258L220.284 260.679L222.002 259.023Z" fill="#FFC100"/>
<path fill-rule="evenodd" clip-rule="evenodd" d="M222.537 259.838L225.439 263.604L223.882 265.109L220.99 261.343L222.537 259.838Z" fill="#FF1012"/>
<path fill-rule="evenodd" clip-rule="evenodd" d="M222.332 278.374L223.678 278.791L227.421 276.613L227.861 275.142L226.809 272.847L225.463 272.4L221.691 274.648L221.281 276.08L222.332 278.374Z" fill="#FFC100"/>
<path fill-rule="evenodd" clip-rule="evenodd" d="M223.078 277.78L227.011 275.486L226.036 273.447L222.131 275.742L223.078 277.78Z" fill="#FF1012"/>
<path fill-rule="evenodd" clip-rule="evenodd" d="M213.408 278.374L212.063 278.791L208.329 276.613L207.889 275.142L208.929 272.847L210.277 272.4L214.01 274.648L214.487 276.08L213.408 278.374Z" fill="#FFC100"/>
<path fill-rule="evenodd" clip-rule="evenodd" d="M212.671 277.78L208.754 275.486L209.702 273.447L213.604 275.742L212.671 277.78Z" fill="#FF1012"/>
<path fill-rule="evenodd" clip-rule="evenodd" d="M213.718 238.521L212.706 239.532H208.465L207.453 238.521V235.916L208.465 234.83H212.706L213.718 235.916V238.521Z" fill="#FFC100"/>
<path fill-rule="evenodd" clip-rule="evenodd" d="M212.766 238.37H208.354V236.078H212.766V238.37Z" fill="#FF1012"/>
<rect x="216.788" y="254.689" width="2.15331" height="2.15332" fill="#00AD06"/>
<path fill-rule="evenodd" clip-rule="evenodd" d="M254.977 266.806H268.592V187.211H254.977V266.806Z" fill="white"/>
<path d="M271.66 278.351H252.176V272.429L253.716 270.882V269.267L253.114 268.661L253.917 267.854H269.651L270.455 268.661L269.852 269.267V270.882L271.66 272.429V278.351Z" fill="#FDE89B"/>
<path d="M252.176 174.643L271.593 174.643L271.593 181.248L270.058 182.974L270.058 184.775L270.659 185.451L269.858 186.352L254.178 186.352L253.377 185.451L253.978 184.775L253.978 182.974L252.176 181.248L252.176 174.643Z" fill="#FDE89B"/>
<path d="M240.93 210.256V220.282C241.8 219.34 244.411 218.6 246.821 218.129C249.232 217.658 257.735 217.052 263.761 218.129C268.581 218.99 271.84 220.865 272.866 221.695C269.452 222.032 261.484 222.933 256.931 223.849C252.379 224.764 250.392 226.204 249.968 226.809L248.964 234.75C248.919 234.84 249.218 235.382 250.772 236.836C252.713 238.653 255.458 240.066 258.739 242.085C262.02 244.103 267.845 246.728 270.188 247.939C272.063 248.908 273.915 250.272 274.607 250.832C274.518 250.877 274.165 251.303 273.469 252.649C272.772 253.995 272.822 255.094 272.933 255.475L273.972 261.347C273.968 261.444 273.982 261.504 274.004 261.532L273.972 261.347C273.984 261.054 274.165 260.415 274.808 259.244C275.665 257.683 277.263 255.274 277.955 254.264L279.227 245.853C279.204 245.808 279.039 245.57 278.557 244.978C277.955 244.238 276.75 243.363 275.544 242.623C274.339 241.883 271.259 240.335 267.175 238.316C263.908 236.701 259.208 233.83 257.266 232.596C260.011 232.081 266.492 230.86 270.456 230.107C274.42 229.353 276.705 227.684 277.352 226.944L280.834 218.062C281.012 217.994 280.941 217.308 279.227 215.101C277.084 212.342 270.456 209.112 259.007 208.237C249.848 207.537 243.139 209.291 240.93 210.256Z" fill="#C60B1A"/>
<path d="M246.6 279.897V289.847C247.298 289.148 249.637 287.752 253.407 287.752C258.12 287.752 257.596 289.323 261.262 289.323C264.927 289.323 264.927 287.752 269.117 287.752C272.468 287.752 275.4 288.799 276.448 289.323V279.897C275.4 279.199 272.468 277.803 269.117 277.803C264.927 277.803 264.404 279.374 261.262 279.374C258.12 279.374 257.073 277.803 253.407 277.803C250.475 277.803 247.647 279.199 246.6 279.897Z" fill="#005BBF"/>
<path d="M246.6 281.468V283.562C247.298 282.864 249.637 281.468 253.407 281.468C258.12 281.468 257.596 283.039 261.262 283.039C264.927 283.039 264.927 281.468 269.117 281.468C272.468 281.468 275.4 282.515 276.448 283.039V281.468C275.4 280.769 272.468 279.373 269.117 279.373C264.927 279.373 264.404 280.944 261.262 280.944C258.12 280.944 257.073 279.373 253.407 279.373C250.475 279.373 247.647 280.769 246.6 281.468Z" fill="white"/>
<path d="M246.599 285.659V287.754C247.297 287.055 249.636 285.659 253.407 285.659C258.119 285.659 257.596 287.23 261.261 287.23C264.927 287.23 264.927 285.659 269.116 285.659C272.467 285.659 275.4 286.706 276.447 287.23V285.659C275.4 284.961 272.467 283.564 269.116 283.564C264.927 283.564 264.403 285.135 261.261 285.135C258.119 285.135 257.072 283.564 253.407 283.564C250.474 283.564 247.646 284.961 246.599 285.659Z" fill="white"/>
<path fill-rule="evenodd" clip-rule="evenodd" d="M253.015 209.58L251.816 216.48L250.229 216.623L248.113 210.108L249.903 209.913L251.443 214.847L252.372 209.638L253.015 209.58Z" fill="#FFC100"/>
<path fill-rule="evenodd" clip-rule="evenodd" d="M255.685 209.54L255.749 215.601L258.204 215.542L258.225 216.227L254.014 216.31L253.929 209.531L255.685 209.54Z" fill="#FFC100"/>
<path fill-rule="evenodd" clip-rule="evenodd" d="M263.478 210.04L263.435 210.712L261.95 210.53L261.343 216.546L259.496 216.344L260.102 210.295L258.624 210.154L258.678 209.442L263.478 210.04Z" fill="#FFC100"/>
<path fill-rule="evenodd" clip-rule="evenodd" d="M265.693 213.553L266.027 213.636L267.231 212.767L266.517 211.354L266.146 211.268L265.693 213.553ZM263.231 216.818L264.584 210.252L267.102 210.876L268.601 211.7L268.905 213.104L267.329 214.35L268.045 215.189L268.053 216.468L268.084 218.059L266.243 217.526L266.305 216.398L266.382 215.981L266.46 215.492L265.882 214.124L265.578 214.042L264.934 217.188L263.231 216.818Z" fill="#FFC100"/>
<path fill-rule="evenodd" clip-rule="evenodd" d="M270.035 216.53L271.435 217.098L271.676 214.007L270.035 216.53ZM273.355 212.925L272.958 219.917L271.293 219.273L271.383 217.737L269.687 217.134L268.888 218.355L268.215 218.114L271.917 212.401L273.355 212.925Z" fill="#FFC100"/>
<path fill-rule="evenodd" clip-rule="evenodd" d="M268.906 171.594L269.772 170.178L270.382 170.081L271.927 168.596L272.924 167.326L273.02 165.921L271.581 164.648C270.667 164.194 269.738 163.96 269.105 163.999L267.518 163.93L265.564 163.369C264.668 162.951 263.357 162.717 261.814 162.717C260.271 162.717 258.957 162.951 258.071 163.369L256.12 163.93L254.521 163.999C253.888 163.96 252.975 164.194 252.055 164.648L250.615 165.921L250.708 167.326L251.707 168.596L253.253 170.081L253.853 170.178L254.729 171.594H268.906Z" fill="#C60B1A"/>
<path fill-rule="evenodd" clip-rule="evenodd" d="M250.6 167.367L251.191 166.253C251.191 166.253 249.896 164.876 250.868 163.594C251.857 162.313 253.159 162.274 253.526 162.256L255.531 162.294L255.713 161.936C255.713 161.936 253.993 161.46 252.508 161.898C251.032 162.325 250.321 163.187 249.957 164.128L249.74 165.536L250.599 167.368L250.6 167.367Z" fill="#FDE89B"/>
<path fill-rule="evenodd" clip-rule="evenodd" d="M256.394 165.703L256.864 164.821C256.864 164.821 255.45 163.849 256.134 162.287C256.82 160.717 259.478 160.387 260.961 161.482L261.023 161.017C261.023 161.017 259.667 160.173 258.469 160.415C257.27 160.648 256.707 160.959 256.343 161.258C255.989 161.569 255.179 162.006 255.083 163.511C254.997 164.712 255.934 165.284 256.394 165.702V165.703Z" fill="#FDE89B"/>
<path fill-rule="evenodd" clip-rule="evenodd" d="M273.036 167.367L272.438 166.253C272.438 166.253 273.74 164.876 272.758 163.594C271.779 162.313 270.474 162.274 270.11 162.256L268.097 162.294L267.915 161.936C267.915 161.936 269.632 161.46 271.126 161.898C272.593 162.325 273.304 163.187 273.671 164.128L273.894 165.536L273.036 167.368L273.036 167.367Z" fill="#FDE89B"/>
<path fill-rule="evenodd" clip-rule="evenodd" d="M267.24 165.711L266.77 164.828C266.77 164.828 268.185 163.857 267.498 162.295C266.814 160.725 264.149 160.395 262.673 161.489L262.604 161.025C262.604 161.025 263.957 160.181 265.162 160.422C266.361 160.656 266.924 160.967 267.281 161.266C267.645 161.577 268.445 162.014 268.548 163.519C268.627 164.72 267.689 165.292 267.239 165.709L267.24 165.711Z" fill="#FDE89B"/>
<path fill-rule="evenodd" clip-rule="evenodd" d="M261.814 165.923L263.099 164.603L262.786 162.819L262.518 160.489L261.814 160.189L261.12 160.489L260.842 162.819L260.537 164.603L261.814 165.923Z" fill="#FDE89B"/>
<path fill-rule="evenodd" clip-rule="evenodd" d="M262.682 159.048C262.682 159.621 262.28 160.086 261.785 160.086C261.289 160.086 260.888 159.621 260.888 159.048C260.888 158.474 261.289 158.01 261.785 158.01C262.28 158.01 262.682 158.474 262.682 159.048Z" fill="#145DAA"/>
<path fill-rule="evenodd" clip-rule="evenodd" d="M262.1 158.963V157.277H262.894V156.545H262.1V155.793H261.468V156.545H260.675V157.277H261.468V158.963H260.478L260.675 159.475H262.894L263.136 158.963H262.1Z" fill="#FDE89B"/>
<path fill-rule="evenodd" clip-rule="evenodd" d="M249.859 167.867L250.666 167.993L251.229 168.718L251.63 168.573L251.984 168.991L253.313 168.953L253.018 168.631L253.625 168.031L252.739 167.904L252.722 167.536L251.654 168.465L251.187 167.118L251.135 167.398C251.135 167.398 250.606 167.003 250.523 167.091C250.418 167.203 250.048 167.575 249.858 167.866L249.859 167.867Z" fill="#FDE89B"/>
<path fill-rule="evenodd" clip-rule="evenodd" d="M273.803 167.868L272.986 167.994L272.43 168.72L272.021 168.574L271.667 168.992L270.348 168.954L270.643 168.632L270.025 168.033L270.918 167.905L270.928 167.537L272.004 168.467L272.474 167.119L272.525 167.4C272.525 167.4 273.061 167.02 273.118 167.086C273.241 167.229 273.566 167.531 273.802 167.867L273.803 167.868Z" fill="#FDE89B"/>
<path fill-rule="evenodd" clip-rule="evenodd" d="M261.83 168.713L263.115 169.508L264.459 169.021L265.684 169.701L266.959 169.11L267.95 170.023L269.262 169.866C269.262 169.866 269.469 170.46 270.31 170.537C271.136 170.603 271.941 168.945 271.941 168.945C271.943 168.945 271.36 169.946 270.31 170.042C269.252 170.149 269.564 168.714 269.564 168.714C269.564 168.714 269.077 169.993 268.019 169.547C266.958 169.11 267.438 167.955 267.438 167.955L267.246 167.451L266.882 167.859C266.882 167.859 266.872 169.344 265.657 169.187C264.459 169.022 264.564 167.724 264.564 167.724C264.564 167.724 264.234 169.198 263.088 168.956C261.944 168.714 261.941 167.617 262.099 167.364L261.831 166.869L261.56 167.364C261.708 167.617 261.718 168.714 260.571 168.956C259.427 169.198 259.095 167.724 259.095 167.724C259.097 167.724 259.201 169.021 257.992 169.187C256.787 169.344 256.769 167.859 256.769 167.859L256.412 167.451L256.223 167.955C256.223 167.955 256.691 169.11 255.64 169.547C254.582 169.993 254.095 168.714 254.095 168.714C254.097 168.714 254.408 170.149 253.349 170.042C252.292 169.946 251.708 168.945 251.708 168.945C251.708 168.945 252.507 170.603 253.349 170.537C254.184 170.46 254.4 169.866 254.4 169.866L255.702 170.023L256.691 169.11L257.968 169.701L259.202 169.021L260.548 169.508L261.832 168.713H261.83Z" fill="#FDE89B"/>
<path d="M253.7 170.522L253.561 170.886C253.792 170.973 254.3 171.254 254.48 171.684C254.66 172.114 254.486 172.649 254.376 172.863L254.584 173.331C255.839 173.666 259.041 174.337 261.816 174.337C264.59 174.337 267.758 173.666 268.995 173.331L269.221 172.863C269.169 172.632 269.096 172.072 269.221 171.684C269.345 171.295 269.851 170.978 270.088 170.869L270.001 170.539C268.914 170.158 265.756 169.395 261.816 169.395C257.876 169.395 254.763 170.146 253.7 170.522Z" fill="#FDE89B"/>
<path d="M261.814 171.98C259.108 171.897 256.305 172.535 255.241 172.864C256.345 173.177 259.206 173.801 261.814 173.801C264.422 173.801 267.363 173.177 268.508 172.864C267.403 172.604 264.519 172.063 261.814 171.98Z" fill="#C60B1A"/>
<path fill-rule="evenodd" clip-rule="evenodd" d="M256.121 167.785L255.043 168.472L255.07 168.134L254.271 167.862L254.982 167.301L254.783 166.971L256.016 167.194L255.332 166.039L255.772 166.066L256.042 165.176L256.544 165.893L256.98 165.728L256.719 167.048L257.778 166.408L257.752 166.746L258.567 167.018L257.898 167.59L258.083 167.911L256.832 167.689L256.85 167.301L256.373 166.971L255.974 167.436L256.121 167.785Z" fill="#FDE89B"/>
<path fill-rule="evenodd" clip-rule="evenodd" d="M267.533 167.785L268.609 168.472L268.591 168.134L269.381 167.862L268.677 167.301L268.877 166.971L267.643 167.194L268.323 166.039L267.888 166.066L267.62 165.176L267.115 165.893L266.681 165.728L266.933 167.048L265.882 166.408L265.909 166.746L265.092 167.018L265.752 167.59L265.579 167.911L266.829 167.689L266.802 167.301L267.289 166.971L267.688 167.436L267.533 167.785Z" fill="#FDE89B"/>
<path fill-rule="evenodd" clip-rule="evenodd" d="M261.83 166.411L262.446 166.876L262.247 167.333L263.661 167.808L263.521 167.409L264.426 166.955L263.565 166.461L263.705 166.013L262.387 166.537L262.888 165.16L262.359 165.325L261.83 164.285L261.301 165.325L260.77 165.16L261.274 166.537L259.955 166.013L260.083 166.461L259.225 166.955L260.128 167.409L259.997 167.808L261.404 167.333L261.205 166.876L261.83 166.411Z" fill="#FDE89B"/>
<ellipse cx="251.564" cy="168.925" rx="0.468224" ry="0.468225" fill="white"/>
<ellipse cx="272.165" cy="168.925" rx="0.468224" ry="0.468225" fill="white"/>
<ellipse cx="267.311" cy="167.465" rx="0.572274" ry="0.572276" fill="white"/>
<ellipse cx="256.351" cy="167.465" rx="0.572274" ry="0.572276" fill="white"/>
<ellipse cx="261.831" cy="166.915" rx="0.780373" ry="0.780376" fill="white"/>
<path fill-rule="evenodd" clip-rule="evenodd" d="M136.29 270.849H122.75V187.398H136.29V270.849Z" fill="white"/>
<path d="M119.733 282.314H139.315V276.392L137.767 274.845V273.23L138.373 272.624L137.565 271.816H121.752L120.944 272.624L121.55 273.23V274.845L119.733 276.392V282.314Z" fill="#FDE89B"/>
<path d="M139.319 174.643L119.804 174.643L119.804 181.248L121.347 182.974L121.347 184.775L120.743 185.451L121.548 186.352L137.307 186.352L138.112 185.451L137.508 184.775L137.508 182.974L139.319 181.248L139.319 174.643Z" fill="#FDE89B"/>
<path d="M150.622 210.256V220.282C149.747 219.34 147.123 218.6 144.7 218.129C142.278 217.658 133.732 217.052 127.676 218.129C122.831 218.99 119.556 220.865 118.524 221.695C121.956 222.032 129.964 222.933 134.539 223.849C139.115 224.764 141.112 226.204 141.538 226.809L142.547 234.75C142.592 234.84 142.291 235.382 140.73 236.836C138.779 238.653 136.02 240.066 132.723 242.085C129.425 244.103 123.571 246.728 121.216 247.939C119.332 248.908 117.47 250.272 116.775 250.832C116.864 250.877 117.219 251.303 117.919 252.649C118.618 253.995 118.569 255.094 118.457 255.475L117.413 261.347C117.417 261.444 117.403 261.504 117.38 261.532L117.413 261.347C117.401 261.054 117.219 260.415 116.573 259.244C115.711 257.683 114.105 255.274 113.41 254.264L112.132 245.853C112.154 245.808 112.32 245.57 112.804 244.978C113.41 244.238 114.621 243.363 115.833 242.623C117.044 241.883 120.139 240.335 124.244 238.316C127.528 236.701 132.252 233.83 134.203 232.596C131.444 232.081 124.93 230.86 120.947 230.107C116.963 229.353 114.666 227.684 114.016 226.944L110.517 218.062C110.337 217.994 110.409 217.308 112.132 215.101C114.285 212.342 120.947 209.112 132.453 208.237C141.659 207.537 148.401 209.291 150.622 210.256Z" fill="#C60B1A"/>
<path d="M114.639 279.897V289.847C115.337 289.148 117.676 287.752 121.446 287.752C126.159 287.752 125.635 289.323 129.301 289.323C132.966 289.323 132.966 287.752 137.156 287.752C140.507 287.752 143.439 288.799 144.487 289.323V279.897C143.439 279.199 140.507 277.803 137.156 277.803C132.966 277.803 132.443 279.374 129.301 279.374C126.159 279.374 125.112 277.803 121.446 277.803C118.514 277.803 115.686 279.199 114.639 279.897Z" fill="#005BBF"/>
<path d="M114.639 281.468V283.562C115.337 282.864 117.676 281.468 121.446 281.468C126.159 281.468 125.635 283.039 129.301 283.039C132.966 283.039 132.966 281.468 137.156 281.468C140.507 281.468 143.439 282.515 144.487 283.039V281.468C143.439 280.769 140.507 279.373 137.156 279.373C132.966 279.373 132.443 280.944 129.301 280.944C126.159 280.944 125.112 279.373 121.446 279.373C118.514 279.373 115.686 280.769 114.639 281.468Z" fill="white"/>
<path d="M114.639 285.659V287.754C115.337 287.055 117.676 285.659 121.446 285.659C126.159 285.659 125.635 287.23 129.301 287.23C132.966 287.23 132.966 285.659 137.156 285.659C140.507 285.659 143.439 286.706 144.487 287.23V285.659C143.439 284.961 140.507 283.564 137.156 283.564C132.966 283.564 132.443 285.135 129.301 285.135C126.159 285.135 125.112 283.564 121.446 283.564C118.514 283.564 115.686 284.961 114.639 285.659Z" fill="white"/>
<path fill-rule="evenodd" clip-rule="evenodd" d="M125.099 214.079L125.534 214.028L126.191 212.333L124.981 211.179L124.583 211.312L125.099 214.079ZM123.998 217.968L122.689 211.123L125.304 210.459L127.993 211.886L125.856 214.563L125.246 214.726L125.795 217.61L123.998 217.966L123.998 217.968Z" fill="#FFC100"/>
<path fill-rule="evenodd" clip-rule="evenodd" d="M130.774 209.532L131.344 215.846L133.911 215.505L133.967 216.262L129.557 216.729L128.958 209.729L130.774 209.532Z" fill="#FFC100"/>
<path fill-rule="evenodd" clip-rule="evenodd" d="M138.899 209.122L137.089 216.191L135.46 216.247L133.771 209.187L135.608 209.148L136.86 214.518L138.226 209.147L138.899 209.122Z" fill="#FFC100"/>
<path fill-rule="evenodd" clip-rule="evenodd" d="M144.172 211.838L143.317 211.905L143.415 211.396L142.263 209.976L141.094 210.607L142.153 211.908L144.032 214.877L143.211 216.282L141.426 216.64L139.362 214.265L139.427 213.865L140.385 213.768L140.159 214.553L141.309 216.051L142.524 215.33L141.402 213.833L139.86 211.123L140.68 209.718L142.393 209.423L144.172 211.838Z" fill="#FFC100"/>
<path fill-rule="evenodd" clip-rule="evenodd" d="M135.899 171.594L136.765 170.178L137.375 170.081L138.92 168.596L139.917 167.326L140.013 165.921L138.574 164.648C137.66 164.194 136.73 163.96 136.098 163.999L134.511 163.93L132.557 163.369C131.661 162.951 130.35 162.717 128.807 162.717C127.264 162.717 125.95 162.951 125.064 163.369L123.113 163.93L121.513 163.999C120.881 163.96 119.968 164.194 119.048 164.648L117.608 165.921L117.701 167.326L118.7 168.596L120.246 170.081L120.846 170.178L121.722 171.594H135.899Z" fill="#C60B1A"/>
<path fill-rule="evenodd" clip-rule="evenodd" d="M117.593 167.367L118.184 166.253C118.184 166.253 116.889 164.876 117.861 163.594C118.85 162.313 120.152 162.274 120.519 162.256L122.524 162.294L122.706 161.936C122.706 161.936 120.986 161.46 119.502 161.898C118.026 162.325 117.314 163.187 116.95 164.128L116.733 165.536L117.592 167.368L117.593 167.367Z" fill="#FDE89B"/>
<path fill-rule="evenodd" clip-rule="evenodd" d="M123.388 165.703L123.858 164.821C123.858 164.821 122.443 163.849 123.127 162.287C123.813 160.717 126.471 160.387 127.954 161.482L128.016 161.017C128.016 161.017 126.66 160.173 125.462 160.415C124.263 160.648 123.701 160.959 123.337 161.258C122.982 161.569 122.173 162.006 122.077 163.511C121.991 164.712 122.928 165.284 123.388 165.702V165.703Z" fill="#FDE89B"/>
<path fill-rule="evenodd" clip-rule="evenodd" d="M140.03 167.367L139.431 166.253C139.431 166.253 140.733 164.876 139.751 163.594C138.772 162.313 137.468 162.274 137.103 162.256L135.09 162.294L134.908 161.936C134.908 161.936 136.626 161.46 138.12 161.898C139.586 162.325 140.297 163.187 140.664 164.128L140.888 165.536L140.029 167.368L140.03 167.367Z" fill="#FDE89B"/>
<path fill-rule="evenodd" clip-rule="evenodd" d="M134.233 165.711L133.763 164.828C133.763 164.828 135.178 163.857 134.491 162.295C133.807 160.725 131.142 160.395 129.666 161.489L129.597 161.025C129.597 161.025 130.951 160.181 132.156 160.422C133.354 160.656 133.918 160.967 134.275 161.266C134.639 161.577 135.438 162.014 135.542 163.519C135.62 164.72 134.683 165.292 134.233 165.709L134.233 165.711Z" fill="#FDE89B"/>
<path fill-rule="evenodd" clip-rule="evenodd" d="M128.808 165.923L130.092 164.603L129.779 162.819L129.512 160.489L128.808 160.189L128.114 160.489L127.836 162.819L127.531 164.603L128.808 165.923Z" fill="#FDE89B"/>
<path fill-rule="evenodd" clip-rule="evenodd" d="M129.675 159.048C129.675 159.621 129.273 160.086 128.778 160.086C128.283 160.086 127.881 159.621 127.881 159.048C127.881 158.474 128.283 158.01 128.778 158.01C129.273 158.01 129.675 158.474 129.675 159.048Z" fill="#145DAA"/>
<path fill-rule="evenodd" clip-rule="evenodd" d="M129.093 158.963V157.277H129.887V156.545H129.093V155.793H128.461V156.545H127.668V157.277H128.461V158.963H127.47L127.668 159.475H129.887L130.129 158.963H129.093Z" fill="#FDE89B"/>
<path fill-rule="evenodd" clip-rule="evenodd" d="M116.852 167.867L117.659 167.993L118.223 168.718L118.624 168.573L118.978 168.991L120.306 168.953L120.011 168.631L120.618 168.031L119.733 167.904L119.715 167.536L118.648 168.465L118.18 167.118L118.128 167.398C118.128 167.398 117.599 167.003 117.516 167.091C117.411 167.203 117.041 167.575 116.852 167.866L116.852 167.867Z" fill="#FDE89B"/>
<path fill-rule="evenodd" clip-rule="evenodd" d="M140.796 167.868L139.979 167.994L139.422 168.72L139.014 168.574L138.659 168.992L137.34 168.954L137.635 168.632L137.018 168.033L137.911 167.905L137.921 167.537L138.997 168.467L139.466 167.119L139.518 167.4C139.518 167.4 140.054 167.02 140.11 167.086C140.234 167.229 140.559 167.531 140.795 167.867L140.796 167.868Z" fill="#FDE89B"/>
<path fill-rule="evenodd" clip-rule="evenodd" d="M128.823 168.713L130.107 169.508L131.451 169.021L132.677 169.701L133.952 169.11L134.943 170.023L136.254 169.866C136.254 169.866 136.462 170.46 137.303 170.537C138.129 170.603 138.934 168.945 138.934 168.945C138.936 168.945 138.353 169.946 137.303 170.042C136.244 170.149 136.557 168.714 136.557 168.714C136.557 168.714 136.069 169.993 135.012 169.547C133.951 169.11 134.431 167.955 134.431 167.955L134.239 167.451L133.875 167.859C133.875 167.859 133.865 169.344 132.649 169.187C131.451 169.022 131.557 167.724 131.557 167.724C131.557 167.724 131.227 169.198 130.08 168.956C128.936 168.714 128.934 167.617 129.091 167.364L128.823 166.869L128.553 167.364C128.701 167.617 128.711 168.714 127.564 168.956C126.42 169.198 126.087 167.724 126.087 167.724C126.09 167.724 126.194 169.021 124.985 169.187C123.779 169.344 123.762 167.859 123.762 167.859L123.405 167.451L123.216 167.955C123.216 167.955 123.684 169.11 122.633 169.547C121.575 169.993 121.088 168.714 121.088 168.714C121.09 168.714 121.4 170.149 120.342 170.042C119.284 169.946 118.701 168.945 118.701 168.945C118.701 168.945 119.5 170.603 120.342 170.537C121.176 170.46 121.393 169.866 121.393 169.866L122.695 170.023L123.684 169.11L124.961 169.701L126.194 169.021L127.54 169.508L128.825 168.713H128.823Z" fill="#FDE89B"/>
<path d="M120.692 170.522L120.554 170.886C120.785 170.973 121.292 171.254 121.473 171.684C121.653 172.114 121.479 172.649 121.369 172.863L121.577 173.331C122.831 173.666 126.034 174.337 128.808 174.337C131.583 174.337 134.751 173.666 135.988 173.331L136.213 172.863C136.161 172.632 136.088 172.072 136.213 171.684C136.338 171.295 136.843 170.978 137.08 170.869L136.994 170.539C135.907 170.158 132.748 169.395 128.808 169.395C124.868 169.395 121.756 170.146 120.692 170.522Z" fill="#FDE89B"/>
<path d="M128.806 171.98C126.101 171.897 123.298 172.535 122.234 172.864C123.338 173.177 126.198 173.801 128.806 173.801C131.415 173.801 134.356 173.177 135.5 172.864C134.396 172.604 131.512 172.063 128.806 171.98Z" fill="#C60B1A"/>
<path fill-rule="evenodd" clip-rule="evenodd" d="M123.114 167.785L122.036 168.472L122.063 168.134L121.263 167.862L121.975 167.301L121.775 166.971L123.008 167.194L122.324 166.039L122.764 166.066L123.035 165.176L123.537 165.893L123.973 165.728L123.712 167.048L124.77 166.408L124.745 166.746L125.56 167.018L124.891 167.59L125.075 167.911L123.825 167.689L123.842 167.301L123.365 166.971L122.966 167.436L123.114 167.785Z" fill="#FDE89B"/>
<path fill-rule="evenodd" clip-rule="evenodd" d="M134.526 167.785L135.602 168.472L135.585 168.134L136.374 167.862L135.671 167.301L135.87 166.971L134.637 167.194L135.316 166.039L134.881 166.066L134.613 165.176L134.108 165.893L133.675 165.728L133.926 167.048L132.875 166.408L132.902 166.746L132.085 167.018L132.745 167.59L132.573 167.911L133.823 167.689L133.795 167.301L134.283 166.971L134.682 167.436L134.526 167.785Z" fill="#FDE89B"/>
<path fill-rule="evenodd" clip-rule="evenodd" d="M128.822 166.411L129.438 166.876L129.239 167.333L130.654 167.808L130.513 167.409L131.419 166.955L130.557 166.461L130.698 166.013L129.379 166.537L129.881 165.16L129.352 165.325L128.822 164.285L128.294 165.325L127.762 165.16L128.267 166.537L126.948 166.013L127.075 166.461L126.217 166.955L127.12 167.409L126.989 167.808L128.397 167.333L128.197 166.876L128.822 166.411Z" fill="#FDE89B"/>
<ellipse cx="118.558" cy="168.925" rx="0.468224" ry="0.468225" fill="white"/>
<ellipse cx="139.16" cy="168.925" rx="0.468224" ry="0.468225" fill="white"/>
<ellipse cx="134.304" cy="167.465" rx="0.572274" ry="0.572276" fill="white"/>
<ellipse cx="123.344" cy="167.465" rx="0.572274" ry="0.572276" fill="white"/>
<ellipse cx="128.824" cy="166.915" rx="0.780373" ry="0.780376" fill="white"/>
<path fill-rule="evenodd" clip-rule="evenodd" d="M221.362 210.431H218.63L219.241 215.66L218.296 216.823L216.844 216.449L215.193 216.374L213.951 216.151L213.578 217.507L212.538 217.355L211.526 217.058L212.061 215.66L210.514 216.033L210.248 214.912L209.903 213.887L211.594 213.856L210.887 212.427L211.621 211.82L212.263 211.028L212.738 212.116L214.113 213.44L216.033 212.991V210.922L215.125 212.267L215.165 210.165L214.924 209.034L214.553 211.223L214.22 207.722L215.364 206.098L218.565 205.832L220.415 205.428L223.243 207.381L221.362 210.431Z" fill="#ED72AA"/>
<path fill-rule="evenodd" clip-rule="evenodd" d="M202.429 198.724L203.337 198.649L204.12 199.514L204.961 198.04L203.613 197.549L202.429 198.724Z" fill="#CB3F41"/>
<path fill-rule="evenodd" clip-rule="evenodd" d="M201.114 184.823L202.049 184.974L202.691 185.909L203.703 184.555L202.459 183.883L201.114 184.823Z" fill="#CB3F41"/>
<path fill-rule="evenodd" clip-rule="evenodd" d="M201.187 190.189L201.826 189.402H202.905L202.534 187.662L201.321 188.419L201.187 190.189Z" fill="#CB3F41"/>
<path fill-rule="evenodd" clip-rule="evenodd" d="M205.728 181.846L205.966 182.861L205.424 183.875L206.904 184.484L207.008 182.892L205.728 181.846Z" fill="#CB3F41"/>
<path fill-rule="evenodd" clip-rule="evenodd" d="M209.699 211.716L210.644 211.749L211.351 212.654L212.295 211.182L210.95 210.693L209.699 211.716Z" fill="#CB3F41"/>
<path fill-rule="evenodd" clip-rule="evenodd" d="M208.754 216.492L209.393 215.777H210.473L210.139 214.037L208.898 214.721L208.754 216.492Z" fill="#CB3F41"/>
<path fill-rule="evenodd" clip-rule="evenodd" d="M213.135 219.48L212.866 218.539L213.334 217.453L211.854 217.004L211.815 218.539L213.135 219.48Z" fill="#CB3F41"/>
<path fill-rule="evenodd" clip-rule="evenodd" d="M224.319 224.326L224.291 223.28L225.026 222.415L223.68 221.51L223.279 223.012L224.319 224.326Z" fill="#CB3F41"/>
<path fill-rule="evenodd" clip-rule="evenodd" d="M221.666 220.298L222.402 219.701L223.451 219.882L223.375 218.109L222.069 218.601L221.666 220.298Z" fill="#CB3F41"/>
<path fill-rule="evenodd" clip-rule="evenodd" d="M228.329 223.87L227.687 223.155L227.727 221.949L226.173 222.175L226.782 223.68L228.329 223.87Z" fill="#CB3F41"/>
<path fill-rule="evenodd" clip-rule="evenodd" d="M202.328 203.094L203.092 202.527L204.141 202.868L204.208 201.098L202.863 201.441L202.328 203.094Z" fill="#CB3F41"/>
<path fill-rule="evenodd" clip-rule="evenodd" d="M206.9 206.2L206.499 205.217L206.87 204.129L205.323 203.83L205.485 205.41L206.9 206.2Z" fill="#CB3F41"/>
<path fill-rule="evenodd" clip-rule="evenodd" d="M218.626 185.743L218.598 186.909L216.069 186.605L213.308 186.46L210.244 183.662L212.498 183.213L214.816 185.136L218.626 185.743Z" fill="#CB3F41"/>
<path fill-rule="evenodd" clip-rule="evenodd" d="M214.721 199.719L217.041 203.302L220.413 205.446L222.37 207.741L221.358 210.452L221.12 213.576L223.239 216.393L223.077 214.517L224.355 216.437L224.422 214.366L224.758 215.262L225.798 217.152L223.878 217.867L223.172 218.163L223.373 219.146L223.306 220.011L224.758 220.084L223.88 220.726L223.45 221.516L224.253 222.005L225.066 222.647L225.638 221.29L226.011 222.569L227.051 222.111L228.091 222.336L227.584 220.234L228.73 216.437L229.541 215.156L229.073 214.218L228.728 213.459L226.542 210.633L227.755 207.621L231.697 205.627L232.299 200.432C232.033 199.418 229.807 195.767 230.419 191.063L232.1 189.41L233.246 186.774L234.831 184.926L233.075 185.032L234.458 183.198L234.898 180.596L233.513 181.684L232.339 182.667L231.899 183.72L231.058 181.278L230.923 182.667L229.872 185.451L229.578 189.666L229.101 193.55L230.685 201.414L229.205 204.882L223.515 201.981L221.252 194.521L211.99 191.063L209.097 189.248L206.327 186.581L207.245 184.214L206.193 184.064L205.257 183.605L204.847 185.601L203.74 184.364L203.129 185.23L202.328 185.909L203.768 187.371L202.328 187.639L202.661 188.578L202.93 189.708L204.38 189.44L206.297 191.479L204.444 192.269L207.309 192.866L205.86 193.698L209.153 195.085L210.976 196.825L214.718 199.717L214.721 199.719Z" fill="#ED72AA"/>
<path fill-rule="evenodd" clip-rule="evenodd" d="M214.724 199.688L212.06 201.724L211.993 200.177L209.74 202.707L209.874 201.16L207.18 202.173L207.009 204.395L205.967 204.061H205.184L205.557 202.707L203.973 202.961L204.077 201.95L204.01 201.085L205.328 200.626L203.906 199.535L204.45 198.748L204.957 198.075L205.967 199.091L208.155 198.973L210.981 196.796L211.724 195.771L215.527 193.477L218.191 195.141L216.204 198.792L214.724 199.688Z" fill="#ED72AA"/>
<path fill-rule="evenodd" clip-rule="evenodd" d="M220.517 180.395L219.095 180.919L218.456 181.859L215.526 182.499L215.801 184.271L218.226 185.282L218.027 187.502L215.257 188.144L216.471 189.808L211.992 191.045L210.579 192.89L211.591 192.477L213.004 192.815L214.551 192.399L213.884 193.873L214.007 195.227L213.539 196.657L216.774 194.769L217.175 197.67L219 195.484L220.012 198.387L221.226 195.484L223.106 197.778L222.8 193.307L224.586 195.451L224.357 192.399L226.075 193.756L225.73 191.835L224.452 188.677L225.73 189.54L225.198 187.727L225.235 184.462L220.517 180.395Z" fill="#ED72AA"/>
<path fill-rule="evenodd" clip-rule="evenodd" d="M228.638 183.496L227.932 183.762L227.892 183.08L227.32 183.122L227.051 183.602L227.559 183.912L226.614 183.762L226.547 183.198L226.079 183.047L226.375 181.992L226.482 182.065L226.72 182.932L227.188 182.812L227.322 182.257L226.586 181.949L227.322 181.681L227.255 181.126L226.72 181.009L226.519 181.874L226.241 181.126L225.669 181.275L225.574 181.766L226.215 181.949L225.24 182.29L225.136 181.531H224.457L224.696 180.219H224.763L225.136 181.082L225.604 180.816L225.643 180.264L224.833 180.101L225.576 179.728L225.405 179.13H224.833L224.766 180.028L224.365 179.356L223.86 179.612L223.823 180.144L224.634 180.219H224.673L223.554 180.858L223.286 179.993L222.741 180.099V179.276L222.808 178.82V178.862L223.179 179.652L223.619 179.429L223.686 178.822L222.846 178.714L223.591 178.298L223.381 177.734H222.808V178.639L222.378 177.955L221.833 178.223V178.787L222.644 178.82L222.375 179.086L221.602 178.938L220.99 178.521H221.027L221.495 178.148L221.391 177.55L220.923 177.581L220.856 176.822L220.015 176.641L220.587 177.581H220.416V177.955L220.685 178.223L220.523 180.409L223.082 182.321L225.238 184.627L229.039 184.361L228.638 183.496Z" fill="#FFC100"/>
<path d="M158.919 222.658H186.239V214.381H182.673V198.703H184.422V190.426H160.803V198.703H162.418V214.381H158.919V222.658Z" fill="#FFC100"/>
<path d="M164.035 186.546V190.92H167.467V186.546H168.947V182.777H167.467V183.652H166.323V182.777H165.112V183.652H164.035V182.777H162.554V186.546H164.035Z" fill="#FFC100"/>
<path d="M177.629 186.546V190.92H181.061V186.546H182.542V182.777H181.061V183.652H179.917V182.777H178.706V183.652H177.629V182.777H176.149V186.546H177.629Z" fill="#FFC100"/>
<path d="M170.897 181.891V190.841H174.329V181.891H175.81V178.123H174.329V178.998H173.185V178.123H171.974V178.998H170.897V178.123H169.417V181.891H170.897Z" fill="#FFC100"/>
<path fill-rule="evenodd" clip-rule="evenodd" d="M175.547 222.47V218.019L172.443 215.055L169.548 218.019V222.47H175.547Z" fill="#145DAA"/>
<path fill-rule="evenodd" clip-rule="evenodd" d="M168.672 208.48V203.742C168.28 202.515 167.516 201.885 166.685 201.33C165.788 201.906 165.052 202.644 164.67 203.742V208.48H168.669H168.672Z" fill="#145DAA"/>
<path fill-rule="evenodd" clip-rule="evenodd" d="M176.454 208.48V203.742L178.441 201.33L180.438 203.742V208.48H176.454Z" fill="#145DAA"/>
<path fill-rule="evenodd" clip-rule="evenodd" d="M222.776 161.769L226.137 156.275L228.504 155.901L234.5 150.139L238.368 145.211L238.741 139.759L233.154 134.817C229.611 133.056 226.002 132.149 223.547 132.299L217.389 132.033L209.809 129.854C206.333 128.232 201.244 127.324 195.257 127.324C189.27 127.324 184.171 128.232 180.734 129.854L173.163 132.033L166.956 132.299C164.503 132.149 160.96 133.056 157.388 134.817L151.802 139.759L152.163 145.211L156.04 150.139L162.036 155.901L164.366 156.275L167.766 161.769H222.776Z" fill="#C60B1A"/>
<path fill-rule="evenodd" clip-rule="evenodd" d="M151.742 145.365L154.035 141.044C154.035 141.044 149.011 135.698 152.784 130.725C156.622 125.753 161.673 125.602 163.095 125.532L170.877 125.68L171.583 124.293C171.583 124.293 164.909 122.445 159.149 124.145C153.421 125.8 150.66 129.148 149.248 132.797L148.407 138.26L151.74 145.368L151.742 145.365Z" fill="#FDE89B"/>
<path fill-rule="evenodd" clip-rule="evenodd" d="M174.229 138.91L176.051 135.486C176.051 135.486 170.562 131.718 173.217 125.657C175.88 119.563 186.193 118.284 191.948 122.53L192.187 120.727C192.187 120.727 186.927 117.452 182.277 118.39C177.626 119.295 175.442 120.501 174.029 121.662C172.654 122.871 169.513 124.566 169.14 130.403C168.807 135.066 172.443 137.285 174.229 138.905V138.91Z" fill="#FDE89B"/>
<path fill-rule="evenodd" clip-rule="evenodd" d="M238.804 145.365L236.483 141.044C236.483 141.044 241.534 135.698 237.725 130.725C233.924 125.753 228.863 125.602 227.448 125.532L219.639 125.68L218.932 124.293C218.932 124.293 225.596 122.445 231.393 124.145C237.083 125.8 239.841 129.148 241.266 132.797L242.134 138.26L238.801 145.368L238.804 145.365Z" fill="#FDE89B"/>
<path fill-rule="evenodd" clip-rule="evenodd" d="M216.313 138.939L214.488 135.516C214.488 135.516 219.979 131.747 217.313 125.686C214.659 119.592 204.318 118.313 198.591 122.559L198.322 120.756C198.322 120.756 203.575 117.481 208.251 118.419C212.901 119.324 215.088 120.53 216.473 121.692C217.885 122.9 220.989 124.595 221.39 130.433C221.695 135.095 218.057 137.314 216.311 138.934L216.313 138.939Z" fill="#FDE89B"/>
<path fill-rule="evenodd" clip-rule="evenodd" d="M195.26 139.769L200.244 134.647L199.03 127.725L197.99 118.685L195.26 117.521L192.566 118.685L191.487 127.725L190.303 134.647L195.26 139.769Z" fill="#FDE89B"/>
<path fill-rule="evenodd" clip-rule="evenodd" d="M198.625 113.086C198.625 115.31 197.066 117.113 195.144 117.113C193.222 117.113 191.663 115.31 191.663 113.086C191.663 110.862 193.222 109.059 195.144 109.059C197.066 109.059 198.625 110.862 198.625 113.086Z" fill="#145DAA"/>
<path fill-rule="evenodd" clip-rule="evenodd" d="M196.368 112.754V106.213H199.446V103.373H196.368V100.453H193.915V103.373H190.837V106.213H193.915V112.754H190.071L190.837 114.74H199.446L200.386 112.754H196.368Z" fill="#FDE89B"/>
<path fill-rule="evenodd" clip-rule="evenodd" d="M148.868 147.305L151.999 147.794L154.185 150.611L155.742 150.047L157.115 151.669L162.271 151.521L161.124 150.27L163.482 147.945L160.045 147.451L159.978 146.022L155.834 149.628L154.021 144.4L153.819 145.488C153.819 145.488 151.765 143.953 151.443 144.296C151.038 144.729 149.602 146.175 148.865 147.303L148.868 147.305Z" fill="#FDE89B"/>
<path fill-rule="evenodd" clip-rule="evenodd" d="M241.776 147.311L238.606 147.8L236.447 150.616L234.863 150.052L233.487 151.674L228.369 151.526L229.513 150.275L227.118 147.95L230.583 147.457L230.623 146.027L234.796 149.634L236.619 144.405L236.818 145.493C236.818 145.493 238.898 144.022 239.118 144.276C239.597 144.83 240.857 146.004 241.774 147.306L241.776 147.311Z" fill="#FDE89B"/>
<path fill-rule="evenodd" clip-rule="evenodd" d="M195.318 150.588L200.302 153.673L205.518 151.783L210.273 154.42L215.22 152.126L219.067 155.669L224.155 155.06C224.155 155.06 224.958 157.366 228.222 157.665C231.429 157.921 234.551 151.486 234.551 151.486C234.561 151.486 232.298 155.37 228.222 155.744C224.115 156.16 225.329 150.591 225.329 150.591C225.329 150.591 223.437 155.554 219.333 153.823C215.217 152.128 217.079 147.645 217.079 147.645L216.334 145.691L214.921 147.273C214.921 147.273 214.884 153.033 210.166 152.427C205.518 151.785 205.928 146.749 205.928 146.749C205.928 146.749 204.647 152.469 200.198 151.531C195.758 150.591 195.749 146.335 196.36 145.352L195.32 143.432L194.271 145.352C194.843 146.335 194.883 150.591 190.434 151.531C185.994 152.469 184.704 146.749 184.704 146.749C184.713 146.749 185.116 151.783 180.426 152.427C175.748 153.033 175.681 147.273 175.681 147.273L174.296 145.691L173.561 147.645C173.561 147.645 175.377 152.126 171.299 153.823C167.192 155.554 165.303 150.591 165.303 150.591C165.312 150.591 166.516 156.16 162.41 155.744C158.306 155.373 156.041 151.486 156.041 151.486C156.041 151.486 159.142 157.919 162.41 157.665C165.648 157.366 166.488 155.06 166.488 155.06L171.54 155.669L175.377 152.126L180.333 154.42L185.118 151.783L190.341 153.673L195.325 150.588H195.318Z" fill="#FDE89B"/>
<path d="M163.769 157.604L163.231 159.018C164.128 159.354 166.097 160.444 166.797 162.113C167.497 163.782 166.82 165.859 166.393 166.689L167.201 168.506C172.068 169.807 184.495 172.408 195.261 172.408C206.028 172.408 218.32 169.807 223.12 168.506L223.994 166.689C223.793 165.791 223.51 163.62 223.994 162.113C224.479 160.606 226.439 159.376 227.359 158.95L227.023 157.672C222.806 156.191 210.55 153.23 195.261 153.23C179.973 153.23 167.896 156.146 163.769 157.604Z" fill="#FDE89B"/>
<path d="M195.255 163.263C184.757 162.94 173.879 165.416 169.751 166.695C174.036 167.906 185.134 170.329 195.255 170.329C205.375 170.329 216.788 167.906 221.229 166.695C216.945 165.686 205.752 163.586 195.255 163.263Z" fill="#C60B1A"/>
<path fill-rule="evenodd" clip-rule="evenodd" d="M198.79 157.987L197.912 158.958H192.766L191.888 157.987L192.766 157.039H197.912L198.79 157.987Z" fill="#FF1012"/>
<path fill-rule="evenodd" clip-rule="evenodd" d="M214.29 159.686L213.317 160.443L208.162 159.653L207.453 158.555L208.428 157.768L213.546 158.555L214.29 159.686Z" fill="#00A08A"/>
<path fill-rule="evenodd" clip-rule="evenodd" d="M176.825 159.686L177.837 160.443L182.926 159.653L183.632 158.555L182.65 157.768L177.571 158.555L176.825 159.686Z" fill="#00A08A"/>
<path fill-rule="evenodd" clip-rule="evenodd" d="M188.621 158.298L187.715 159.354L186.77 158.298L187.715 157.273L188.621 158.298Z" fill="white"/>
<path fill-rule="evenodd" clip-rule="evenodd" d="M203.81 158.298L202.902 159.354L201.957 158.298L202.902 157.273L203.81 158.298Z" fill="white"/>
<path fill-rule="evenodd" clip-rule="evenodd" d="M218.829 160.165L217.921 161.176L217.013 160.165L217.921 159.191L218.829 160.165Z" fill="white"/>
<path fill-rule="evenodd" clip-rule="evenodd" d="M173.634 160.165L172.689 161.176L171.809 160.165L172.689 159.191L173.634 160.165Z" fill="white"/>
<path fill-rule="evenodd" clip-rule="evenodd" d="M165.477 162.064L166.593 160.473L169.247 160.933L167.193 162.885L165.477 162.064Z" fill="#FF1012"/>
<path fill-rule="evenodd" clip-rule="evenodd" d="M225.332 162.064L224.223 160.473L221.52 160.933L223.612 162.885L225.332 162.064Z" fill="#FF1012"/>
<path fill-rule="evenodd" clip-rule="evenodd" d="M173.165 146.987L168.983 149.653L169.087 148.342L165.986 147.286L168.747 145.109L167.971 143.827L172.756 144.693L170.101 140.209L171.808 140.317L172.86 136.861L174.808 139.645L176.498 139.005L175.486 144.126L179.592 141.641L179.495 142.953L182.657 144.009L180.06 146.228L180.776 147.476L175.924 146.614L175.993 145.109L174.141 143.827L172.593 145.631L173.165 146.987Z" fill="#FDE89B"/>
<path fill-rule="evenodd" clip-rule="evenodd" d="M217.449 146.987L221.623 149.653L221.555 148.342L224.619 147.286L221.889 145.109L222.662 143.827L217.878 144.693L220.513 140.209L218.825 140.317L217.785 136.861L215.826 139.645L214.144 139.005L215.119 144.126L211.043 141.641L211.147 142.953L207.977 144.009L210.538 146.228L209.869 147.476L214.718 146.614L214.612 145.109L216.504 143.827L218.051 145.631L217.449 146.987Z" fill="#FDE89B"/>
<path fill-rule="evenodd" clip-rule="evenodd" d="M195.316 141.648L197.707 143.452L196.933 145.224L202.422 147.067L201.878 145.52L205.391 143.76L202.049 141.841L202.593 140.101L197.477 142.137L199.423 136.793L197.371 137.435L195.316 133.398L193.264 137.435L191.203 136.793L193.16 142.137L188.042 140.101L188.537 141.841L185.207 143.76L188.711 145.52L188.204 147.067L193.665 145.224L192.892 143.452L195.316 141.648Z" fill="#FDE89B"/>
<ellipse cx="155.487" cy="151.416" rx="1.81686" ry="1.81686" fill="white"/>
<ellipse cx="235.427" cy="151.416" rx="1.81686" ry="1.81686" fill="white"/>
<ellipse cx="216.588" cy="145.74" rx="2.2206" ry="2.22061" fill="white"/>
<ellipse cx="174.058" cy="145.74" rx="2.2206" ry="2.22061" fill="white"/>
<ellipse cx="195.324" cy="143.61" rx="3.0281" ry="3.02811" fill="white"/>
<path d="M194.757 214.964C202.054 214.964 208.371 221.53 208.372 230.149C208.372 238.769 202.054 245.336 194.757 245.336C187.46 245.336 181.142 238.769 181.142 230.149C181.142 221.53 187.461 214.964 194.757 214.964Z" fill="#005BBF" stroke="#C60B1A" stroke-width="5.2365"/>
<path d="M198.946 222.821V225.963H196.852V228.581H198.946V232.247H201.424V228.581H203.135V225.963H201.424V222.821L199.993 221.25L198.946 222.821Z" fill="#C8B100"/>
<path d="M187.95 222.821V225.963H185.855V228.581H187.95V232.247H190.428V228.581H192.139V225.963H190.428V222.821L188.997 221.25L187.95 222.821Z" fill="#C8B100"/>
<path d="M194.234 231.723V234.865H192.139V237.483H194.234V241.149H196.711V237.483H198.423V234.865H196.711V231.723L195.281 230.152L194.234 231.723Z" fill="#C8B100"/>
</g>
</g>
<defs>
<clipPath id="clip0_8251_1226">
<rect width="700" height="400" fill="white"/>
</clipPath>
<clipPath id="clip1_8251_1226">
<rect width="170.45" height="199.867" fill="white" transform="translate(110 100.453)"/>
</clipPath>
</defs>
</svg>
