<svg width="700" height="400" viewBox="0 0 700 400" fill="none" xmlns="http://www.w3.org/2000/svg">
<g clip-path="url(#clip0_8250_1200)">
<rect x="-30" y="-53.2676" width="761" height="507.333" fill="#012168"/>
<path d="M-51.1714 -98.5713L755.126 435.941L761.53 440.186L750.607 483.877L746.844 498.929L733.981 490.254L-45.1382 -35.1992L-47.9106 -37.0693L-67.272 -85.4727L-80.2124 -117.823L-51.1714 -98.5713Z" fill="#C9102E" stroke="white" stroke-width="21.7429"/>
<path d="M-72.2948 446.521L731.059 -92.4066L737.438 -96.6868L773.576 -69.8103L786.025 -60.5516L773.073 -52.0105L-11.4716 465.308L-14.2637 467.148L-66.3905 466.419L-101.23 465.932L-72.2948 446.521Z" fill="#C9102E" stroke="white" stroke-width="21.7429"/>
<mask id="path-4-outside-1_8250_1200" maskUnits="userSpaceOnUse" x="-67" y="-90.2695" width="835" height="581" fill="black">
<rect fill="white" x="-67" y="-90.2695" width="835" height="581"/>
<path d="M386.738 164.158H731V236.635H386.737V454.063H314.262V236.635H-30V164.158H314.262V-53.2695H386.738V164.158Z"/>
</mask>
<path d="M386.738 164.158H731V236.635H386.737V454.063H314.262V236.635H-30V164.158H314.262V-53.2695H386.738V164.158Z" fill="#CC0923"/>
<path d="M386.738 164.158H350.5V200.396H386.738V164.158ZM731 164.158H767.238V127.92H731V164.158ZM731 236.635V272.873H767.238V236.635H731ZM386.737 236.635V200.397H350.499V236.635H386.737ZM386.737 454.063V490.302H422.975V454.063H386.737ZM314.262 454.063H278.024V490.302H314.262V454.063ZM314.262 236.635H350.5V200.397H314.262V236.635ZM-30 236.635H-66.2381V272.873H-30V236.635ZM-30 164.158V127.92H-66.2381V164.158H-30ZM314.262 164.158V200.396H350.5V164.158H314.262ZM314.262 -53.2695V-89.5076H278.024V-53.2695H314.262ZM386.738 -53.2695H422.976V-89.5076H386.738V-53.2695ZM386.738 164.158V200.396H731V164.158V127.92H386.738V164.158ZM731 164.158H694.762V236.635H731H767.238V164.158H731ZM731 236.635V200.397H386.737V236.635V272.873H731V236.635ZM386.737 236.635H350.499V454.063H386.737H422.975V236.635H386.737ZM386.737 454.063V417.825H314.262V454.063V490.302H386.737V454.063ZM314.262 454.063H350.5V236.635H314.262H278.024V454.063H314.262ZM314.262 236.635V200.397H-30V236.635V272.873H314.262V236.635ZM-30 236.635H6.23809V164.158H-30H-66.2381V236.635H-30ZM-30 164.158V200.396H314.262V164.158V127.92H-30V164.158ZM314.262 164.158H350.5V-53.2695H314.262H278.024V164.158H314.262ZM314.262 -53.2695V-17.0314H386.738V-53.2695V-89.5076H314.262V-53.2695ZM386.738 -53.2695H350.5V164.158H386.738H422.976V-53.2695H386.738Z" fill="white" mask="url(#path-4-outside-1_8250_1200)"/>
</g>
<defs>
<clipPath id="clip0_8250_1200">
<rect width="700" height="400" fill="white"/>
</clipPath>
</defs>
</svg>
