<svg width="700" height="400" viewBox="0 0 700 400" fill="none" xmlns="http://www.w3.org/2000/svg">
<g clip-path="url(#clip0_8262_1575)">
<path d="M700 0H0V400H700V0Z" fill="white"/>
<path d="M197.457 38.2148L141.987 121.42L197.458 158.401L252.928 75.1955L197.457 38.2148Z" fill="black"/>
<path d="M215.946 40.52L151.23 137.594L158.163 142.216L222.878 45.1418L215.946 40.52Z" fill="white"/>
<path d="M236.746 54.3892L172.031 151.463L178.963 156.085L243.679 59.0109L236.746 54.3892Z" fill="white"/>
<path d="M502.546 241.602L447.076 324.807L502.547 361.787L558.017 278.582L502.546 241.602Z" fill="black"/>
<path d="M521.033 243.913L456.317 340.986L463.25 345.608L527.965 248.534L521.033 243.913Z" fill="white"/>
<path d="M541.837 257.782L477.122 354.855L484.054 359.477L548.77 262.404L541.837 257.782Z" fill="white"/>
<path d="M470.184 275.122L465.562 282.055L534.899 328.279L539.521 321.346L470.184 275.122Z" fill="white"/>
<path d="M420.712 270.713C459.765 231.66 459.765 168.344 420.712 129.291C381.66 90.2388 318.343 90.2389 279.291 129.291C240.238 168.344 240.238 231.66 279.291 270.713C318.343 309.765 381.66 309.765 420.712 270.713Z" fill="#C60C30"/>
<path d="M266.8 144.527C263.096 149.989 260.51 156.13 259.191 162.596C257.872 169.062 257.846 175.725 259.114 182.201C260.383 188.677 262.921 194.838 266.582 200.329C270.243 205.819 274.955 210.531 280.445 214.191C285.936 217.852 292.097 220.39 298.573 221.658C305.049 222.926 311.712 222.9 318.178 221.581C324.644 220.261 330.785 217.675 336.246 213.971C341.708 210.267 346.382 205.519 350 199.999C353.617 194.48 358.292 189.732 363.753 186.028C369.215 182.323 375.356 179.737 381.822 178.418C388.288 177.099 394.951 177.072 401.427 178.341C407.903 179.609 414.064 182.146 419.555 185.807C425.045 189.468 429.757 194.18 433.418 199.67C437.079 205.161 439.617 211.321 440.885 217.798C442.154 224.274 442.128 230.937 440.809 237.403C439.49 243.869 436.904 250.01 433.2 255.471C402.568 301.423 340.484 313.839 294.528 283.199C248.572 252.559 236.16 190.483 266.8 144.527Z" fill="#003478"/>
<path d="M195.906 241.934L140.571 278.602L195.571 361.602L250.906 324.934L195.906 241.934Z" fill="black"/>
<path d="M158.168 257.783L151.236 262.404L215.951 359.478L222.884 354.856L158.168 257.783Z" fill="white"/>
<path d="M177.523 244.191L170.608 248.773L234.775 345.608L241.691 341.025L177.523 244.191Z" fill="white"/>
<path d="M502.543 38.2127L447.072 75.1934L502.542 158.398L558.013 121.418L502.543 38.2127Z" fill="black"/>
<path d="M463.249 54.3899L456.316 59.0117L521.032 156.085L527.964 151.464L463.249 54.3899Z" fill="white"/>
<path d="M484.053 40.5267L477.12 45.1484L541.836 142.222L548.768 137.6L484.053 40.5267Z" fill="white"/>
<path d="M534.894 71.7094L465.557 117.934L470.179 124.866L539.515 78.642L534.894 71.7094Z" fill="white"/>
<path d="M504.859 86.766L490.991 96.0117L500.236 109.88L514.105 100.635L504.859 86.766Z" fill="black"/>
<path d="M209.018 288.972L181.284 307.461L185.906 314.394L213.64 295.904L209.018 288.972Z" fill="white"/>
</g>
<defs>
<clipPath id="clip0_8262_1575">
<rect width="700" height="400" fill="white"/>
</clipPath>
</defs>
</svg>
