<svg width="700" height="400" viewBox="0 0 700 400" fill="none" xmlns="http://www.w3.org/2000/svg">
<g clip-path="url(#clip0_8263_1595)">
<path fill-rule="evenodd" clip-rule="evenodd" d="M187.292 -33.4759V-34.2832H46.3493V-33.4759H35.518H0V434.95H485.828H521.5H664.314H700V-33.4759H214.107H187.292Z" fill="#EC1C24"/>
<path fill-rule="evenodd" clip-rule="evenodd" d="M393.941 211.973L368.634 204.735L353.929 226.57L352.991 200.264L327.684 193.026L352.413 184.005L351.475 157.699L367.696 178.429L392.425 169.408L377.72 191.243L393.941 211.973Z" fill="white"/>
<path fill-rule="evenodd" clip-rule="evenodd" d="M323.442 239.631C315.974 255.561 304.122 269.034 289.274 278.472C274.425 287.91 257.195 292.921 239.601 292.919C188.463 292.919 147 251.484 147 200.347C147 149.209 188.463 107.746 239.601 107.746C255.663 107.743 271.45 111.921 285.408 119.869C299.367 127.818 311.016 139.262 319.209 153.078C305.853 138.877 286.309 129.95 264.563 129.95C224.14 129.95 191.389 160.75 191.389 198.797C191.389 236.845 224.14 267.64 264.563 267.64C288.727 267.64 310.137 256.636 323.442 239.631Z" fill="white"/>
</g>
<defs>
<clipPath id="clip0_8263_1595">
<rect width="700" height="400" fill="white"/>
</clipPath>
</defs>
</svg>
