<svg width="700" height="400" viewBox="0 0 700 400" fill="none" xmlns="http://www.w3.org/2000/svg">
<g clip-path="url(#clip0_8242_986)">
<path d="M699.78 0H0V449.86H699.78V0Z" fill="#DF2307"/>
<path d="M273.31 57.0895L254.43 61.1895L252.6 77.8094L243.07 63.2995L223.98 65.9395L236.21 52.9595L227.7 35.1095L245.2 43.5495L258.69 29.4395L257.11 49.3595L273.31 57.0895Z" fill="#FEE84A"/>
<path d="M329.15 112.279L309.86 111.329L303.77 126.909L298.34 110.409L279.22 107.989L294.4 98.6395L290.84 79.1895L305.54 91.8995L322.23 81.7794L315.53 100.599L329.15 112.279Z" fill="#FEE84A"/>
<path d="M270.9 232.17L252.17 236.9L250.9 253.58L240.88 239.39L221.89 242.68L233.68 229.29L224.57 211.73L242.35 219.58L255.35 205.02L254.45 224.98L270.9 232.17Z" fill="#FEE84A"/>
<path d="M333.4 176.119L318.01 187.799L323.36 203.639L308.59 194.499L292.4 204.939L298.01 188.019L282.77 175.419L302.2 175.689L308.48 157.209L315.45 175.929L333.4 176.119Z" fill="#FEE84A"/>
<path d="M147.53 191.09L102.89 160.68L59.54 188.5L77.01 138.04L31.73 108.28L86.07 106.34L102.65 53.4102L119.71 105.69L174.7 106.99L131.35 139.33L147.53 191.09Z" fill="#FEE84A"/>
</g>
<defs>
<clipPath id="clip0_8242_986">
<rect width="700" height="400" fill="white"/>
</clipPath>
</defs>
</svg>
