<svg width="700" height="400" viewBox="0 0 700 400" fill="none" xmlns="http://www.w3.org/2000/svg">
<g clip-path="url(#clip0_8250_1184)">
<rect width="760.87" height="400" fill="white"/>
<rect width="760.87" height="30.8354" fill="#BF0A30"/>
<rect y="61.4062" width="760.87" height="30.8354" fill="#BF0A30"/>
<rect y="122.814" width="760.87" height="30.8354" fill="#BF0A30"/>
<rect y="184.221" width="760.87" height="30.8354" fill="#BF0A30"/>
<rect y="245.629" width="760.87" height="30.8354" fill="#BF0A30"/>
<rect y="307.035" width="760.87" height="30.8354" fill="#BF0A30"/>
<rect y="368.443" width="760.87" height="31.5217" fill="#BF0A30"/>
<rect width="304.401" height="215.974" fill="#00205B"/>
<g clip-path="url(#clip1_8250_1184)">
<path d="M50.7335 31.1543L53.4257 39.4402H62.1381L55.0897 44.5612L57.7819 52.8472L50.7335 47.7262L43.685 52.8472L46.3773 44.5612L39.3289 39.4402H48.0412L50.7335 31.1543Z" fill="white"/>
<path d="M101.335 31.1543L104.028 39.4402H112.74L105.691 44.5612L108.384 52.8472L101.335 47.7262L94.2868 52.8472L96.9791 44.5612L89.9307 39.4402H98.643L101.335 31.1543Z" fill="white"/>
<path d="M151.937 31.1543L154.629 39.4402H163.341L156.293 44.5612L158.985 52.8472L151.937 47.7262L144.888 52.8472L147.58 44.5612L140.532 39.4402H149.244L151.937 31.1543Z" fill="white"/>
<path d="M202.538 31.1543L205.231 39.4402H213.943L206.895 44.5612L209.587 52.8472L202.538 47.7262L195.49 52.8472L198.182 44.5612L191.134 39.4402H199.846L202.538 31.1543Z" fill="white"/>
<path d="M253.14 31.1543L255.832 39.4402H264.545L257.496 44.5612L260.188 52.8472L253.14 47.7262L246.092 52.8472L248.784 44.5612L241.735 39.4402H250.448L253.14 31.1543Z" fill="white"/>
</g>
<g clip-path="url(#clip2_8250_1184)">
<path d="M50.7335 74.1133L53.4257 82.3992H62.1381L55.0897 87.5202L57.7819 95.8062L50.7335 90.6852L43.685 95.8062L46.3773 87.5202L39.3289 82.3992H48.0412L50.7335 74.1133Z" fill="white"/>
<path d="M101.335 74.1133L104.027 82.3992H112.74L105.691 87.5202L108.383 95.8062L101.335 90.6852L94.2866 95.8062L96.9789 87.5202L89.9304 82.3992H98.6428L101.335 74.1133Z" fill="white"/>
<path d="M151.937 74.1133L154.629 82.3992H163.341L156.293 87.5202L158.985 95.8062L151.937 90.6852L144.888 95.8062L147.581 87.5202L140.532 82.3992H149.245L151.937 74.1133Z" fill="white"/>
<path d="M202.538 74.1133L205.231 82.3992H213.943L206.895 87.5202L209.587 95.8062L202.538 90.6852L195.49 95.8062L198.182 87.5202L191.134 82.3992H199.846L202.538 74.1133Z" fill="white"/>
<path d="M253.14 74.1133L255.832 82.3992H264.545L257.496 87.5202L260.188 95.8062L253.14 90.6852L246.092 95.8062L248.784 87.5202L241.735 82.3992H250.448L253.14 74.1133Z" fill="white"/>
</g>
<g clip-path="url(#clip3_8250_1184)">
<path d="M50.7335 117.072L53.4257 125.358H62.1381L55.0897 130.479L57.7819 138.765L50.7335 133.644L43.685 138.765L46.3773 130.479L39.3289 125.358H48.0412L50.7335 117.072Z" fill="white"/>
<path d="M101.335 117.072L104.027 125.358H112.74L105.691 130.479L108.383 138.765L101.335 133.644L94.2866 138.765L96.9789 130.479L89.9304 125.358H98.6428L101.335 117.072Z" fill="white"/>
<path d="M151.937 117.072L154.629 125.358H163.341L156.293 130.479L158.985 138.765L151.937 133.644L144.888 138.765L147.581 130.479L140.532 125.358H149.245L151.937 117.072Z" fill="white"/>
<path d="M202.538 117.072L205.231 125.358H213.943L206.895 130.479L209.587 138.765L202.538 133.644L195.49 138.765L198.182 130.479L191.134 125.358H199.846L202.538 117.072Z" fill="white"/>
<path d="M253.14 117.072L255.832 125.358H264.545L257.496 130.479L260.188 138.765L253.14 133.644L246.092 138.765L248.784 130.479L241.735 125.358H250.448L253.14 117.072Z" fill="white"/>
</g>
<g clip-path="url(#clip4_8250_1184)">
<path d="M50.7335 160.031L53.4257 168.317H62.1381L55.0897 173.438L57.7819 181.724L50.7335 176.603L43.685 181.724L46.3773 173.438L39.3289 168.317H48.0412L50.7335 160.031Z" fill="white"/>
<path d="M101.335 160.031L104.027 168.317H112.74L105.691 173.438L108.383 181.724L101.335 176.603L94.2866 181.724L96.9789 173.438L89.9304 168.317H98.6428L101.335 160.031Z" fill="white"/>
<path d="M151.937 160.031L154.629 168.317H163.341L156.293 173.438L158.985 181.724L151.937 176.603L144.888 181.724L147.581 173.438L140.532 168.317H149.245L151.937 160.031Z" fill="white"/>
<path d="M202.538 160.031L205.231 168.317H213.943L206.895 173.438L209.587 181.724L202.538 176.603L195.49 181.724L198.182 173.438L191.134 168.317H199.846L202.538 160.031Z" fill="white"/>
<path d="M253.14 160.031L255.832 168.317H264.545L257.496 173.438L260.188 181.724L253.14 176.603L246.092 181.724L248.784 173.438L241.735 168.317H250.448L253.14 160.031Z" fill="white"/>
</g>
<g clip-path="url(#clip5_8250_1184)">
<path d="M25.4327 9.76758L28.125 18.0535H36.8373L29.7889 23.1745L32.4811 31.4605L25.4327 26.3395L18.3843 31.4605L21.0765 23.1745L14.0281 18.0535H22.7404L25.4327 9.76758Z" fill="white"/>
<path d="M76.0345 9.76758L78.7268 18.0535H87.4391L80.3907 23.1745L83.083 31.4605L76.0345 26.3395L68.9861 31.4605L71.6783 23.1745L64.6299 18.0535H73.3422L76.0345 9.76758Z" fill="white"/>
<path d="M126.636 9.76758L129.328 18.0535H138.041L130.992 23.1745L133.685 31.4605L126.636 26.3395L119.588 31.4605L122.28 23.1745L115.231 18.0535H123.944L126.636 9.76758Z" fill="white"/>
<path d="M177.238 9.76758L179.93 18.0535H188.643L181.594 23.1745L184.286 31.4605L177.238 26.3395L170.189 31.4605L172.882 23.1745L165.833 18.0535H174.546L177.238 9.76758Z" fill="white"/>
<path d="M227.839 9.76758L230.532 18.0535H239.244L232.196 23.1745L234.888 31.4605L227.839 26.3395L220.791 31.4605L223.483 23.1745L216.435 18.0535H225.147L227.839 9.76758Z" fill="white"/>
<path d="M278.441 9.76758L281.133 18.0535H289.845L282.797 23.1745L285.489 31.4605L278.441 26.3395L271.392 31.4605L274.085 23.1745L267.036 18.0535H275.748L278.441 9.76758Z" fill="white"/>
</g>
<g clip-path="url(#clip6_8250_1184)">
<path d="M25.4327 52.7266L28.125 61.0125H36.8373L29.7889 66.1335L32.4811 74.4195L25.4327 69.2985L18.3843 74.4195L21.0765 66.1335L14.0281 61.0125H22.7404L25.4327 52.7266Z" fill="white"/>
<path d="M76.0343 52.7266L78.7265 61.0125H87.4389L80.3904 66.1335L83.0827 74.4195L76.0343 69.2985L68.9858 74.4195L71.6781 66.1335L64.6296 61.0125H73.342L76.0343 52.7266Z" fill="white"/>
<path d="M126.636 52.7266L129.328 61.0125H138.041L130.992 66.1335L133.685 74.4195L126.636 69.2985L119.588 74.4195L122.28 66.1335L115.231 61.0125H123.944L126.636 52.7266Z" fill="white"/>
<path d="M177.238 52.7266L179.93 61.0125H188.642L181.594 66.1335L184.286 74.4195L177.238 69.2985L170.189 74.4195L172.881 66.1335L165.833 61.0125H174.545L177.238 52.7266Z" fill="white"/>
<path d="M227.839 52.7266L230.531 61.0125H239.244L232.195 66.1335L234.888 74.4195L227.839 69.2985L220.791 74.4195L223.483 66.1335L216.435 61.0125H225.147L227.839 52.7266Z" fill="white"/>
<path d="M278.441 52.7266L281.133 61.0125H289.845L282.797 66.1335L285.489 74.4195L278.441 69.2985L271.392 74.4195L274.085 66.1335L267.036 61.0125H275.748L278.441 52.7266Z" fill="white"/>
</g>
<g clip-path="url(#clip7_8250_1184)">
<path d="M25.4327 95.6855L28.125 103.971H36.8373L29.7889 109.092L32.4811 117.378L25.4327 112.257L18.3843 117.378L21.0765 109.092L14.0281 103.971H22.7404L25.4327 95.6855Z" fill="white"/>
<path d="M76.0343 95.6855L78.7265 103.971H87.4389L80.3904 109.092L83.0827 117.378L76.0343 112.257L68.9858 117.378L71.6781 109.092L64.6296 103.971H73.342L76.0343 95.6855Z" fill="white"/>
<path d="M126.636 95.6855L129.328 103.971H138.041L130.992 109.092L133.685 117.378L126.636 112.257L119.588 117.378L122.28 109.092L115.231 103.971H123.944L126.636 95.6855Z" fill="white"/>
<path d="M177.238 95.6855L179.93 103.971H188.642L181.594 109.092L184.286 117.378L177.238 112.257L170.189 117.378L172.881 109.092L165.833 103.971H174.545L177.238 95.6855Z" fill="white"/>
<path d="M227.839 95.6855L230.531 103.971H239.244L232.195 109.092L234.888 117.378L227.839 112.257L220.791 117.378L223.483 109.092L216.435 103.971H225.147L227.839 95.6855Z" fill="white"/>
<path d="M278.441 95.6855L281.133 103.971H289.845L282.797 109.092L285.489 117.378L278.441 112.257L271.392 117.378L274.085 109.092L267.036 103.971H275.748L278.441 95.6855Z" fill="white"/>
</g>
<g clip-path="url(#clip8_8250_1184)">
<path d="M25.4327 138.645L28.125 146.93H36.8373L29.7889 152.051L32.4811 160.337L25.4327 155.216L18.3843 160.337L21.0765 152.051L14.0281 146.93H22.7404L25.4327 138.645Z" fill="white"/>
<path d="M76.0343 138.645L78.7265 146.93H87.4389L80.3904 152.051L83.0827 160.337L76.0343 155.216L68.9858 160.337L71.6781 152.051L64.6296 146.93H73.342L76.0343 138.645Z" fill="white"/>
<path d="M126.636 138.645L129.328 146.93H138.041L130.992 152.051L133.685 160.337L126.636 155.216L119.588 160.337L122.28 152.051L115.231 146.93H123.944L126.636 138.645Z" fill="white"/>
<path d="M177.238 138.645L179.93 146.93H188.642L181.594 152.051L184.286 160.337L177.238 155.216L170.189 160.337L172.881 152.051L165.833 146.93H174.545L177.238 138.645Z" fill="white"/>
<path d="M227.839 138.645L230.531 146.93H239.244L232.195 152.051L234.888 160.337L227.839 155.216L220.791 160.337L223.483 152.051L216.435 146.93H225.147L227.839 138.645Z" fill="white"/>
<path d="M278.441 138.645L281.133 146.93H289.845L282.797 152.051L285.489 160.337L278.441 155.216L271.392 160.337L274.085 152.051L267.036 146.93H275.748L278.441 138.645Z" fill="white"/>
</g>
<g clip-path="url(#clip9_8250_1184)">
<path d="M25.4327 181.602L28.125 189.888H36.8373L29.7889 195.009L32.4811 203.294L25.4327 198.173L18.3843 203.294L21.0765 195.009L14.0281 189.888H22.7404L25.4327 181.602Z" fill="white"/>
<path d="M76.0343 181.602L78.7265 189.888H87.4389L80.3904 195.009L83.0827 203.294L76.0343 198.173L68.9858 203.294L71.6781 195.009L64.6296 189.888H73.342L76.0343 181.602Z" fill="white"/>
<path d="M126.636 181.602L129.328 189.888H138.041L130.992 195.009L133.685 203.294L126.636 198.173L119.588 203.294L122.28 195.009L115.231 189.888H123.944L126.636 181.602Z" fill="white"/>
<path d="M177.238 181.602L179.93 189.888H188.642L181.594 195.009L184.286 203.294L177.238 198.173L170.189 203.294L172.881 195.009L165.833 189.888H174.545L177.238 181.602Z" fill="white"/>
<path d="M227.839 181.602L230.531 189.888H239.244L232.195 195.009L234.888 203.294L227.839 198.173L220.791 203.294L223.483 195.009L216.435 189.888H225.147L227.839 181.602Z" fill="white"/>
<path d="M278.441 181.602L281.133 189.888H289.845L282.797 195.009L285.489 203.294L278.441 198.173L271.392 203.294L274.085 195.009L267.036 189.888H275.748L278.441 181.602Z" fill="white"/>
</g>
</g>
<defs>
<clipPath id="clip0_8250_1184">
<rect width="700" height="400" fill="white"/>
</clipPath>
<clipPath id="clip1_8250_1184">
<rect width="226.39" height="23.9831" fill="white" transform="translate(38.7419 31.1543)"/>
</clipPath>
<clipPath id="clip2_8250_1184">
<rect width="226.39" height="23.9831" fill="white" transform="translate(38.7419 74.1133)"/>
</clipPath>
<clipPath id="clip3_8250_1184">
<rect width="226.39" height="23.9831" fill="white" transform="translate(38.7419 117.072)"/>
</clipPath>
<clipPath id="clip4_8250_1184">
<rect width="226.39" height="23.9831" fill="white" transform="translate(38.7419 160.031)"/>
</clipPath>
<clipPath id="clip5_8250_1184">
<rect width="276.991" height="23.9831" fill="white" transform="translate(13.4412 9.76758)"/>
</clipPath>
<clipPath id="clip6_8250_1184">
<rect width="276.991" height="23.9831" fill="white" transform="translate(13.4412 52.7266)"/>
</clipPath>
<clipPath id="clip7_8250_1184">
<rect width="276.991" height="23.9831" fill="white" transform="translate(13.4412 95.6855)"/>
</clipPath>
<clipPath id="clip8_8250_1184">
<rect width="276.991" height="23.9831" fill="white" transform="translate(13.4412 138.645)"/>
</clipPath>
<clipPath id="clip9_8250_1184">
<rect width="276.991" height="23.9831" fill="white" transform="translate(13.4412 181.602)"/>
</clipPath>
</defs>
</svg>
