<svg width="700" height="400" viewBox="0 0 700 400" fill="none" xmlns="http://www.w3.org/2000/svg">
<g clip-path="url(#clip0_8242_937)">
<path d="M700 -44H0V445.594H700V-44Z" fill="#029A36"/>
<path d="M350.101 386.881L61.0596 201.331L350.532 16.2109L640.221 201.546L350.101 386.881Z" fill="#FEDE01"/>
<path d="M350.647 323.563C418.155 323.563 472.88 268.837 472.88 201.329C472.88 133.822 418.155 79.0957 350.647 79.0957C283.139 79.0957 228.413 133.822 228.413 201.329C228.413 268.837 283.139 323.563 350.647 323.563Z" fill="#012676"/>
<path d="M471.777 217.79C470.928 224.131 469.583 230.319 467.795 236.317C391.987 177.401 312.806 155.64 232.065 171.517C233.676 165.113 235.781 158.924 238.342 152.964C254.764 150.276 271.149 149.033 287.292 149.249C310.612 149.566 334.034 152.939 356.911 159.279C379.649 165.582 402.462 174.991 424.73 187.229C440.455 195.877 456.217 206.111 471.79 217.777L471.777 217.79Z" fill="white"/>
<path d="M393.699 160.889C392.469 160.914 391.239 160.939 390.021 160.977C389.54 159.811 389.134 158.619 388.741 157.439C388.297 158.581 387.916 159.76 387.549 160.939C386.319 160.939 385.101 160.927 383.871 160.939C384.809 161.713 385.799 162.423 386.813 163.095C386.395 164.3 385.976 165.517 385.558 166.722C386.598 165.974 387.65 165.251 388.715 164.528C389.742 165.238 390.77 165.961 391.784 166.697C391.442 165.53 391.011 164.376 390.744 163.184C391.467 162.17 392.735 161.675 393.699 160.876V160.889Z" fill="white"/>
<path d="M351.065 293.913C350.964 294.129 350.748 294.56 350.646 294.775L349.34 295.042C350.253 295.397 350.367 296.069 349.962 296.931C350.203 296.728 350.672 296.31 350.913 296.094C351.128 296.272 351.547 296.64 351.762 296.817C351.445 295.967 351.775 295.321 352.511 294.864C352.181 294.877 351.534 294.915 351.204 294.928C351.166 294.674 351.09 294.154 351.065 293.9V293.913Z" fill="white"/>
<path d="M347.159 238.549C346.716 238.574 345.841 238.612 345.409 238.625C345.219 238.016 345.029 237.42 344.851 236.824C344.636 237.42 344.42 238.016 344.23 238.625C343.799 238.6 342.924 238.574 342.493 238.549C342.898 238.955 343.571 239.183 343.761 239.779C343.583 240.273 343.406 240.781 343.216 241.275C343.71 240.908 344.205 240.54 344.725 240.185C345.206 240.527 345.676 240.895 346.158 241.25C345.27 239.982 346.043 239.12 347.172 238.562L347.159 238.549Z" fill="white"/>
<path d="M304.728 200.998C304.335 201.936 304.005 202.913 303.688 203.889C302.623 203.889 301.558 203.889 300.493 203.889C301.342 204.523 302.205 205.157 303.054 205.804C302.712 206.831 302.369 207.846 302.027 208.873C302.902 208.214 303.777 207.567 304.652 206.92C305.476 207.567 306.313 208.201 307.163 208.835C306.846 207.821 306.542 206.806 306.25 205.792C307.074 205.157 307.886 204.511 308.71 203.877C307.658 203.889 306.592 203.902 305.54 203.902C305.261 202.938 304.994 201.962 304.728 200.998Z" fill="white"/>
<path d="M274.927 221.479C274.699 220.883 274.471 220.3 274.255 219.717C274.192 219.958 274.065 220.452 274.002 220.693C274.04 221.885 272.632 221.327 271.935 221.467C272.404 221.733 272.886 222.012 273.355 222.278C273.165 222.938 272.974 223.623 272.784 224.282C273.241 223.889 273.71 223.483 274.179 223.09C274.712 223.483 275.244 223.876 275.777 224.269C275.549 223.699 275.32 223.141 275.105 222.583C275.587 222.19 276.094 221.809 276.589 221.416C276.17 221.416 275.333 221.441 274.915 221.454L274.927 221.479Z" fill="white"/>
<path d="M378.609 267.55C378.342 266.789 378.076 266.028 377.822 265.268C377.48 266.003 377.417 266.941 376.795 267.487C376.022 267.512 375.261 267.525 374.5 267.512C375.185 267.994 375.87 268.463 376.58 268.945C376.313 269.769 376.047 270.581 375.793 271.405C376.44 270.898 377.112 270.416 377.772 269.922C378.457 270.403 379.141 270.898 379.826 271.405C379.547 270.594 379.268 269.782 379.002 268.97C379.687 268.476 380.384 267.994 381.069 267.499C380.245 267.499 379.42 267.525 378.596 267.55H378.609Z" fill="white"/>
<path d="M284.869 252.739C284.641 251.94 284.426 251.153 284.21 250.367C283.906 251.153 283.627 251.94 283.335 252.739C282.447 252.739 281.572 252.739 280.71 252.739C281.369 253.246 282.054 253.753 282.739 254.248C282.574 255.021 282.371 255.795 282.181 256.581C282.777 256.137 283.36 255.681 284.007 255.313C284.831 255.376 285.427 256.188 286.15 256.581C285.897 255.82 285.643 255.072 285.402 254.324C286.087 253.778 286.772 253.246 287.456 252.713C286.607 252.726 285.744 252.739 284.895 252.764L284.869 252.739Z" fill="white"/>
<path d="M352.092 253.347C351.687 252.167 351.293 251.001 350.926 249.809C350.52 250.975 350.139 252.155 349.784 253.347C348.529 253.347 347.274 253.347 346.031 253.385C347.033 254.158 348.06 254.932 349.049 255.731C348.592 256.897 348.174 258.077 347.768 259.256C348.846 258.47 349.911 257.684 351.065 256.999C352.004 257.772 352.98 258.508 353.969 259.231C353.601 258.001 353.221 256.783 352.853 255.553C353.83 254.856 354.793 254.133 355.706 253.372C354.489 253.347 353.284 253.334 352.08 253.321L352.092 253.347Z" fill="white"/>
<path d="M384.024 195.561C384.696 196.043 385.368 196.537 386.04 197.032C385.812 196.233 385.596 195.46 385.368 194.686C386.065 194.141 386.763 193.621 387.473 193.113C386.585 193.139 385.698 193.152 384.823 193.177C384.556 192.353 384.303 191.516 384.049 190.691C383.77 191.49 383.504 192.302 383.25 193.126C382.426 193.126 381.602 193.152 380.777 193.152C381.437 193.633 382.122 194.115 382.781 194.597C382.578 195.193 382.198 196.398 381.995 196.994C382.667 196.512 383.339 196.03 384.024 195.548V195.561Z" fill="white"/>
<path d="M456.598 243.242C455.748 243.242 454.911 243.242 454.074 243.242C453.808 242.405 453.529 241.581 453.25 240.77C452.984 241.594 452.717 242.431 452.464 243.268C451.576 243.268 450.701 243.268 449.839 243.268C450.536 243.737 451.234 244.206 451.931 244.688C451.703 245.525 451.475 246.349 451.259 247.199C451.906 246.666 452.54 246.134 453.187 245.601C453.922 246.108 454.62 246.628 455.33 247.199C455.038 246.375 454.772 245.563 454.506 244.739C455.19 244.244 455.9 243.762 456.611 243.293L456.598 243.242Z" fill="white"/>
<path d="M442.382 252.625C442.002 251.611 441.659 250.584 441.329 249.557C440.949 250.52 440.645 251.497 440.264 252.461C439.3 252.752 438.21 252.537 437.221 252.6C438.032 253.209 438.857 253.805 439.706 254.388C439.415 255.39 439.11 256.392 438.831 257.406C439.63 256.798 440.442 256.189 441.253 255.58C442.141 256.176 443.003 256.81 443.853 257.47C443.498 256.455 443.181 255.428 442.889 254.388C443.726 253.805 444.55 253.196 445.349 252.549C444.36 252.549 443.371 252.575 442.395 252.6L442.382 252.625Z" fill="white"/>
<path d="M433.226 247.222C434.266 246.486 435.293 245.726 436.333 244.977C437.36 245.751 438.388 246.512 439.415 247.298C438.984 246.081 438.578 244.863 438.21 243.646C439.225 243.012 440.226 242.34 441.127 241.554C439.897 241.528 438.679 241.554 437.462 241.541C437.107 240.311 436.726 239.081 436.27 237.889C435.902 239.081 435.547 240.273 435.217 241.477C433.924 241.579 432.618 241.566 431.324 241.541C432.351 242.264 433.391 242.974 434.431 243.684C434.038 244.863 433.632 246.055 433.226 247.235V247.222Z" fill="white"/>
<path d="M434.837 262.376C434.533 261.425 434.216 260.474 433.886 259.535C433.379 260.423 433.087 261.412 432.795 262.388C431.73 262.388 430.678 262.388 429.625 262.388C430.513 262.984 431.388 263.593 432.25 264.227C431.933 265.229 431.629 266.243 431.312 267.245C432.136 266.573 432.96 265.914 433.797 265.254C434.647 265.876 435.496 266.548 436.308 267.245C436.016 266.218 435.712 265.191 435.42 264.176C436.283 263.555 437.17 262.959 438.058 262.376C436.98 262.376 435.915 262.376 434.85 262.376H434.837Z" fill="white"/>
<path d="M424.793 268.768C424.54 267.969 424.299 267.157 424.058 266.371C423.741 267.157 423.462 267.956 423.208 268.768C422.409 268.768 421.61 268.768 420.812 268.768C421.446 269.25 422.118 269.744 422.764 270.226C422.511 271.05 422.219 271.849 421.991 272.686C422.65 272.179 423.322 271.684 423.995 271.203C424.667 271.672 425.339 272.141 426.011 272.61C425.757 271.811 425.516 271 425.288 270.201C425.909 269.744 426.531 269.288 427.114 268.781C426.341 268.781 425.567 268.781 424.806 268.781L424.793 268.768Z" fill="white"/>
<path d="M412.531 290.566C412.277 289.818 412.011 289.057 411.77 288.309C411.491 289.044 411.212 289.78 410.958 290.528C410.121 290.528 409.297 290.528 408.473 290.515C409.145 291.048 409.817 291.593 410.489 292.151C410.21 292.861 409.944 293.584 409.665 294.307C410.362 293.825 411.072 293.368 411.795 292.925C412.442 293.381 413.101 293.85 413.773 294.307C413.532 293.559 413.304 292.823 413.076 292.088C413.761 291.568 414.445 291.048 415.143 290.54C414.268 290.54 413.406 290.553 412.543 290.579L412.531 290.566Z" fill="white"/>
<path d="M411.82 275.147C411.529 276.124 411.25 277.1 410.983 278.089C409.931 278.089 408.904 278.089 407.864 278.064C408.701 278.711 409.55 279.345 410.413 279.966C410.07 280.968 409.715 281.983 409.347 282.997C410.197 282.338 411.085 281.716 411.972 281.12C412.835 281.729 413.684 282.325 414.547 282.946C414.179 281.919 413.824 280.917 413.469 279.903C414.344 279.281 415.219 278.673 416.081 278.051C415.029 278.064 413.976 278.077 412.924 278.102C412.594 277.1 412.239 276.111 411.833 275.135L411.82 275.147Z" fill="white"/>
<path d="M409.462 270.111C410.134 269.717 410.793 269.299 411.453 268.868C412.138 269.362 412.81 269.87 413.495 270.377C413.19 269.565 412.899 268.766 412.607 267.967C413.279 267.435 413.964 266.928 414.661 266.446C413.824 266.42 413 266.408 412.176 266.37C411.947 265.621 411.745 264.886 411.351 264.201C411.072 264.949 410.831 265.698 410.578 266.458C409.766 266.433 408.955 266.42 408.156 266.42C408.841 266.915 409.525 267.397 410.21 267.891C409.944 268.627 409.703 269.362 409.462 270.111Z" fill="white"/>
<path d="M388.398 281.082C388.068 280.118 387.764 279.142 387.46 278.178C387.117 279.129 386.775 280.093 386.458 281.056C385.405 281.056 384.353 281.044 383.3 281.044C384.15 281.665 385 282.274 385.862 282.87C385.519 283.859 385.177 284.835 384.835 285.837C385.684 285.228 386.572 284.645 387.46 284.087C388.423 284.607 389.197 285.913 390.402 285.799C389.311 285.279 389.349 283.91 388.905 282.959C389.742 282.337 390.579 281.716 391.391 281.056C390.389 281.056 389.387 281.069 388.398 281.094V281.082Z" fill="white"/>
<path d="M398.632 270.44C398.379 269.704 398.125 268.956 397.884 268.221C397.605 268.982 397.313 269.742 397.009 270.503C396.223 270.491 395.437 270.491 394.65 270.503C395.272 271.049 395.931 271.569 396.591 272.088C396.337 272.837 396.096 273.585 395.855 274.346C396.527 273.864 397.199 273.382 397.871 272.887C398.531 273.369 399.203 273.851 399.875 274.346C399.609 273.572 399.355 272.799 399.101 272.038C399.786 271.518 400.458 270.998 401.143 270.491C400.294 270.478 399.457 270.465 398.632 270.453V270.44Z" fill="white"/>
<path d="M365.902 229.532C365.623 228.479 365.357 227.427 365.103 226.387C364.735 227.465 364.355 228.555 363.911 229.608C362.909 229.582 361.895 229.57 360.893 229.582C361.705 230.166 362.542 230.736 363.391 231.282C363.1 232.283 362.745 233.26 362.377 234.236C363.29 233.716 364.127 233.095 364.951 232.436C365.801 233.057 366.663 233.704 367.513 234.338C367.221 233.349 366.917 232.372 366.6 231.396C367.399 230.762 368.223 230.166 369.072 229.595C368.007 229.57 366.955 229.557 365.902 229.532Z" fill="white"/>
<path d="M349.277 220.338C349.011 221.353 348.681 222.355 348.364 223.357C349.188 222.722 350.038 222.101 350.875 221.48C351.725 222.063 352.574 222.646 353.437 223.242C353.132 222.266 352.828 221.277 352.549 220.3C353.399 219.73 354.21 219.121 355.022 218.5C353.969 218.487 352.942 218.5 351.902 218.5C351.547 217.523 351.205 216.547 350.888 215.57C350.571 216.559 350.254 217.536 349.937 218.512C348.973 218.487 348.009 218.487 347.045 218.487C347.705 219.197 348.466 219.793 349.265 220.338H349.277Z" fill="white"/>
<path d="M339.487 229.685C339.234 228.937 338.993 228.201 338.739 227.453C338.473 228.201 338.219 228.962 337.966 229.723C337.141 229.71 336.317 229.698 335.505 229.698C336.165 230.18 336.837 230.661 337.509 231.143C337.255 231.968 337.027 232.792 336.786 233.629C337.395 233.134 338.004 232.627 338.612 232.132C339.297 232.602 339.956 233.096 340.629 233.603C340.426 232.779 340.235 231.955 340.058 231.131C340.717 230.649 341.389 230.192 342.049 229.71C341.199 229.71 340.337 229.685 339.487 229.685Z" fill="white"/>
<path d="M303.257 263.278C302.902 262.086 302.547 260.881 302.217 259.689C301.799 260.894 301.38 262.112 300.962 263.316C299.706 263.316 298.451 263.316 297.195 263.316C298.222 264.052 299.25 264.8 300.251 265.599C299.846 266.74 299.478 267.907 299.136 269.074C300.163 268.427 301.139 267.704 302.09 266.956C303.168 267.679 304.221 268.427 305.273 269.188C304.855 267.983 304.449 266.766 304.081 265.535C305.134 264.8 306.161 264.052 307.201 263.316C305.882 263.316 304.576 263.316 303.257 263.266V263.278Z" fill="white"/>
<path d="M288.661 240.411C288.395 239.498 288.103 238.572 287.811 237.672C287.38 238.496 287.089 239.384 286.733 240.246C285.846 240.69 284.704 240.373 283.728 240.487C284.514 241.058 285.326 241.616 286.137 242.148C285.871 243.175 285.579 244.203 285.25 245.217C286.074 244.596 286.936 243.987 287.824 243.454C288.636 244.063 289.485 244.634 290.36 245.166C290.018 244.215 289.65 243.264 289.282 242.326C290.107 241.692 290.944 241.083 291.781 240.474C290.741 240.449 289.714 240.436 288.674 240.398L288.661 240.411Z" fill="white"/>
<path d="M248.399 239.208C248.12 238.32 247.853 237.42 247.321 236.646C247.042 237.496 246.775 238.358 246.509 239.221C245.457 239.208 244.404 239.195 243.352 239.183C244.125 239.779 244.937 240.337 245.66 241.009C245.812 242.061 245.14 243.114 244.937 244.166C245.761 243.52 246.598 242.873 247.435 242.226C248.323 242.886 249.198 243.532 250.085 244.204C249.718 243.165 249.375 242.137 249.033 241.098C249.908 240.464 250.77 239.829 251.645 239.183C250.567 239.183 249.477 239.208 248.411 239.208H248.399Z" fill="white"/>
<path d="M263.616 227.973C262.944 226.946 262.817 225.614 262.297 224.498C261.968 225.69 261.613 226.869 261.181 228.036C259.926 228.011 258.67 228.011 257.428 228.036C258.442 228.784 259.457 229.532 260.471 230.281C260.065 231.523 259.634 232.766 259.165 233.984C260.23 233.147 261.334 232.36 262.475 231.625C263.667 232.246 264.504 233.882 265.899 233.907C264.732 233.071 264.732 231.473 264.25 230.243C265.277 229.507 266.279 228.746 267.306 228.011C266.064 228.011 264.834 228.061 263.603 227.973H263.616Z" fill="white"/>
<path d="M252.723 176.803C252.393 175.649 252.038 174.508 251.581 173.404C251.163 174.546 250.77 175.687 250.351 176.828C249.083 176.828 247.828 176.828 246.572 176.816C247.587 177.526 248.601 178.236 249.616 178.946C249.299 180.201 248.918 181.444 248.525 182.687C249.54 181.939 250.554 181.191 251.569 180.468C252.621 181.229 253.674 181.989 254.739 182.763C254.308 181.546 253.889 180.341 253.445 179.136C254.473 178.388 255.5 177.627 256.489 176.803C255.233 176.816 253.965 176.828 252.71 176.816L252.723 176.803Z" fill="white"/>
<path d="M248.829 153.914C247.942 152.886 246.737 152.43 245.228 152.569C242.134 152.836 240.777 155.169 241.157 159.569C241.347 161.725 241.88 163.336 242.755 164.388C243.63 165.441 244.847 165.897 246.382 165.771C249.476 165.504 250.833 163.158 250.452 158.758C250.262 156.564 249.717 154.954 248.829 153.914ZM247.384 162.511C247.155 163.108 246.762 163.425 246.179 163.475C245.596 163.526 245.139 163.272 244.822 162.702C244.505 162.131 244.277 161.002 244.125 159.316C243.972 157.591 244.01 156.437 244.226 155.841C244.442 155.245 244.847 154.915 245.431 154.865C246.014 154.814 246.471 155.068 246.788 155.613C247.105 156.158 247.346 157.3 247.498 159.024C247.65 160.761 247.612 161.928 247.396 162.524L247.384 162.511Z" fill="#009A3A"/>
<path d="M265.328 155.41C265.302 154.725 265.15 154.116 264.884 153.571C264.618 153.039 264.263 152.607 263.831 152.316C263.388 152.011 262.956 151.834 262.538 151.783C262.119 151.732 261.511 151.72 260.737 151.745L256.705 151.91L257.237 164.756L260.065 164.642L259.85 159.557L261.257 159.493L263.185 164.502L266.254 164.376L263.654 158.859C264.833 158.162 265.391 157.008 265.315 155.397L265.328 155.41ZM261.004 157.439L259.761 157.49L259.609 153.888L260.737 153.837C261.156 153.825 261.473 153.85 261.701 153.939C261.917 154.028 262.119 154.205 262.297 154.472C262.475 154.738 262.563 155.08 262.589 155.511C262.639 156.741 262.119 157.388 261.004 157.439Z" fill="#009A3A"/>
<path d="M278.326 152.026C277.502 151.671 276.436 151.48 275.118 151.48H272.074L271.998 164.314L275.384 164.339C276.31 164.339 277.07 164.263 277.692 164.086C278.313 163.908 278.859 163.566 279.353 163.058C279.848 162.551 280.241 161.841 280.558 160.953C280.862 160.066 281.027 159.038 281.027 157.884C281.027 156.261 280.799 154.968 280.304 154.004C279.81 153.053 279.163 152.394 278.339 152.026H278.326ZM277.705 160.446C277.489 161.067 277.197 161.511 276.842 161.752C276.487 162.006 275.98 162.12 275.321 162.12H274.839L274.889 153.674H275.371C275.993 153.674 276.474 153.788 276.83 154.004C277.185 154.22 277.476 154.613 277.705 155.209C277.933 155.805 278.047 156.642 278.047 157.732C278.047 158.912 277.933 159.812 277.705 160.446Z" fill="#009A3A"/>
<path d="M287.102 164.566L294.9 164.984L295.027 162.689L290.044 162.423L290.208 159.265L294.076 159.468L294.203 157.261L290.323 157.059L290.475 154.078L295.458 154.345L295.585 152.151L287.774 151.732L287.102 164.566Z" fill="#009A3A"/>
<path d="M306.96 161.131L305.996 153.041L301.875 152.609L300.518 165.379L302.801 165.633L303.942 154.93L305.185 165.887L307.226 166.102L310.98 155.678L309.839 166.381L312.476 166.66L313.833 153.877L309.839 153.459L306.96 161.131Z" fill="#009A3A"/>
<path d="M326.895 168.903L334.567 170.374L334.998 168.117L330.103 167.178L330.699 164.071L334.503 164.794L334.922 162.626L331.105 161.903L331.663 158.974L336.57 159.912L336.976 157.743L329.304 156.285L326.895 168.903Z" fill="#009A3A"/>
<path d="M357.164 162.944C356.619 162.602 355.795 162.285 354.717 161.993L351.141 161.029L347.793 173.444L350.519 174.18L351.762 169.589L352.726 169.843C353.931 170.172 354.856 170.274 355.503 170.172C356.15 170.071 356.72 169.754 357.215 169.247C357.697 168.739 358.065 168.029 358.318 167.129C358.572 166.178 358.585 165.341 358.344 164.593C358.115 163.845 357.722 163.299 357.177 162.957L357.164 162.944ZM355.452 166.292C355.3 166.85 355.072 167.268 354.768 167.56C354.463 167.852 353.931 167.89 353.182 167.687L352.333 167.459L353.322 163.781L354.172 164.009C354.577 164.124 354.869 164.238 355.072 164.39C355.275 164.529 355.414 164.77 355.503 165.1C355.592 165.43 355.579 165.835 355.452 166.305V166.292Z" fill="#009A3A"/>
<path d="M371.887 167.877C371.583 167.446 371.24 167.129 370.86 166.926C370.48 166.723 369.922 166.507 369.173 166.266L365.331 165.023L361.375 177.248L364.063 178.123L365.623 173.279L366.967 173.71L367.043 179.074L369.972 180.025L369.452 173.951C370.797 173.697 371.722 172.81 372.217 171.275C372.432 170.629 372.496 169.994 372.445 169.398C372.382 168.802 372.204 168.282 371.887 167.851V167.877ZM369.605 170.438C369.224 171.618 368.514 172.036 367.461 171.694L366.282 171.313L367.385 167.877L368.463 168.219C368.869 168.346 369.148 168.498 369.326 168.65C369.503 168.815 369.63 169.043 369.693 169.348C369.769 169.652 369.731 170.02 369.605 170.426V170.438Z" fill="#009A3A"/>
<path d="M383.858 171.213C380.954 170.109 378.722 171.618 377.15 175.752C376.376 177.781 376.161 179.455 376.503 180.787C376.833 182.118 377.721 183.057 379.166 183.602C382.07 184.705 384.302 183.196 385.875 179.062C386.661 177.008 386.876 175.309 386.521 174.002C386.166 172.684 385.279 171.758 383.858 171.225V171.213ZM383.097 177.997C382.476 179.633 381.943 180.66 381.487 181.104C381.03 181.535 380.523 181.662 379.978 181.446C379.42 181.231 379.128 180.812 379.09 180.153C379.052 179.506 379.331 178.377 379.94 176.792C380.549 175.182 381.081 174.155 381.55 173.711C382.007 173.267 382.514 173.153 383.059 173.356C383.605 173.571 383.909 173.99 383.96 174.624C384.011 175.258 383.732 176.387 383.11 177.997H383.097Z" fill="#009A3A"/>
<path d="M398.759 177.311C397.25 176.651 395.855 176.715 394.587 177.501C393.319 178.287 392.254 179.657 391.417 181.597C390.631 183.385 390.402 184.97 390.732 186.365C391.049 187.76 391.886 188.762 393.23 189.345C394.498 189.903 395.665 189.801 396.743 189.066L396.489 190.562L397.58 191.044L400.332 184.767L396.248 182.979L395.361 184.995L397.123 185.769C396.439 187.329 395.564 187.874 394.511 187.405C393.852 187.113 393.484 186.606 393.395 185.883C393.306 185.16 393.573 184.095 394.194 182.687C394.891 181.102 395.538 180.1 396.134 179.682C396.73 179.263 397.326 179.187 397.897 179.441C398.848 179.859 399.076 180.874 398.556 182.484L401.055 183.131C401.942 180.316 401.181 178.376 398.772 177.323L398.759 177.311Z" fill="#009A3A"/>
<path d="M414.332 184.982C413.989 184.729 413.469 184.437 412.759 184.082L409.145 182.281L403.426 193.796L405.949 195.051L408.219 190.499L409.487 191.133L408.765 196.446L411.516 197.816L411.897 191.729C413.266 191.678 414.306 190.942 415.029 189.497C415.333 188.888 415.498 188.279 415.524 187.683C415.549 187.087 415.448 186.542 415.207 186.073C414.966 185.604 414.674 185.236 414.332 184.982ZM412.569 188.267C412.024 189.37 411.25 189.687 410.261 189.192L409.145 188.635L410.755 185.401L411.77 185.908C412.15 186.098 412.404 186.276 412.556 186.466C412.708 186.644 412.797 186.897 412.823 187.214C412.848 187.531 412.759 187.886 412.569 188.267Z" fill="#009A3A"/>
<path d="M428.585 194.991L429.65 193.05L422.815 189.271L416.588 200.52L423.436 204.299L424.539 202.295L420.177 199.873L421.712 197.108L425.097 198.985L426.175 197.058L422.777 195.181L424.222 192.569L428.585 194.991Z" fill="#009A3A"/>
<path d="M438.248 197.918C437.208 197.284 436.168 197.081 435.154 197.335C434.139 197.576 433.328 198.197 432.719 199.186C432.364 199.77 432.186 200.366 432.174 200.974C432.174 201.596 432.301 202.141 432.554 202.635C432.82 203.13 433.277 203.789 433.936 204.601C434.444 205.235 434.735 205.717 434.786 206.034C434.837 206.351 434.786 206.655 434.621 206.922C434.406 207.277 434.101 207.48 433.708 207.543C433.315 207.606 432.909 207.505 432.491 207.251C431.578 206.693 431.324 205.78 431.743 204.525L429.27 203.853C428.598 206.199 429.27 207.974 431.248 209.192C432.427 209.914 433.581 210.155 434.685 209.927C435.788 209.699 436.65 209.077 437.272 208.05C437.627 207.467 437.817 206.871 437.83 206.288C437.855 205.692 437.741 205.146 437.487 204.639C437.233 204.132 436.84 203.536 436.295 202.838C435.699 202.065 435.331 201.507 435.204 201.177C435.078 200.847 435.103 200.518 435.293 200.213C435.458 199.947 435.699 199.77 436.029 199.693C436.358 199.617 436.701 199.693 437.056 199.909C437.817 200.366 438.058 201.139 437.791 202.217L440.252 202.661C440.822 200.67 440.15 199.097 438.235 197.931L438.248 197.918Z" fill="#009A3A"/>
<path d="M450.625 205.794C449.61 205.121 448.583 204.88 447.556 205.083C446.529 205.286 445.692 205.87 445.058 206.833C444.677 207.404 444.475 207.987 444.449 208.609C444.411 209.23 444.525 209.788 444.766 210.295C445.007 210.803 445.451 211.475 446.072 212.312C446.554 212.971 446.821 213.453 446.859 213.783C446.897 214.112 446.833 214.404 446.656 214.658C446.427 215 446.11 215.19 445.717 215.241C445.324 215.279 444.918 215.165 444.513 214.899C443.625 214.303 443.409 213.39 443.866 212.147L441.418 211.373C440.658 213.694 441.241 215.495 443.181 216.788C444.335 217.562 445.476 217.853 446.58 217.663C447.696 217.486 448.583 216.89 449.243 215.888C449.623 215.317 449.839 214.734 449.877 214.138C449.915 213.542 449.826 212.996 449.598 212.477C449.37 211.969 449.002 211.348 448.482 210.638C447.924 209.839 447.581 209.268 447.455 208.938C447.341 208.596 447.379 208.279 447.581 207.975C447.759 207.708 448.013 207.556 448.342 207.493C448.672 207.429 449.014 207.518 449.357 207.746C450.092 208.241 450.308 209.015 449.991 210.08L452.426 210.625C453.072 208.659 452.464 207.049 450.6 205.819L450.625 205.794Z" fill="#009A3A"/>
<path d="M463.103 214.455C460.592 212.629 458.03 213.504 455.443 217.08C454.175 218.83 453.529 220.403 453.503 221.772C453.478 223.142 454.087 224.283 455.342 225.196C457.853 227.022 460.414 226.135 463.001 222.558C464.295 220.77 464.942 219.198 464.942 217.841C464.942 216.484 464.333 215.356 463.103 214.455ZM462.291 217.765C462.177 218.386 461.606 219.401 460.592 220.808C459.565 222.216 458.779 223.078 458.221 223.383C457.663 223.687 457.155 223.662 456.673 223.319C456.192 222.977 456.027 222.482 456.154 221.836C456.293 221.202 456.851 220.187 457.84 218.818C458.855 217.423 459.641 216.56 460.199 216.256C460.757 215.952 461.277 215.964 461.746 216.307C462.228 216.649 462.405 217.144 462.291 217.765Z" fill="#009A3A"/>
</g>
<defs>
<clipPath id="clip0_8242_937">
<rect width="700" height="400" fill="white"/>
</clipPath>
</defs>
</svg>
