<svg width="700" height="400" viewBox="0 0 700 400" fill="none" xmlns="http://www.w3.org/2000/svg">
<path d="M236 0H0V399H236V0Z" fill="#006035"/>
<path d="M471.397 0H236V399H471.397H700V0H471.397Z" fill="#ED1C24"/>
<path d="M234.023 57.7695C155.149 57.7695 90.8174 121.754 90.8174 200.206C90.8174 278.659 155.149 342.643 234.023 342.643C312.896 342.643 377.768 278.657 377.768 200.206C377.768 121.756 312.896 57.7695 234.023 57.7695ZM325.699 289.912C301.946 312.653 270.453 327.283 233.675 327.957C192.606 328.708 153.882 302.019 143.494 290.294C123.187 267.371 106.654 238.26 106.124 199.029C108.639 154.713 126.091 123.846 151.389 102.677C176.687 81.5086 210.37 71.1989 238.422 71.9363C270.788 72.7871 308.597 88.6147 334.721 120.036C351.837 140.624 359.248 162.965 363.133 196.798C363.333 237.402 342.489 273.838 325.699 289.912Z" fill="#FFF200"/>
<path d="M347.881 289.558C304.147 288.245 103.606 163.462 102.231 143.591L113.304 125.182C133.197 153.994 338.208 275.348 358.346 271.047L347.881 289.551" fill="#FFF200"/>
<path d="M347.881 289.971H347.868C324.568 289.272 258.474 253.935 208.955 223.886C157.885 192.896 102.573 154.561 101.815 143.618C101.808 143.534 101.829 143.451 101.872 143.378L112.947 124.968C113.02 124.848 113.148 124.773 113.291 124.769C113.437 124.757 113.566 124.832 113.646 124.948C123.84 139.716 182.416 178.395 235.946 210.18C299.092 247.671 349.34 272.526 358.26 270.645C358.417 270.609 358.583 270.672 358.681 270.804C358.779 270.935 358.788 271.11 358.708 271.253L348.266 289.713C348.207 289.867 348.054 289.976 347.881 289.976V289.971ZM102.657 143.689C103.679 152.85 148.44 186.196 209.387 223.181C258.638 253.066 324.274 288.19 347.64 289.134L357.582 271.557C344.966 272.183 287.755 241.901 235.521 210.888C182.53 179.423 124.573 141.173 113.334 125.935L102.655 143.686L102.657 143.689Z" fill="black"/>
<path d="M110.976 122.681C107.052 133.206 163.307 167.875 230.989 208.912C298.669 249.944 357.026 275.301 361.353 271.666C361.617 271.196 363.481 267.999 363.311 268.024C362.5 269.243 360.527 269.626 357.447 268.741C339.162 263.484 291.472 241.662 232.409 205.96C173.349 170.255 121.963 137.349 113.976 123.371C113.421 122.402 113.025 120.635 113.104 119.26H112.911L111.211 122.221L110.976 122.686V122.681ZM348.91 290.137C348.168 291.478 346.787 291.523 344.16 291.235C327.802 289.431 278.164 265.368 219.429 230.318C151.087 189.538 94.6435 152.378 100.766 142.665L102.432 139.729L102.76 139.832C97.2541 156.29 214.153 222.922 221.034 227.169C288.673 268.941 345.696 293.336 350.742 286.997L348.906 290.144V290.137H348.91Z" fill="#FFF200"/>
<path d="M346.208 291.79C345.671 291.79 345.045 291.747 344.112 291.645C327.438 289.805 277.245 265.301 219.215 230.672C141.678 184.403 102.698 156.55 100.047 145.524C99.7576 144.323 99.8828 143.289 100.413 142.445L102.07 139.525C102.166 139.355 102.366 139.275 102.555 139.334L102.883 139.436C102.99 139.47 103.078 139.543 103.128 139.643C103.179 139.743 103.188 139.856 103.153 139.963C101.326 145.419 113.648 163.611 216.675 224.11C219.026 225.492 220.613 226.422 221.254 226.819C282.839 264.852 333.783 287.579 347.458 287.579C348.958 287.579 349.982 287.289 350.419 286.74C350.556 286.57 350.797 286.529 350.977 286.656C351.156 286.776 351.211 287.017 351.102 287.205L349.267 290.354C349.267 290.354 349.254 290.377 349.247 290.386C348.532 291.625 347.312 291.795 346.208 291.795V291.79ZM102.161 141.047L101.128 142.869C100.702 143.543 100.618 144.342 100.855 145.331C103.449 156.133 142.306 183.815 219.641 229.964C277.579 264.539 327.638 288.995 344.203 290.824C345.091 290.921 345.71 290.964 346.208 290.964C347.499 290.964 348.132 290.685 348.546 289.937C348.555 289.921 348.564 289.905 348.573 289.891L349.586 288.155C349.008 288.321 348.3 288.403 347.456 288.403C333.665 288.403 282.525 265.63 220.815 227.518C220.178 227.125 218.594 226.195 216.254 224.82C140.555 180.369 102.211 152.21 102.161 141.047ZM359.883 272.423C349.718 272.423 294.37 247.82 230.775 209.265C157.935 165.102 106.677 133.031 110.589 122.538L110.842 122.032L112.553 119.051C112.629 118.921 112.795 118.878 112.92 118.842H113.113C113.227 118.846 113.334 118.894 113.412 118.976C113.489 119.06 113.528 119.169 113.521 119.282C113.448 120.532 113.808 122.238 114.338 123.164C122.791 137.961 181.993 174.996 232.625 205.605C288.16 239.178 337.514 262.579 357.563 268.344C360.242 269.113 362.225 268.906 362.969 267.795C363.044 267.679 363.176 267.611 363.315 267.611C363.463 267.611 363.606 267.693 363.681 267.82C363.838 268.09 363.864 268.131 361.933 271.488L361.719 271.865C361.697 271.908 361.663 271.947 361.624 271.979C361.269 272.278 360.7 272.423 359.885 272.423H359.883ZM112.722 120.416L111.349 122.864C107.391 133.487 173.171 173.369 231.207 208.555C294.679 247.037 349.814 271.593 359.883 271.593C360.575 271.593 360.896 271.473 361.037 271.382L361.214 271.071C361.603 270.393 361.929 269.819 362.186 269.358C361.146 269.735 359.407 269.73 357.334 269.133C337.232 263.352 287.792 239.917 232.195 206.306C181.476 175.643 122.163 138.529 113.616 123.566C113.168 122.783 112.833 121.564 112.722 120.412V120.416Z" fill="black"/>
<path d="M234.865 155.625C278.637 155.28 332.652 149.662 363.738 137.313L357.04 126.465C338.665 136.603 284.355 143.268 234.494 144.267C175.522 143.727 133.898 138.252 113.043 124.301L106.72 135.852C145.059 152.024 184.346 155.459 234.865 155.627" fill="#FFF200"/>
<path d="M234.865 156.041C184.243 155.873 145.123 152.502 106.56 136.234C106.453 136.189 106.369 136.1 106.33 135.989C106.292 135.88 106.303 135.757 106.358 135.655L112.681 124.105C112.737 124.002 112.833 123.928 112.945 123.9C113.061 123.873 113.177 123.894 113.275 123.959C132.701 136.951 171.22 143.274 234.498 143.853C279.557 142.952 337.067 137.012 356.839 126.106C357.033 125.997 357.279 126.063 357.395 126.251L364.093 137.098C364.157 137.203 364.173 137.33 364.132 137.445C364.093 137.561 364.007 137.654 363.893 137.7C331.093 150.73 275.756 155.719 234.894 156.041C234.885 156.041 234.876 156.041 234.867 156.041H234.865ZM107.305 135.651C145.597 151.708 184.523 155.047 234.842 155.215C234.849 155.215 234.856 155.215 234.86 155.215C275.46 154.895 330.371 149.97 363.126 137.114L356.892 127.02C336.683 137.877 279.411 143.785 234.503 144.683C171.448 144.105 132.874 137.815 113.188 124.899L107.302 135.653L107.305 135.651Z" fill="black"/>
<path d="M365.543 137.556C364.473 139.263 344.201 146.23 314.334 151.374C294.085 154.45 267.671 157.082 234.71 157.114C203.394 157.143 177.811 154.922 158.442 152.304C127.092 147.403 110.912 140.585 104.931 138.176C105.502 137.041 105.871 136.247 106.421 135.188C123.642 142.022 139.897 146.144 158.941 149.064C178.182 151.662 203.455 153.915 234.617 153.885C267.425 153.851 293.547 151.022 313.681 148.036C344.305 143.113 361.034 136.776 363.385 133.833L365.547 137.554H365.543V137.556ZM359.666 126.557C356.348 129.214 339.808 135.061 310.709 139.694C291.29 142.469 266.597 144.951 235.049 144.982C205.078 145.012 180.59 142.997 161.966 140.293C132.414 136.445 116.684 129.504 111.014 127.483C111.579 126.512 112.153 125.545 112.744 124.576C117.157 126.791 132.334 132.932 162.291 137.164C180.704 139.766 205.228 141.706 235.051 141.677C266.451 141.645 290.862 139.113 310.158 136.354C339.407 132.343 355.146 124.885 357.536 123.018L359.668 126.555V126.557H359.666Z" fill="#FFF200"/>
<path d="M234.091 157.53C207.5 157.53 182.029 155.91 158.386 152.718C128.051 147.976 111.611 141.328 105.423 138.826L104.776 138.565C104.669 138.522 104.585 138.435 104.544 138.326C104.503 138.218 104.51 138.097 104.562 137.995C104.794 137.537 104.992 137.133 105.181 136.743C105.461 136.171 105.725 135.633 106.055 135C106.153 134.812 106.379 134.73 106.577 134.807C123.08 141.358 139.249 145.63 159.005 148.659C182.685 151.856 207.928 153.478 234.025 153.478H234.617C261.438 153.451 287.28 151.538 313.62 147.633C343.864 142.771 360.738 136.489 363.058 133.582C363.142 133.476 363.265 133.419 363.415 133.428C363.552 133.437 363.675 133.514 363.743 133.632L365.85 137.258C365.93 137.333 365.982 137.442 365.982 137.56C365.982 137.703 365.91 137.83 365.798 137.904C363.807 140.037 343.047 146.853 314.405 151.785C289.496 155.572 262.685 157.505 234.71 157.532H234.091V157.53ZM105.502 137.966L105.734 138.061C111.898 140.552 128.274 147.175 158.506 151.901C182.104 155.089 207.537 156.707 234.091 156.707H234.708C262.642 156.679 289.412 154.751 314.271 150.971C343.85 145.877 362.969 139.184 365.033 137.505L363.299 134.522C359.958 137.505 344.399 143.524 313.745 148.452C287.359 152.366 261.476 154.281 234.617 154.308H234.025C207.892 154.308 182.61 152.684 158.884 149.482C139.197 146.463 123.062 142.215 106.618 135.72C106.367 136.207 106.151 136.648 105.923 137.11C105.789 137.385 105.65 137.666 105.5 137.968L105.502 137.966ZM234.41 145.399C208.122 145.399 183.049 143.776 161.902 140.707C135.751 137.301 120.561 131.538 113.261 128.768C112.326 128.412 111.529 128.11 110.871 127.876C110.755 127.835 110.664 127.745 110.621 127.629C110.578 127.513 110.589 127.386 110.651 127.279C111.215 126.304 111.793 125.337 112.383 124.366C112.497 124.182 112.731 124.114 112.924 124.212C115.503 125.505 130.006 132.192 162.342 136.759C176.89 138.817 201.193 141.267 234.355 141.267H235.043C269.215 141.233 294.24 138.215 310.092 135.949C338.058 132.114 354.461 124.895 357.274 122.696C357.37 122.624 357.495 122.592 357.604 122.615C357.723 122.635 357.823 122.708 357.884 122.808L360.017 126.345C360.056 126.408 360.076 126.483 360.076 126.558C360.076 126.683 360.019 126.805 359.921 126.882C356.667 129.487 340.441 135.382 310.768 140.105C286.012 143.642 261.244 145.374 235.043 145.399H234.405H234.41ZM111.62 127.266C112.182 127.472 112.827 127.717 113.557 127.994C120.827 130.753 135.956 136.493 162.016 139.887C183.131 142.953 208.16 144.573 234.41 144.573H235.045C261.205 144.548 285.937 142.819 310.648 139.288C339.36 134.717 355.337 129.104 359.118 126.451L357.406 123.615C354.222 125.705 339.112 132.802 310.211 136.766C294.335 139.037 269.272 142.059 235.047 142.093H234.357C201.148 142.093 176.803 139.638 162.228 137.578C130.982 133.165 116.275 126.758 112.897 125.122C112.465 125.836 112.039 126.551 111.62 127.268V127.266Z" fill="black"/>
<path d="M91.1289 208.196C118.052 222.63 177.85 229.904 234.437 230.406C285.959 230.488 353.082 222.467 378.182 209.208L377.492 194.76C369.64 206.993 297.708 218.728 233.877 218.247C170.046 217.768 110.773 207.94 91.0151 195.218L91.1289 208.194" fill="#FFF200"/>
<path d="M235.206 230.821C234.949 230.821 234.694 230.821 234.437 230.821C184.305 230.379 120.283 224.298 90.9332 208.561C90.7875 208.484 90.7079 208.33 90.7147 208.176L90.5986 195.223C90.5986 195.071 90.6806 194.93 90.8126 194.858C90.9469 194.785 91.1085 194.789 91.2382 194.873C111.172 207.708 171.161 217.367 233.879 217.839C297.135 218.279 369.428 206.558 377.142 194.542C377.239 194.39 377.426 194.32 377.599 194.365C377.772 194.411 377.897 194.565 377.906 194.744L378.596 209.192C378.603 209.353 378.519 209.503 378.375 209.578C353.134 222.912 285.95 230.826 235.204 230.826L235.206 230.821ZM91.5432 207.949C120.856 223.529 184.533 229.553 234.441 229.993C285.017 230.093 352.324 222.234 377.756 208.965L377.132 195.908C366.328 207.996 296.912 219.134 233.875 218.662C171.678 218.195 112.107 208.682 91.4362 195.974L91.5432 207.951V207.949Z" fill="black"/>
<path d="M379.557 206.118V209.562C375.785 214.059 352.13 220.854 322.467 225.641C299.891 229.092 270.457 231.694 233.781 231.694C197.105 231.694 171.152 229.217 149.605 225.92C115.544 220.976 93.7556 212.318 89.3833 209.734L89.4015 205.716C102.539 214.422 138.131 220.793 150.083 222.742C171.491 226.018 199.111 228.475 233.781 228.475C270.284 228.475 299.554 225.891 321.987 222.462C343.268 219.397 373.586 211.427 379.554 206.122L379.557 206.118ZM379.57 193.863V197.308C375.799 201.802 352.144 208.597 322.481 213.382C299.905 216.833 270.471 219.436 233.795 219.436C197.119 219.436 171.166 216.96 149.618 213.662C115.558 208.72 93.7692 200.062 89.397 197.476L89.4152 193.455C102.552 202.161 138.145 208.532 150.096 210.478C171.505 213.757 199.124 216.216 233.795 216.216C270.298 216.216 299.568 213.63 322 210.199C343.281 207.134 373.6 199.166 379.568 193.859L379.57 193.863Z" fill="#FFF200"/>
<path d="M233.781 232.108C202.943 232.108 174.602 230.164 149.541 226.33C116.918 221.592 94.4222 213.193 89.1714 210.089C89.0439 210.014 88.9665 209.878 88.9688 209.733L88.987 205.715C88.987 205.563 89.0735 205.422 89.2078 205.352C89.3421 205.279 89.5037 205.286 89.6334 205.372C102.805 214.1 139.285 220.56 150.151 222.332C174.987 226.134 203.125 228.061 233.781 228.061C266.171 228.061 295.826 226.039 321.925 222.053C343.042 219.013 373.318 211.096 379.272 205.819C379.372 205.726 379.515 205.688 379.652 205.717C379.839 205.762 379.971 205.928 379.971 206.119V209.565C379.971 209.663 379.939 209.756 379.875 209.83C375.956 214.502 351.839 221.322 322.533 226.053C296.231 230.073 266.372 232.111 233.781 232.111V232.108ZM89.7973 209.495C93.687 211.664 114.62 220.421 149.664 225.511C174.686 229.34 202.986 231.283 233.781 231.283C266.331 231.283 296.147 229.245 322.403 225.231C350.824 220.646 375.093 213.869 379.142 209.406V206.976C371.752 212.328 342.566 219.913 322.043 222.867C295.908 226.861 266.21 228.884 233.779 228.884C203.08 228.884 174.9 226.954 150.019 223.146C139.276 221.395 103.62 215.078 89.8132 206.468L89.7973 209.495ZM233.795 219.847C202.932 219.847 174.588 217.903 149.554 214.069C116.93 209.336 94.4358 200.937 89.185 197.83C89.0576 197.756 88.9802 197.619 88.9825 197.472L89.0007 193.454C89.0007 193.302 89.0871 193.163 89.2214 193.091C89.3557 193.018 89.5173 193.025 89.6471 193.111C102.837 201.851 139.303 208.301 150.164 210.069C175.003 213.871 203.141 215.802 233.795 215.802C266.194 215.802 295.848 213.778 321.939 209.79C343.067 206.747 373.361 198.824 379.295 193.549C379.392 193.463 379.522 193.429 379.65 193.452C379.777 193.477 379.886 193.558 379.943 193.674C379.971 193.731 379.986 193.796 379.986 193.86V197.304C379.986 197.402 379.955 197.495 379.891 197.57C375.972 202.239 351.857 209.059 322.549 213.787C296.251 217.808 266.392 219.845 233.797 219.845L233.795 219.847ZM89.8132 197.236C93.7029 199.405 114.633 208.165 149.68 213.252C174.675 217.079 202.975 219.022 233.797 219.022C266.351 219.022 296.167 216.986 322.421 212.973C350.842 208.387 375.109 201.613 379.158 197.152V194.715C371.772 200.065 342.584 207.652 322.062 210.606C295.935 214.602 266.237 216.626 233.797 216.626C203.1 216.626 174.918 214.695 150.037 210.885C139.301 209.136 103.654 202.831 89.8314 194.212L89.8155 197.236H89.8132Z" fill="black"/>
<path d="M234.314 287.076C172.397 286.709 119.34 270.253 108.138 267.533L116.306 280.281C136.096 288.578 187.853 300.946 234.908 299.576C281.963 298.208 323.084 294.573 352.062 280.51L360.438 267.299C340.689 276.572 273.482 286.981 234.312 287.076" fill="#FFF200"/>
<path d="M227.659 300.091C183.251 300.091 135.578 288.806 116.149 280.659C116.072 280.627 116.006 280.57 115.961 280.5L107.792 267.751C107.701 267.608 107.705 267.427 107.803 267.288C107.901 267.152 108.076 267.086 108.238 267.127C109.569 267.449 111.495 267.969 113.933 268.625C131.943 273.469 179.785 286.338 234.319 286.662C273.728 286.565 340.823 276.051 360.263 266.923C360.429 266.844 360.627 266.884 360.75 267.023C360.87 267.159 360.889 267.361 360.788 267.517L352.413 280.729C352.372 280.795 352.312 280.847 352.242 280.879C322.009 295.551 277.989 298.73 234.919 299.985C232.514 300.055 230.087 300.089 227.657 300.089L227.659 300.091ZM116.589 279.946C137.096 288.507 188.734 300.484 234.897 299.159C277.823 297.911 321.686 294.746 351.775 280.187L359.352 268.237C338.342 277.262 273.004 287.39 234.316 287.486C179.673 287.161 131.756 274.272 113.716 269.421C111.845 268.917 110.277 268.495 109.053 268.182L116.591 279.946H116.589Z" fill="black"/>
<path d="M355.208 277.553C353.976 279.427 352.722 281.278 351.45 283.08C337.782 287.885 316.244 292.929 307.156 294.399C288.591 298.213 259.869 301.029 234.378 301.042C179.528 300.242 134.629 289.539 113.507 280.407L111.802 277.487L112.08 277.047L114.971 278.166C152.534 291.563 194.723 296.906 234.687 297.866C260.076 297.955 285.493 294.966 306.043 291.302C337.559 285.008 350.303 280.262 354.213 278.111L355.208 277.555V277.553ZM362.47 265.612C362.502 265.648 362.534 265.685 362.566 265.723C361.647 267.273 360.697 268.847 359.726 270.431C352.435 273.029 332.652 278.799 303.76 282.826C284.726 285.41 272.893 287.915 235.029 288.648C164.074 286.848 118.132 273.018 107.218 269.607L105.6 266.515C146.721 277.217 188.725 284.686 235.031 285.449C269.674 284.713 284.412 282.17 303.289 279.604C336.977 274.381 353.951 268.854 359.045 267.257C358.981 267.166 358.906 267.069 358.822 266.969L362.475 265.607H362.473V265.61L362.47 265.612Z" fill="#FFF200"/>
<path d="M234.376 301.436H234.371C178.445 300.619 134.221 289.792 113.348 280.769C113.27 280.735 113.204 280.678 113.161 280.606L111.456 277.684C111.381 277.554 111.386 277.395 111.463 277.271L111.741 276.833C111.843 276.674 112.041 276.613 112.221 276.674L115.112 277.792C148.626 289.745 188.864 296.365 234.694 297.466H235.805C263.384 297.468 289.185 293.899 305.97 290.909C341.147 283.882 351.641 279.068 354.017 277.761L355.008 277.207C355.167 277.119 355.367 277.15 355.495 277.282C355.62 277.416 355.638 277.618 355.538 277.772C354.263 279.716 352.996 281.579 351.773 283.308C351.725 283.376 351.659 283.426 351.58 283.455C337.999 288.227 316.588 293.273 307.215 294.791C287.928 298.754 258.647 301.425 234.373 301.438L234.376 301.436ZM113.783 280.091C136.277 289.781 182.241 299.88 234.38 300.64C258.604 300.628 287.817 297.963 307.072 294.006C316.404 292.495 337.651 287.49 351.195 282.743C352.106 281.454 353.039 280.091 353.983 278.675C350.883 280.263 339.656 284.985 306.118 291.685C289.292 294.684 263.441 298.26 235.805 298.26H234.683C188.76 297.155 148.44 290.518 114.834 278.534L112.303 277.556L113.783 280.091ZM235.027 289.041H235.018C171.623 287.433 127.662 276.408 107.098 269.981C106.998 269.949 106.914 269.879 106.866 269.786L105.247 266.693C105.175 266.552 105.191 266.387 105.288 266.262C105.386 266.14 105.548 266.083 105.7 266.126C152.694 278.355 193.792 284.37 235.036 285.046C265.912 284.39 281.137 282.273 297.253 280.032C299.22 279.76 301.202 279.483 303.235 279.206C335.75 274.167 352.775 268.81 358.369 267.049L358.428 267.031C358.419 266.977 358.422 266.92 358.437 266.866C358.469 266.741 358.563 266.639 358.681 266.593L362.332 265.234C362.512 265.169 362.705 265.234 362.807 265.393L362.876 265.477C362.978 265.604 362.99 265.783 362.905 265.926C361.986 267.476 361.034 269.053 360.06 270.636C360.012 270.714 359.94 270.773 359.855 270.802C350.078 274.289 329.532 279.632 303.813 283.217C301.006 283.598 298.357 283.977 295.758 284.349C280.509 286.532 267.339 288.417 235.033 289.044H235.027V289.041ZM107.492 269.273C128.081 275.694 171.896 286.646 235.027 288.247C267.28 287.623 280.424 285.743 295.644 283.562C298.246 283.19 300.895 282.809 303.704 282.43C329.245 278.868 349.659 273.575 359.455 270.101C360.238 268.824 361.007 267.553 361.756 266.296L359.43 267.163C359.446 267.235 359.443 267.31 359.418 267.383C359.377 267.503 359.282 267.596 359.161 267.632L358.606 267.807C352.998 269.572 335.93 274.943 303.348 279.991C301.311 280.268 299.329 280.545 297.363 280.819C281.221 283.063 265.976 285.184 235.036 285.842C193.965 285.166 153.06 279.215 106.365 267.12L107.492 269.275V269.273Z" fill="black"/>
<path d="M234.489 57.2832C313.435 57.2832 377.822 121.476 377.822 200.181C377.822 278.885 313.433 343.073 234.491 343.073C155.549 343.073 91.1582 278.883 91.1582 200.181C91.1582 121.478 155.545 57.2832 234.489 57.2832ZM94.3105 200.178C94.3105 277.036 157.625 339.929 234.489 339.929C311.353 339.929 374.667 277.036 374.667 200.178C374.667 123.321 311.353 60.4256 234.489 60.4256C157.625 60.4256 94.3105 123.321 94.3105 200.178Z" fill="#FFF200"/>
<path d="M234.489 343.483C155.227 343.483 90.7422 279.195 90.7422 200.177C90.7422 121.16 155.227 56.8672 234.489 56.8672C313.752 56.8672 378.234 121.155 378.234 200.177C378.234 279.2 313.752 343.483 234.489 343.483ZM234.489 57.6953C155.684 57.6953 91.5729 121.614 91.5729 200.177C91.5729 278.741 155.686 342.657 234.489 342.657C313.292 342.657 377.406 278.741 377.406 200.177C377.406 121.614 313.292 57.6953 234.489 57.6953ZM234.489 340.341C197.178 340.341 161.945 325.718 135.284 299.166C108.595 272.588 93.8968 237.434 93.8968 200.177C93.8968 162.921 108.595 127.765 135.284 101.187C161.948 74.6346 197.181 60.0118 234.489 60.0118C271.798 60.0118 307.033 74.6346 333.697 101.187C360.386 127.765 375.082 162.92 375.082 200.18C375.082 237.439 360.383 272.59 333.697 299.168C307.033 325.72 271.8 340.343 234.489 340.343V340.341ZM234.489 60.8377C157.423 60.8377 94.7275 123.345 94.7275 200.177C94.7275 277.01 157.425 339.515 234.489 339.515C311.553 339.515 374.253 277.008 374.253 200.177C374.253 123.347 311.556 60.8377 234.489 60.8377Z" fill="black"/>
<path d="M234.605 69.1562C306.598 69.1562 365.896 128.065 365.896 200.049C365.896 272.033 306.596 330.94 234.605 330.94C162.615 330.94 103.315 272.035 103.315 200.049C103.315 128.063 162.615 69.1562 234.605 69.1562ZM106.467 200.049C106.467 270.304 164.342 327.795 234.605 327.795C304.869 327.795 362.744 270.304 362.744 200.049C362.744 129.794 304.871 72.3009 234.605 72.3009C164.34 72.3009 106.467 129.792 106.467 200.049Z" fill="#FFF200"/>
<path d="M234.605 331.353C199.652 331.353 166.647 317.656 141.67 292.783C116.668 267.884 102.9 234.952 102.9 200.05C102.9 165.148 116.67 132.215 141.67 107.317C166.647 82.4435 199.654 68.7441 234.605 68.7441C269.556 68.7441 302.563 82.4435 327.54 107.317C352.54 132.215 366.308 165.148 366.308 200.05C366.308 234.952 352.54 267.886 327.538 292.783C302.561 317.656 269.556 331.353 234.603 331.353H234.605ZM234.605 69.57C162.439 69.57 103.729 128.102 103.729 200.05C103.729 271.998 162.439 330.527 234.605 330.527C306.771 330.527 365.481 271.995 365.481 200.05C365.481 128.104 306.771 69.57 234.605 69.57ZM234.605 328.206C200.49 328.206 168.275 314.836 143.894 290.559C119.49 266.257 106.053 234.115 106.053 200.048C106.053 165.981 119.493 133.835 143.894 109.534C168.273 85.2569 200.487 71.8842 234.605 71.8842C268.723 71.8842 300.935 85.2546 325.316 109.534C349.718 133.835 363.158 165.981 363.158 200.048C363.158 234.115 349.72 266.257 325.316 290.559C300.935 314.838 268.721 328.206 234.605 328.206ZM234.605 72.7124C164.178 72.7124 106.883 129.833 106.883 200.048C106.883 270.262 164.18 327.381 234.605 327.381C305.03 327.381 362.327 270.257 362.327 200.048C362.327 129.838 305.03 72.7124 234.605 72.7124Z" fill="black"/>
<path d="M240.379 56.7012H228.096L228.109 343.816H240.436L240.379 56.7012Z" fill="#FFF200"/>
<path d="M240.437 344.232H228.11C227.88 344.232 227.695 344.048 227.695 343.819L227.682 56.7059C227.682 56.597 227.725 56.4904 227.802 56.4132C227.88 56.3361 227.984 56.293 228.096 56.293H240.38C240.609 56.293 240.794 56.479 240.794 56.7059L240.851 343.819C240.851 343.928 240.808 344.032 240.728 344.111C240.648 344.191 240.546 344.232 240.434 344.232H240.437ZM228.526 343.406H240.022L239.965 57.1188H228.512L228.526 343.406Z" fill="black"/>
<path d="M239.15 55.0664H242.278L242.305 345.485H239.175L239.153 55.0664H239.15ZM226.96 55.0687H230.11L230.115 345.487H226.962V55.0687H226.96Z" fill="#FFF200"/>
<path d="M230.135 345.901H226.963C226.733 345.901 226.548 345.717 226.548 345.488V55.1103C226.548 55.0967 226.548 55.0831 226.548 55.0695C226.548 54.8403 226.735 54.6566 226.963 54.6566H230.115C230.345 54.6566 230.529 54.8426 230.529 55.0695L230.534 345.359C230.547 345.4 230.554 345.443 230.554 345.488C230.554 345.717 230.368 345.901 230.14 345.901H230.135ZM227.377 345.075H229.701L229.696 55.4824H227.377V345.075ZM242.323 345.899H239.173C238.944 345.899 238.759 345.715 238.759 345.486L238.736 55.0672C238.736 54.9583 238.78 54.8517 238.857 54.7745C238.934 54.6974 239.039 54.6543 239.151 54.6543H242.276C242.506 54.6543 242.69 54.8403 242.69 55.0672L242.715 345.357C242.729 345.397 242.735 345.44 242.735 345.486C242.735 345.715 242.549 345.899 242.321 345.899H242.323ZM239.588 345.073H241.887L241.861 55.4802H239.565L239.588 345.073Z" fill="black"/>
<path d="M377.92 205.708V195.094L369.248 187.042L320.029 174.055L249.095 166.84L163.684 171.169L102.885 185.599L90.6079 194.661V205.277L121.703 191.371L195.533 179.827H266.468L318.582 185.599L354.773 194.257L377.92 205.708Z" fill="#FFF200"/>
<path d="M377.92 206.12C377.856 206.12 377.795 206.106 377.736 206.077L354.588 194.626L318.484 186L266.42 180.237H195.53L121.819 191.772L90.7739 205.655C90.6464 205.711 90.4985 205.702 90.3779 205.623C90.2595 205.546 90.189 205.416 90.189 205.276V194.66C90.189 194.528 90.2504 194.406 90.3574 194.329L102.634 185.264C102.68 185.23 102.73 185.208 102.785 185.194L163.584 170.764L249.069 166.424L320.068 173.641L369.351 186.642C369.417 186.66 369.478 186.692 369.528 186.739L378.2 194.791C378.284 194.869 378.332 194.98 378.332 195.093V205.707C378.332 205.85 378.259 205.984 378.136 206.059C378.068 206.102 377.993 206.12 377.918 206.12H377.92ZM266.465 179.413L318.625 185.187L354.866 193.854L377.503 205.04V195.272L369.039 187.413L319.92 174.451L249.049 167.247L163.702 171.579L103.06 185.979L91.0197 194.869V204.638L121.53 190.993C121.564 190.977 121.598 190.968 121.635 190.962L195.464 179.418L266.463 179.413H266.465Z" fill="black"/>
<path d="M234.546 178.052C268.395 177.991 301.238 181.249 327.29 186.306C354.172 191.663 373.088 198.363 379.556 205.891L379.55 209.616C371.75 200.25 346.292 193.385 326.684 189.46C300.833 184.445 268.211 181.21 234.546 181.271C199.024 181.337 165.947 184.691 140.473 189.646C120.032 193.689 92.7723 201.721 89.3696 209.643V205.764C91.2382 200.28 111.538 192.085 140.014 186.401C165.678 181.412 198.817 178.115 234.546 178.052ZM234.56 165.798C268.409 165.736 301.252 168.997 327.303 174.052C354.183 179.411 373.102 186.109 379.57 193.637L379.563 197.364C371.763 188.001 346.306 181.135 326.698 177.21C300.847 172.194 268.225 168.958 234.56 169.022C199.038 169.085 166.122 172.441 140.644 177.394C120.918 181.122 92.5447 189.471 89.381 197.394V193.512C91.2496 188.087 111.959 179.599 140.027 174.149C165.692 169.16 198.831 165.866 234.56 165.8V165.798Z" fill="#FFF200"/>
<path d="M89.3696 210.057C89.3423 210.057 89.315 210.054 89.2854 210.048C89.092 210.009 88.9531 209.839 88.9531 209.644V205.764C88.9531 205.719 88.96 205.673 88.9759 205.632C90.9811 199.747 112.412 191.488 139.932 185.998C167.346 180.668 200.947 177.7 234.546 177.639H235.507C267.296 177.639 299.921 180.573 327.367 185.9C355.435 191.495 373.589 198.313 379.871 205.621C379.934 205.696 379.971 205.791 379.969 205.891L379.962 209.617C379.962 209.789 379.852 209.945 379.686 210.004C379.525 210.066 379.338 210.014 379.227 209.88C370.983 199.981 342.714 193.09 326.598 189.864C299.397 184.589 267.041 181.685 235.495 181.685H234.544C201.355 181.748 167.975 184.718 140.548 190.052C118.275 194.458 92.877 202.52 89.7452 209.807C89.6792 209.961 89.5267 210.059 89.3651 210.059L89.3696 210.057ZM235.5 180.856C267.098 180.856 299.511 183.767 326.764 189.052C342.546 192.21 369.918 198.878 379.138 208.532L379.142 206.041C372.89 198.919 354.941 192.235 327.208 186.708C299.814 181.39 267.246 178.463 235.509 178.463H234.548C201 178.524 167.456 181.487 140.093 186.805C109.685 192.875 91.525 201.117 89.7862 205.832V208.124C95.854 199.956 123.963 192.489 140.394 189.238C167.87 183.894 201.307 180.918 234.546 180.856H235.498H235.5ZM89.3833 197.805C89.3583 197.805 89.3309 197.803 89.3059 197.798C89.1102 197.762 88.9691 197.589 88.9691 197.392V193.508C88.9691 193.462 88.9759 193.417 88.9918 193.374C91.0425 187.423 112.949 178.982 139.95 173.741C167.351 168.414 200.952 165.446 234.562 165.383H235.502C267.291 165.383 299.921 168.316 327.385 173.644C355.453 179.241 373.609 186.059 379.887 193.365C379.95 193.44 379.984 193.535 379.984 193.635L379.978 197.36C379.978 197.535 379.868 197.689 379.704 197.748C379.541 197.807 379.356 197.757 379.245 197.623C370.996 187.722 342.73 180.836 326.618 177.61C299.427 172.335 267.087 169.428 235.554 169.428H234.562C201.494 169.489 168.168 172.459 140.726 177.793C118.141 182.061 92.6084 190.433 89.7679 197.542C89.7042 197.7 89.5494 197.803 89.3833 197.803V197.805ZM235.557 168.605C267.139 168.605 299.538 171.516 326.78 176.802C342.562 179.96 369.931 186.624 379.151 196.28L379.156 193.791C372.908 186.672 354.957 179.987 327.224 174.458C299.814 169.14 267.239 166.213 235.502 166.213H234.564C201.007 166.277 167.46 169.24 140.109 174.556C110.88 180.23 91.6297 188.666 89.7998 193.582V195.838C95.5878 187.981 122.727 180.357 140.571 176.986C168.063 171.643 201.444 168.666 234.562 168.605H235.557Z" fill="black"/>
<path d="M233.866 103.286C287.209 103.02 333.738 110.721 355.026 121.591L362.791 134.982C344.29 125.042 294.092 114.707 233.945 116.252C184.938 116.552 132.571 121.632 106.299 135.604L115.569 120.15C137.132 109.003 187.983 103.349 233.87 103.29" fill="#FFF200"/>
<path d="M106.296 136.016C106.185 136.016 106.075 135.971 105.996 135.887C105.868 135.753 105.846 135.549 105.939 135.39L115.209 119.937C115.248 119.871 115.307 119.816 115.375 119.782C137.812 108.184 191.017 102.934 233.815 102.875C233.831 102.875 233.847 102.873 233.863 102.873C285.256 102.641 332.882 109.82 355.214 121.223C355.285 121.259 355.344 121.316 355.383 121.384L363.148 134.775C363.242 134.936 363.217 135.138 363.087 135.27C362.955 135.404 362.752 135.431 362.593 135.347C343.183 124.919 292.771 115.147 233.952 116.667C199.502 116.878 137.143 119.667 106.49 135.971C106.428 136.003 106.36 136.018 106.294 136.018L106.296 136.016ZM115.862 120.463L107.405 134.564C138.643 118.777 199.902 116.048 233.94 115.839C291.656 114.358 341.353 123.735 361.719 133.961L354.727 121.906C332.465 110.594 285.081 103.474 233.918 103.701C233.902 103.701 233.884 103.705 233.868 103.705C191.231 103.76 138.245 108.965 115.862 120.465V120.463Z" fill="black"/>
<path d="M234.576 114.337C265.002 114.258 294.399 115.969 317.78 120.173C339.555 124.214 360.319 130.276 363.287 133.536L365.588 137.591C358.367 132.89 340.397 127.658 317.325 123.295C294.155 118.954 264.776 117.516 234.521 117.595C200.18 117.477 173.501 119.286 150.604 123.265C126.387 127.782 109.588 134.235 105.443 137.3L107.698 133.014C115.751 128.919 128.531 123.982 150.003 120.127C173.683 115.816 200.645 114.523 234.578 114.337H234.576ZM234.562 102.094C263.679 102.017 292.428 103.635 314.835 107.651C332.509 111.081 349.989 116.436 356.389 121.2L359.755 126.532C354.031 120.191 332.488 114.181 313.467 110.814C291.231 106.991 263.677 105.477 234.56 105.235C204.004 105.321 175.763 107.186 153.852 111.163C132.946 115.129 119.456 119.823 113.748 123.49L116.709 119.036C124.587 114.902 137.312 111.106 153.34 108.003C175.415 103.996 203.827 102.178 234.564 102.092L234.562 102.094Z" fill="#FFF200"/>
<path d="M365.589 138.008C365.509 138.008 365.432 137.986 365.363 137.94C358.292 133.337 340.755 128.15 317.251 123.705C297.076 119.926 270.027 118.008 236.854 118.008L234.524 118.013C233.479 118.008 232.446 118.008 231.417 118.008C198.581 118.008 172.925 119.81 150.675 123.678C126.59 128.171 109.868 134.546 105.689 137.639C105.534 137.752 105.318 137.747 105.172 137.62C105.024 137.496 104.983 137.285 105.075 137.114L107.33 132.829C107.371 132.754 107.433 132.69 107.51 132.652C118.373 127.127 132.25 122.9 149.931 119.728C171.38 115.823 195.904 114.142 234.576 113.931H236.613C268.5 113.929 296.593 115.948 317.854 119.774C340.052 123.892 360.57 129.945 363.595 133.266L365.951 137.396C366.046 137.561 366.012 137.77 365.873 137.902C365.794 137.977 365.694 138.013 365.589 138.013V138.008ZM236.852 117.182C270.075 117.182 297.176 119.104 317.403 122.893C339.626 127.095 356.564 131.975 364.446 136.422L362.926 133.745C360.108 130.664 339.374 124.604 317.703 120.584C296.493 116.77 268.45 114.753 236.611 114.753H234.576C195.956 114.966 171.475 116.643 150.076 120.538C132.539 123.685 118.776 127.869 108.004 133.325L106.54 136.107C112.346 132.754 128.356 126.998 150.527 122.861C173.526 118.864 200.144 117.069 234.524 117.185H236.854L236.852 117.182ZM359.755 126.95C359.642 126.95 359.53 126.902 359.448 126.812C353.553 120.279 330.957 114.333 313.397 111.224C293.177 107.749 267.387 105.924 234.558 105.652C202.664 105.741 174.782 107.789 153.927 111.574C135.398 115.088 120.46 119.676 113.974 123.842C113.808 123.946 113.591 123.923 113.453 123.785C113.314 123.646 113.293 123.429 113.403 123.265L116.364 118.812C116.402 118.755 116.455 118.707 116.516 118.673C124.337 114.569 137.041 110.741 153.258 107.599C174.093 103.819 202.204 101.772 234.56 101.682H236.513C267.481 101.679 294.588 103.603 314.906 107.245C333.861 110.923 350.628 116.397 356.635 120.869C356.674 120.899 356.71 120.937 356.737 120.981L360.104 126.312C360.217 126.494 360.174 126.732 360.003 126.864C359.928 126.92 359.842 126.948 359.753 126.948L359.755 126.95ZM234.56 104.826C267.44 105.101 293.273 106.925 313.541 110.41C329.541 113.241 349.718 118.444 357.894 124.361L356.08 121.487C350.112 117.092 333.531 111.701 314.756 108.057C294.49 104.425 267.433 102.505 236.515 102.505H234.562C202.254 102.598 174.193 104.638 153.413 108.411C137.344 111.524 124.753 115.308 116.996 119.356L115.096 122.217C122.311 118.256 136.502 114.038 153.775 110.762C174.68 106.968 202.614 104.915 234.56 104.826Z" fill="black"/>
<path d="M305.77 259.568C279.398 254.661 252.976 253.948 234.522 254.164C145.627 255.203 116.91 272.36 113.405 277.556L106.761 266.758C129.394 250.407 177.801 241.236 235.002 242.173C264.704 242.658 290.337 244.623 311.9 248.787L305.768 259.57" fill="#FFF200"/>
<path d="M113.404 277.971H113.395C113.254 277.969 113.124 277.896 113.049 277.774L106.405 266.976C106.292 266.793 106.339 266.552 106.515 266.425C129.2 250.035 177.245 240.81 235.006 241.763C266.372 242.273 291.549 244.44 311.974 248.383C312.106 248.408 312.215 248.494 312.272 248.615C312.327 248.735 312.322 248.875 312.256 248.991L306.125 259.775C306.027 259.947 305.824 260.025 305.64 259.966C284.744 256.081 260.809 254.269 234.523 254.577C148.029 255.587 117.59 272.086 113.746 277.785C113.668 277.899 113.539 277.967 113.402 277.967L113.404 277.971ZM107.316 266.874L113.443 276.83C118.689 270.632 150.044 254.743 234.516 253.756C260.763 253.445 284.662 255.249 305.553 259.11L311.253 249.086C290.978 245.22 266.023 243.097 234.994 242.588C177.661 241.66 129.987 250.72 107.314 266.872L107.316 266.874Z" fill="black"/>
<path d="M234.011 252.647C258.74 253.014 283.012 254.033 306.441 258.387L304.746 261.373C282.987 257.368 259.789 255.837 234.098 255.961C201.291 255.705 168.106 258.761 139.219 267.024C130.104 269.554 115.013 275.394 113.475 280.222L111.786 277.448C112.273 274.593 121.393 268.672 138.443 263.898C171.534 254.453 202.486 252.86 234.013 252.644V252.647H234.011ZM235.133 240.241C260.754 240.717 287.211 241.899 312.93 246.977L311.164 250.085C287.942 245.488 265.753 243.957 235.286 243.49C202.374 243.549 167.462 245.888 135.721 255.088C125.472 258.062 107.785 264.497 107.195 269.591L105.509 266.609C105.893 261.983 121.204 255.948 134.979 251.952C166.966 242.682 201.967 240.297 235.135 240.238L235.133 240.241Z" fill="#FFF200"/>
<path d="M113.471 280.62C113.334 280.62 113.202 280.547 113.13 280.427L111.441 277.652C111.391 277.57 111.372 277.475 111.388 277.38C111.937 274.163 121.565 268.209 138.33 263.513C169.944 254.489 199.441 252.481 234.005 252.243C234.028 252.257 234.041 252.243 234.06 252.248C257.516 252.597 282.525 253.536 306.508 257.995C306.635 258.02 306.742 258.101 306.797 258.217C306.851 258.335 306.845 258.469 306.781 258.58L305.085 261.566C305.001 261.713 304.833 261.79 304.666 261.761C284.881 258.119 262.737 256.35 236.971 256.35C236.015 256.35 235.056 256.35 234.094 256.357C232.835 256.347 231.576 256.341 230.32 256.341C195.599 256.341 164.982 260.062 139.322 267.404C129.594 270.101 115.262 275.9 113.847 280.341C113.799 280.49 113.669 280.597 113.514 280.615C113.498 280.615 113.482 280.617 113.466 280.617L113.471 280.62ZM112.205 277.378L113.416 279.37C116.145 274.546 130.341 269.073 139.108 266.641C164.836 259.281 195.526 255.549 230.322 255.549C231.579 255.549 232.84 255.553 234.096 255.562C235.056 255.558 236.015 255.556 236.973 255.556C262.669 255.556 284.774 257.314 304.534 260.931L305.816 258.675C282.04 254.312 257.257 253.389 234.003 253.042C233.989 253.042 233.978 253.042 233.964 253.039C199.484 253.278 170.062 255.283 138.546 264.277C121.576 269.03 112.907 274.823 112.203 277.375L112.205 277.378ZM107.194 269.988C107.053 269.988 106.918 269.911 106.848 269.786L105.159 266.805C105.12 266.737 105.102 266.657 105.109 266.578C105.612 260.515 128.013 253.561 134.866 251.576C162.219 243.646 194.079 239.921 235.132 239.844H235.143C235.143 239.844 235.159 239.844 235.166 239.844C260.234 240.311 287.007 241.452 313.006 246.589C313.131 246.612 313.238 246.696 313.29 246.814C313.343 246.929 313.338 247.063 313.274 247.174L311.508 250.283C311.424 250.43 311.258 250.516 311.085 250.476C286.415 245.593 262.938 244.311 235.279 243.889C194.445 243.962 162.843 247.642 135.831 255.469C122.573 259.322 108.081 265.396 107.59 269.636C107.571 269.806 107.442 269.947 107.273 269.981C107.246 269.986 107.221 269.99 107.194 269.99V269.988ZM105.917 266.526L107.082 268.581C109.968 262.317 132.881 255.499 135.608 254.707C162.692 246.857 194.366 243.168 235.284 243.093C262.89 243.515 286.333 244.792 310.957 249.641L312.309 247.263C286.529 242.228 259.984 241.101 235.125 240.64C194.156 240.715 162.367 244.434 135.089 252.338C117.845 257.339 106.447 262.889 105.917 266.53V266.526Z" fill="black"/>
<path d="M361.403 268.403L350.721 284.925L320.029 257.753L240.409 204.36L150.656 155.296L104.057 139.407L113.987 121.052L117.36 119.219L146.313 126.434L241.857 175.498L296.866 210.132L343.19 243.323L362.008 264.97L361.4 268.405L361.403 268.403Z" fill="#FFF200"/>
<path d="M350.722 285.338C350.622 285.338 350.522 285.302 350.446 285.234L319.754 258.062L240.18 204.703L150.459 155.657L103.925 139.797C103.809 139.759 103.718 139.67 103.673 139.557C103.627 139.443 103.636 139.316 103.693 139.21L113.623 120.852C113.662 120.782 113.719 120.725 113.789 120.687L117.163 118.853C117.254 118.804 117.361 118.79 117.461 118.815L146.414 126.03L242.048 175.128L297.089 209.78L343.434 242.985L362.325 264.696C362.407 264.791 362.441 264.916 362.421 265.038L361.813 268.473C361.804 268.528 361.783 268.58 361.754 268.625L351.072 285.147C351.006 285.249 350.899 285.317 350.779 285.333C350.761 285.333 350.74 285.336 350.722 285.336V285.338ZM104.653 139.173L150.791 154.903L240.61 203.997L320.262 257.411L350.635 284.294L361.009 268.249L361.569 265.091L342.879 243.593L296.627 210.468L241.639 175.847L146.125 126.801L117.42 119.659L114.297 121.356L104.658 139.176L104.653 139.173Z" fill="black"/>
<path d="M102.377 139.838C110.55 134.311 170.617 160.986 233.467 198.765C296.151 236.65 356.049 279.463 350.642 287.475L348.864 290.263L348.049 290.905C348.224 290.78 349.126 289.682 347.96 286.712C345.291 277.952 302.802 244.155 232.304 201.723C163.577 160.87 106.301 136.248 100.574 143.286L102.379 139.838H102.377ZM363.588 268.167C368.756 257.991 313.042 216.153 243.966 175.418C173.302 135.493 122.374 111.994 113.072 119.001L111.005 122.751C110.987 122.957 111.08 122.495 111.517 122.159C113.208 120.689 116.013 120.786 117.278 120.763C133.297 121.002 179.045 141.989 243.231 178.672C271.356 195.001 362.04 252.977 361.694 269.281C361.719 270.683 361.81 270.971 361.282 271.665L363.59 268.169L363.588 268.167Z" fill="#FFF200"/>
<path d="M348.07 291.302C347.952 291.302 347.833 291.252 347.752 291.152C347.608 290.985 347.629 290.73 347.79 290.581L347.795 290.576C347.843 290.526 348.651 289.614 347.572 286.862C344.822 277.848 299.893 242.889 232.086 202.075C174.015 167.556 120.356 142.504 104.496 142.504C102.669 142.504 101.456 142.855 100.893 143.547C100.759 143.713 100.52 143.749 100.343 143.631C100.165 143.515 100.104 143.284 100.204 143.096L102.009 139.647C102.041 139.586 102.088 139.536 102.143 139.497C102.926 138.969 104.13 138.701 105.725 138.701C121.774 138.701 177.978 164.929 233.681 198.413C290.111 232.521 348.63 273.358 351.298 285.424C351.498 286.333 351.393 287.102 350.986 287.706L349.215 290.485C349.19 290.524 349.158 290.56 349.119 290.59L348.321 291.216C348.245 291.275 348.157 291.304 348.068 291.304L348.07 291.302ZM104.499 141.675C120.49 141.675 174.329 166.778 232.516 201.365C301.405 242.828 345.514 277.258 348.359 286.59C348.817 287.751 348.969 288.65 348.969 289.331L350.294 287.252C350.581 286.828 350.642 286.29 350.49 285.598C347.902 273.886 288.156 232.298 233.256 199.116C177.664 165.7 121.646 139.525 105.728 139.525C104.364 139.525 103.345 139.726 102.696 140.123L101.676 142.07C102.409 141.805 103.347 141.675 104.499 141.675ZM361.282 272.078C361.198 272.078 361.116 272.053 361.044 272.003C360.859 271.874 360.814 271.624 360.937 271.438L361.162 271.093C361.312 270.805 361.312 270.563 361.292 269.796L361.28 269.287C361.622 253.056 269.201 194.227 243.022 179.028C179.107 142.501 133.272 121.414 117.272 121.176L116.951 121.181C115.651 121.192 113.232 121.217 111.791 122.469C111.568 122.642 111.463 122.842 111.411 122.937C111.338 123.071 111.161 123.214 111.008 123.214C110.892 123.214 110.778 123.164 110.701 123.078C110.623 122.991 110.582 122.828 110.594 122.712C110.598 122.656 110.617 122.601 110.644 122.551L112.711 118.801C112.738 118.749 112.777 118.705 112.824 118.669C113.981 117.798 115.747 117.355 118.075 117.355C137.89 117.355 197.586 148.734 244.174 175.055C306.307 211.697 369.242 256.691 364.021 268.223C364.005 268.33 363.95 268.423 363.87 268.487L361.877 271.515C361.808 271.64 361.722 271.77 361.613 271.915C361.531 272.021 361.408 272.078 361.282 272.078ZM117.269 120.35C133.42 120.591 179.403 141.718 243.437 178.313C261.952 189.063 362.484 251.504 362.106 269.29L362.116 269.646L363.222 267.969C367.956 258.567 315.491 218.077 243.755 175.774C177.077 138.1 133.614 118.186 118.071 118.186C115.977 118.186 114.404 118.553 113.391 119.282L112.381 121.117C113.937 120.387 115.822 120.369 116.942 120.357L117.269 120.353V120.35Z" fill="black"/>
<path d="M319.182 106.5V210.358C319.182 212.806 319.072 215.281 318.854 217.716C317.014 238.37 307.457 257.506 291.954 271.583C276.349 285.753 256.069 293.555 234.858 293.555H233.358V293.538C212.693 293.179 193 285.416 177.763 271.581C162.259 257.504 152.702 238.367 150.863 217.7C150.647 215.28 150.536 212.804 150.536 210.358V106.5H319.182Z" fill="#ED1C24" stroke="white" stroke-width="3"/>
<path fill-rule="evenodd" clip-rule="evenodd" d="M226.787 123.716L222.548 136.762H247.982L243.58 123.716H243.255V115.544H244.564C244.656 115.544 244.734 115.478 244.749 115.392L245.376 111.615H242.196V114.209H241.055V111.615H237.875V114.131H236.734V111.615H233.554V114.051H232.412V111.615H229.233V113.973H228.091V111.615H224.994L225.779 115.4C225.798 115.484 225.874 115.546 225.965 115.546H227.114V123.718H226.789L226.787 123.716Z" fill="#FFF200"/>
<path fill-rule="evenodd" clip-rule="evenodd" d="M293.308 123.716L289.069 136.762H314.503L310.101 123.716H309.776V115.544H311.083C311.175 115.544 311.253 115.478 311.268 115.392L311.895 111.615H308.715V114.209H307.574V111.615H304.394V114.131H303.253V111.615H300.073V114.051H298.931V111.615H295.752V113.973H294.61V111.615H291.513L292.298 115.4C292.317 115.484 292.393 115.546 292.484 115.546H293.633V123.718H293.308V123.716Z" fill="#FFF200"/>
<path fill-rule="evenodd" clip-rule="evenodd" d="M293.308 194.919L289.069 207.965H314.503L310.101 194.919H309.776V186.747H311.083C311.175 186.747 311.253 186.681 311.268 186.595L311.895 182.818H308.715V185.412H307.574V182.818H304.394V185.334H303.253V182.818H300.073V185.254H298.931V182.818H295.752V185.176H294.61V182.818H291.513L292.298 186.603C292.317 186.687 292.393 186.749 292.484 186.749H293.633V194.921H293.308V194.919Z" fill="#FFF200"/>
<path fill-rule="evenodd" clip-rule="evenodd" d="M160.269 194.919L156.03 207.965H181.464L177.062 194.919H176.737V186.747H178.045C178.138 186.747 178.216 186.681 178.231 186.595L178.858 182.818H175.678V185.412H174.537V182.818H171.357V185.334H170.216V182.818H167.036V185.254H165.894V182.818H162.715V185.176H161.573V182.818H158.476L159.261 186.603C159.28 186.687 159.356 186.749 159.446 186.749H160.596V194.921H160.269V194.919Z" fill="#FFF200"/>
<path fill-rule="evenodd" clip-rule="evenodd" d="M183.699 262.537L190.126 274.721L208.314 257.581L195.706 251.219L195.474 251.439L189.548 245.593L190.482 244.712C190.548 244.65 190.558 244.55 190.505 244.478L188.214 241.355L185.941 243.498L187.821 245.353L187.004 246.122L185.124 244.267L182.852 246.409L184.676 248.207L183.859 248.976L182.035 247.178L179.762 249.321L181.529 251.063L180.713 251.832L178.946 250.09L176.673 252.232L178.382 253.917L177.566 254.686L175.857 253.001L173.642 255.088L176.947 257.265C177.021 257.315 177.12 257.306 177.183 257.245L178.006 256.47L183.931 262.315L183.699 262.535V262.537Z" fill="#FFF200"/>
<path fill-rule="evenodd" clip-rule="evenodd" d="M286.134 262.537L279.707 274.721L261.519 257.581L274.127 251.219L274.359 251.439L280.285 245.593L279.351 244.712C279.285 244.65 279.275 244.55 279.328 244.478L281.619 241.355L283.892 243.498L282.012 245.353L282.829 246.122L284.709 244.267L286.981 246.409L285.157 248.207L285.974 248.976L287.798 247.178L290.071 249.321L288.304 251.063L289.12 251.832L290.887 250.09L293.16 252.232L291.451 253.917L292.267 254.686L293.976 253.001L296.191 255.088L292.886 257.265C292.812 257.315 292.713 257.306 292.65 257.245L291.827 256.47L285.902 262.315L286.134 262.535V262.537Z" fill="#FFF200"/>
<path fill-rule="evenodd" clip-rule="evenodd" d="M160.269 123.716L156.03 136.762H181.464L177.062 123.716H176.737V115.544H178.045C178.138 115.544 178.216 115.478 178.231 115.392L178.858 111.615H175.678V114.209H174.537V111.615H171.357V114.131H170.216V111.615H167.036V114.051H165.894V111.615H162.715V113.973H161.573V111.615H158.476L159.261 115.4C159.28 115.484 159.356 115.546 159.446 115.546H160.596V123.718H160.269V123.716Z" fill="#FFF200"/>
<path fill-rule="evenodd" clip-rule="evenodd" d="M285.401 141.24V210.161C285.401 211.619 285.335 213.061 285.203 214.483C282.935 239.369 261.261 258.886 234.858 258.886C208.456 258.886 186.782 239.369 184.514 214.483C184.384 213.058 184.316 211.617 184.316 210.161V141.24H285.401Z" fill="white"/>
<path d="M223 217H247V235C247 241.627 241.627 247 235 247V247C228.373 247 223 241.627 223 235V217Z" fill="#2E2C70"/>
<path fill-rule="evenodd" clip-rule="evenodd" d="M231.572 223.668C231.572 225.048 230.421 226.168 229 226.168C227.579 226.168 226.429 225.048 226.429 223.668C226.429 222.288 227.579 221.168 229 221.168C230.421 221.168 231.572 222.288 231.572 223.668Z" fill="white"/>
<path fill-rule="evenodd" clip-rule="evenodd" d="M231.572 237.002C231.572 238.382 230.421 239.502 229 239.502C227.579 239.502 226.429 238.382 226.429 237.002C226.429 235.622 227.579 234.502 229 234.502C230.421 234.502 231.572 235.622 231.572 237.002Z" fill="white"/>
<path fill-rule="evenodd" clip-rule="evenodd" d="M243.572 223.668C243.572 225.048 242.421 226.168 241 226.168C239.579 226.168 238.429 225.048 238.429 223.668C238.429 222.288 239.579 221.168 241 221.168C242.421 221.168 243.572 222.288 243.572 223.668Z" fill="white"/>
<path fill-rule="evenodd" clip-rule="evenodd" d="M243.572 237.002C243.572 238.382 242.421 239.502 241 239.502C239.579 239.502 238.429 238.382 238.429 237.002C238.429 235.622 239.579 234.502 241 234.502C242.421 234.502 243.572 235.622 243.572 237.002Z" fill="white"/>
<path fill-rule="evenodd" clip-rule="evenodd" d="M237.572 230.334C237.572 231.714 236.421 232.834 235 232.834C233.579 232.834 232.429 231.714 232.429 230.334C232.429 228.954 233.579 227.834 235 227.834C236.421 227.834 237.572 228.954 237.572 230.334Z" fill="white"/>
<path d="M190 182H214V200C214 206.627 208.627 212 202 212V212C195.373 212 190 206.627 190 200V182Z" fill="#2E2C70"/>
<path fill-rule="evenodd" clip-rule="evenodd" d="M198.572 188.668C198.572 190.048 197.421 191.168 196 191.168C194.579 191.168 193.429 190.048 193.429 188.668C193.429 187.288 194.579 186.168 196 186.168C197.421 186.168 198.572 187.288 198.572 188.668Z" fill="white"/>
<path fill-rule="evenodd" clip-rule="evenodd" d="M198.572 202.002C198.572 203.382 197.421 204.502 196 204.502C194.579 204.502 193.429 203.382 193.429 202.002C193.429 200.622 194.579 199.502 196 199.502C197.421 199.502 198.572 200.622 198.572 202.002Z" fill="white"/>
<path fill-rule="evenodd" clip-rule="evenodd" d="M210.572 188.668C210.572 190.048 209.421 191.168 208 191.168C206.579 191.168 205.429 190.048 205.429 188.668C205.429 187.288 206.579 186.168 208 186.168C209.421 186.168 210.572 187.288 210.572 188.668Z" fill="white"/>
<path fill-rule="evenodd" clip-rule="evenodd" d="M210.572 202.002C210.572 203.382 209.421 204.502 208 204.502C206.579 204.502 205.429 203.382 205.429 202.002C205.429 200.622 206.579 199.502 208 199.502C209.421 199.502 210.572 200.622 210.572 202.002Z" fill="white"/>
<path fill-rule="evenodd" clip-rule="evenodd" d="M204.572 195.334C204.572 196.714 203.421 197.834 202 197.834C200.579 197.834 199.429 196.714 199.429 195.334C199.429 193.954 200.579 192.834 202 192.834C203.421 192.834 204.572 193.954 204.572 195.334Z" fill="white"/>
<path d="M223 182H247V200C247 206.627 241.627 212 235 212V212C228.373 212 223 206.627 223 200V182Z" fill="#2E2C70"/>
<path fill-rule="evenodd" clip-rule="evenodd" d="M231.572 188.668C231.572 190.048 230.421 191.168 229 191.168C227.579 191.168 226.429 190.048 226.429 188.668C226.429 187.288 227.579 186.168 229 186.168C230.421 186.168 231.572 187.288 231.572 188.668Z" fill="white"/>
<path fill-rule="evenodd" clip-rule="evenodd" d="M231.572 202.002C231.572 203.382 230.421 204.502 229 204.502C227.579 204.502 226.429 203.382 226.429 202.002C226.429 200.622 227.579 199.502 229 199.502C230.421 199.502 231.572 200.622 231.572 202.002Z" fill="white"/>
<path fill-rule="evenodd" clip-rule="evenodd" d="M243.572 188.668C243.572 190.048 242.421 191.168 241 191.168C239.579 191.168 238.429 190.048 238.429 188.668C238.429 187.288 239.579 186.168 241 186.168C242.421 186.168 243.572 187.288 243.572 188.668Z" fill="white"/>
<path fill-rule="evenodd" clip-rule="evenodd" d="M243.572 202.002C243.572 203.382 242.421 204.502 241 204.502C239.579 204.502 238.429 203.382 238.429 202.002C238.429 200.622 239.579 199.502 241 199.502C242.421 199.502 243.572 200.622 243.572 202.002Z" fill="white"/>
<path fill-rule="evenodd" clip-rule="evenodd" d="M237.572 195.334C237.572 196.714 236.421 197.834 235 197.834C233.579 197.834 232.429 196.714 232.429 195.334C232.429 193.954 233.579 192.834 235 192.834C236.421 192.834 237.572 193.954 237.572 195.334Z" fill="white"/>
<path d="M256 182H280V200C280 206.627 274.627 212 268 212V212C261.373 212 256 206.627 256 200V182Z" fill="#2E2C70"/>
<path fill-rule="evenodd" clip-rule="evenodd" d="M264.572 188.668C264.572 190.048 263.421 191.168 262 191.168C260.579 191.168 259.429 190.048 259.429 188.668C259.429 187.288 260.579 186.168 262 186.168C263.421 186.168 264.572 187.288 264.572 188.668Z" fill="white"/>
<path fill-rule="evenodd" clip-rule="evenodd" d="M264.572 202.002C264.572 203.382 263.421 204.502 262 204.502C260.579 204.502 259.429 203.382 259.429 202.002C259.429 200.622 260.579 199.502 262 199.502C263.421 199.502 264.572 200.622 264.572 202.002Z" fill="white"/>
<path fill-rule="evenodd" clip-rule="evenodd" d="M276.572 188.668C276.572 190.048 275.421 191.168 274 191.168C272.579 191.168 271.429 190.048 271.429 188.668C271.429 187.288 272.579 186.168 274 186.168C275.421 186.168 276.572 187.288 276.572 188.668Z" fill="white"/>
<path fill-rule="evenodd" clip-rule="evenodd" d="M276.572 202.002C276.572 203.382 275.421 204.502 274 204.502C272.579 204.502 271.429 203.382 271.429 202.002C271.429 200.622 272.579 199.502 274 199.502C275.421 199.502 276.572 200.622 276.572 202.002Z" fill="white"/>
<path fill-rule="evenodd" clip-rule="evenodd" d="M270.572 195.334C270.572 196.714 269.421 197.834 268 197.834C266.579 197.834 265.429 196.714 265.429 195.334C265.429 193.954 266.579 192.834 268 192.834C269.421 192.834 270.572 193.954 270.572 195.334Z" fill="white"/>
<path d="M223 147H247V165C247 171.627 241.627 177 235 177V177C228.373 177 223 171.627 223 165V147Z" fill="#2E2C70"/>
<path fill-rule="evenodd" clip-rule="evenodd" d="M231.572 153.668C231.572 155.048 230.421 156.168 229 156.168C227.579 156.168 226.429 155.048 226.429 153.668C226.429 152.288 227.579 151.168 229 151.168C230.421 151.168 231.572 152.288 231.572 153.668Z" fill="white"/>
<path fill-rule="evenodd" clip-rule="evenodd" d="M231.572 167.002C231.572 168.382 230.421 169.502 229 169.502C227.579 169.502 226.429 168.382 226.429 167.002C226.429 165.622 227.579 164.502 229 164.502C230.421 164.502 231.572 165.622 231.572 167.002Z" fill="white"/>
<path fill-rule="evenodd" clip-rule="evenodd" d="M243.572 153.668C243.572 155.048 242.421 156.168 241 156.168C239.579 156.168 238.429 155.048 238.429 153.668C238.429 152.288 239.579 151.168 241 151.168C242.421 151.168 243.572 152.288 243.572 153.668Z" fill="white"/>
<path fill-rule="evenodd" clip-rule="evenodd" d="M243.572 167.002C243.572 168.382 242.421 169.502 241 169.502C239.579 169.502 238.429 168.382 238.429 167.002C238.429 165.622 239.579 164.502 241 164.502C242.421 164.502 243.572 165.622 243.572 167.002Z" fill="white"/>
<path fill-rule="evenodd" clip-rule="evenodd" d="M237.572 160.334C237.572 161.714 236.421 162.834 235 162.834C233.579 162.834 232.429 161.714 232.429 160.334C232.429 158.954 233.579 157.834 235 157.834C236.421 157.834 237.572 158.954 237.572 160.334Z" fill="white"/>
</svg>
